<svg enable-background="new 0 0 22.7 22.7" viewBox="0 0 22.7 22.7" xmlns="http://www.w3.org/2000/svg"><g fill="none" stroke="#000000" stroke-linecap="round" stroke-linejoin="round" stroke-miterlimit="10"><path d="m10.5 3.9h3.4v14.9h-3.4z"/><path d="m19.1 14.4c.7-.2 1.3-.6 1.8-1.2-.7.2-1.3.3-1.9.3-.4 0-.8 0-1.2 0v-2.4-1.9c0-2.2-1.8-4-4-4v7.8c.7 0 1.3.6 1.3 1.3v1.8c0 1.5 1.2 2.7 2.7 2.7h2v-2h-.8c-.7 0-1.2-.5-1.2-1.2v-1c.4 0 .9-.1 1.3-.2z"/><path d="m7.1 7.3h3.4v11.5h-3.4z"/><path d="m3.8 9.8v4.5c0 .4-.2.9-.7 1.3-.4.4-.9.7-1.3.7.5.5 1.4.5 2 0v2.6h3.3v-12.5c-1.8 0-3.3 1.5-3.3 3.4z"/></g></svg>
