<svg enable-background="new 0 0 22.7 22.7" viewBox="0 0 22.7 22.7" xmlns="http://www.w3.org/2000/svg"><path d="m2.3 2.3h18.2v18.2h-18.2z" fill="none" stroke="#000000" stroke-linecap="round" stroke-linejoin="round" stroke-miterlimit="10"/><g fill="#000000"><path d="m11.3 9.3c0 1.1-.5 1.6-1.1 1.9.8.2 1.3.9 1.3 1.9 0 1.7-1.1 2.4-2.6 2.4h-2.7c-.6 0-1-.4-1-.9v-6.6c0-.5.3-.9 1-.9h2.7c1.5 0 2.4 1 2.4 2.2zm-4.9-1.1v2.4h2.3c.9 0 1.3-.5 1.3-1.2 0-.8-.5-1.2-1.3-1.2zm0 3.5v2.7h2.4c1 0 1.5-.5 1.5-1.3s-.5-1.3-1.4-1.3h-2.5z"/><path d="m17.5 11.4v3.1c0 .2 0 .3-.2.5-.3.2-1.2.7-2.5.7-1.6 0-2.4-.9-2.4-2s.8-1.9 2.4-1.9c.6 0 1 .1 1.6.2v-.5c0-.8-.4-1.2-1.4-1.2-.4 0-.9.1-1.3.3-.1 0-.2.1-.3.1-.3 0-.5-.2-.5-.5 0-.2.1-.4.4-.5.4-.2 1-.4 1.8-.4 1.5-.2 2.4.5 2.4 2.1zm-4 2.2c0 .7.5 1 1.4 1 .6 0 1.1-.2 1.4-.4v-1.4c-.5-.1-.9-.2-1.4-.2-1-.1-1.4.4-1.4 1z"/></g></svg>
