<svg enable-background="new 0 0 22.7 22.7" viewBox="0 0 22.7 22.7" xmlns="http://www.w3.org/2000/svg"><g fill="#00c1d8"><path d="m20.9 4.8v-2.5c0-.3-.2-.5-.5-.5h-18.1c-.3 0-.5.2-.5.5v2.5z"/><path d="m1.8 5.8v14.6c0 .3.2.5.5.5h18.2c.3 0 .5-.2.5-.5v-14.6zm5.2 11c0 .3-.2.5-.5.5s-.5-.2-.5-.5v-6.4c0-.2.3-.4.5-.4s.5.2.5.5zm3.2 0c0 .3-.2.5-.5.5s-.5-.2-.5-.5v-5.5c0-.3.2-.5.5-.5s.5.2.5.5zm3.2 0c0 .3-.2.5-.5.5s-.5-.2-.5-.5v-6.9c0-.3.2-.5.5-.5s.5.2.5.5zm3.2 0c0 .3-.2.5-.5.5s-.5-.2-.5-.5v-7.8c0-.3.2-.5.5-.5s.5.2.5.5z"/></g></svg>