<svg enable-background="new 0 0 22.7 22.7" viewBox="0 0 22.7 22.7" xmlns="http://www.w3.org/2000/svg"><g fill="#00c1d8"><path d="m10.2 1.8h-8c-.2 0-.4.2-.4.5v8c0 .3.2.5.5.5h8c.3 0 .5-.2.5-.5v-8c-.1-.3-.3-.5-.6-.5z"/><path d="m20.4 1.8h-8c-.2 0-.4.2-.4.5v8c0 .3.2.5.5.5h8c.3 0 .5-.2.5-.5v-8c-.1-.3-.3-.5-.6-.5z"/><path d="m10.2 12h-8c-.3 0-.5.2-.5.5v8c0 .3.2.5.5.5h8c.3 0 .5-.2.5-.5v-8c0-.3-.2-.5-.5-.5z"/><path d="m20.4 12h-8c-.3 0-.5.2-.5.5v8c0 .3.2.5.5.5h8c.3 0 .5-.2.5-.5v-8c0-.3-.2-.5-.5-.5z"/></g></svg>