<svg enable-background="new 0 0 22.7 22.7" viewBox="0 0 22.7 22.7" xmlns="http://www.w3.org/2000/svg"><path d="m19.2 1.8h-15.7c-.3 0-.5.2-.5.5v18.2c0 .3.2.5.5.5h15.8c.3 0 .5-.2.5-.5v-18.2c-.1-.3-.3-.5-.6-.5zm-5.6 15.2h-7.8c-.3 0-.5-.2-.5-.5s.3-.5.5-.5h7.8c.3 0 .5.2.5.5s-.2.5-.5.5zm3.2-3.4h-11c-.3 0-.5-.2-.5-.5s.2-.5.5-.5h11c.3 0 .5.2.5.5s-.2.5-.5.5zm-11.5-4c0-.3.2-.5.5-.5h7.8c.3 0 .5.2.5.5s-.2.5-.5.5h-7.8c-.2 0-.5-.2-.5-.5zm11.5-2.9h-11c-.3 0-.5-.2-.5-.5s.2-.5.5-.5h11c.3 0 .5.2.5.5s-.2.5-.5.5z" fill="#00c1d8"/></svg>