<svg height="202" width="482" xmlns="http://www.w3.org/2000/svg" xmlns:xlink="http://www.w3.org/1999/xlink"><mask id="a" fill="#fff"><path d="m0 .916h198.238v160.543h-198.238z" fill="#fff" fill-rule="evenodd"/></mask><g fill="#231f20" fill-rule="evenodd"><path d="m10.491 25.147c-5.918.176-10.383-2.408-10.49-6.022-.079-2.642 5.703-10.89 9.23-12.225 2.41-.911 14.151-5.37 33.721-5.952 7.252-.215 19.568.675 29.967 2.216 60.535 8.972 124.082 55.132 125.298 96.07.828 27.855-23.236 53.986-70.212 55.383a120.909 120.909 0 0 1 -34.361-3.907c-.226 6.837.284 10.458-9.415 10.747-5.93.175-8.242-9.432-9.114-17.248-28.359-12.584-45.446-33.024-45.687-41.09-.356-12.014 21.488-22.034 47.035-26 .36-9.945 2.043-35.27 7.293-35.425 2.11-.063 6.48 4.832 8.131 12.319 1.499 6.802 1.655 19.207 1.671 21.417l1.929-.07c35.846-1.065 57.33 10.143 57.724 23.418.305 10.29-8.804 15.559-13.583 15.7-4.779.143-10.379-2.576-10.423-4.055-.085-2.832 10.199-3.498 10.062-8.075-.205-6.907-28.705-9.936-46.264-10.044-.026 5.95-.103 13.137.041 17.965.137 4.639.426 16.623.568 26.622 7.966 1.687 16.174 2.597 24.219 2.358 18.931-.562 62.175-7.465 61.209-39.952-1.348-45.383-91.085-87.077-139.151-85.65-18.931.563-30.293 2.594-30.237 4.452.036 1.238 9.219 1.716 9.292 4.166.072 2.449-5.216 2.786-8.453 2.882m65.78 67.847c-17.97 1.338-40.953 4.674-40.766 10.968.195 6.584 17.134 19.233 39.376 27.472 1.034-13.474 1.291-27.755 1.39-38.44" mask="url(#a)" transform="translate(0 -.916)"/><path d="m211.927 73.829c3.092-.092 7.526 7.33 7.664 11.968.138 4.639 1.248 28.882 1.572 35.867.325 6.986.095 13.676-.36 16.772-.454 3.096-1.58 4.624-6.893 4.78-5.313.158-7.788-3.006-8.24-7.685-.45-4.681-.845-17.957-.613-24.61.23-6.65.545-19.38 1.412-27.348.867-7.97 3.002-9.671 5.458-9.744m-13.141-28.385c-.328-.544-.638-1.409-.678-2.757-.089-2.97 5.04-14.353 17.945-15.288-3.288 2.255-6.613 5.142-9.903 8.84-3.094 3.477-5.555 6.537-7.364 9.205m11.254 6.136c2.663-3.76 16.47-22.248 30.7-22.671 4.177-.124 5.278 2.46 5.363 5.315.132 4.446-7.922 17.439-26.057 17.978-3.976.117-7.326-.181-10.006-.622m32.649-32.215c-.882-2.202-3.84-6.652-14.399-6.34-23.004.684-40.702 17.723-40.303 31.15.129 4.364 2.235 8.186 5.328 11.318-.805 2.194-.887 3.66-.862 4.498.069 2.334 3.58 8.49 6.274 8.41 2.28-.067 3.836-2.203 6.033-5.66 3.75 1.448 7.488 2.184 10.453 2.097 21.63-.642 41.255-20.912 40.87-33.88-.178-5.97-4.047-11.741-13.394-11.593m25.35 53.219c12.664-.376 28.529 1.265 28.649 5.314.07 2.37-1.17 7.316-7.927 8-7.97.81-48.172 2.516-48.025 7.478.077 2.625 12.158 3.206 23.24 3.878 11.382.69 29.667 1.117 30.213 19.541.432 14.545-5.072 17.62-7.55 18.778-3.144 1.471-13.711 5.49-21.812 5.73-24.416.724-34.482-13.306-34.694-20.437-.188-6.33 6.326-11.948 17.279-12.273 10.952-.325 27.913 3.624 28.047 8.13.108 3.651-7.372 5.528-10.681 5.627-14.946.444-14.213-5.63-22.827-5.374-4.906.146-11.791 10.57 12.796 9.84 21.906-.65 28.544-7.87 28.428-11.75-.153-5.133-15.871-7.635-24.963-8.107-9.093-.472-22.737-.409-27.393-3.354-4.655-2.944-4.002-9.606-2.39-15.115 3.37-11.518 26.945-15.53 39.61-15.906m43.249 4.767c8.558-.254 26.497 38.548 29.52 38.458 3.024-.089.776-9.064-1.134-18.977-4.321-22.422-11.06-33.983-4.727-34.17 4.678-.14 20.022 14.705 20.875 43.452.397 13.348-1.482 30.817-13.576 31.176-11.467.34-24.532-35.866-27.5-35.778-1.597.047-1.731 22.43-2.158 29.18-.428 6.75-2.776 10.36-6.541 10.471-5.704.17-8.208-5.295-8.53-16.075-.32-10.78 3.218-47.424 13.77-47.737m87.013 20.994c4.05-.12 7.628-.797 7.27 4.466s-.58 7.382-4.801 7.507l-21.656.643c-.715 2.408-2.567 8.614-3.4 11.234-1.044 3.285 2.246 2.559 6.492 1.348s15.77-3.38 20.506-3.52c4.735-.141 8.273 7.404 5.552 9.997s-17.37 14.96-32.658 15.414c-6.561.194-15.467-5.535-15.772-15.802-.162-5.435 2.022-12.73 4.112-18.394-.51-.322-.898-1.07-1.2-2.703-.68-3.69-2.341-7.751 3.804-8.448a64.233 64.233 0 0 1 1.833-.173l5.076-10.455c-2.06-.302-3.84-.756-5.211-1.411-3.732-1.782-6.641-6.368-6.702-8.422-.134-4.506 32.902-7.2 40.547-7.427 8.214-.244 10.546 1.342 13.169 5.09 2.623 3.747 3.616 6.4 3.646 7.428.03 1.026-.921 3.566-10.847 3.86-5.078.152-13.287 1.008-21.165 1.298l-3.43 9.142c7.663-.38 14.835-.672 14.835-.672m46.382 25.79c10.83-21.177 21.998-33.248 25.925-33.364 6.81-.203 1.046 30.595-25.925 33.364m-23.998 5.444c-8.87 17.499-14.84 36.04-14.426 49.998.467 15.727 10.125 21.593 13.06 21.506 2.934-.088 3.081-4.741 3.608-8.21 2.987-19.638 8.135-37.041 14.005-51.665 2.327.586 4.631.857 6.762.793 17.986-.534 38.832-22.024 38.152-44.905-.358-12.081-4.977-20.65-12.72-20.42-11.324.337-27.607 17.457-40.68 38.945-1.169-8.72 5.706-22.146 11.57-31.532 4.117-6.592 3.396-14.43 1.685-14.38-2.397.072-25.599 19.715-24.799 46.659.156 5.234 1.52 9.627 3.783 13.21"/></g></svg>