<svg enable-background="new 0 0 258.75 84.56" height="84.56" viewBox="0 0 258.75 84.56" width="258.75" xmlns="http://www.w3.org/2000/svg"><path d="m32.96 38.56v-8.75h30.48c.32 1.6.48 3.55.48 5.63 0 6.72-1.84 15.04-7.76 20.96-5.76 6-13.12 9.2-22.88 9.2-18.08 0-33.28-14.72-33.28-32.8s15.2-32.8 33.28-32.8c10 0 17.12 3.92 22.48 9.04l-6.32 6.32c-3.84-3.6-9.04-6.4-16.16-6.4-13.2 0-23.52 10.64-23.52 23.84s10.32 23.84 23.52 23.84c8.56 0 13.44-3.44 16.56-6.56 2.56-2.56 4.28-6.48 4.92-11.52z" fill="#4285f4"/><path d="m109.66 44.48c0 12.16-9.52 21.12-21.2 21.12s-21.2-8.96-21.2-21.12c0-12.24 9.52-21.12 21.2-21.12s21.2 8.88 21.2 21.12zm-9.28 0c0-7.6-5.52-12.8-11.92-12.8s-11.92 5.2-11.92 12.8c0 7.52 5.52 12.8 11.92 12.8s11.92-5.28 11.92-12.8z" fill="#e94235"/><path d="m155.66 44.48c0 12.16-9.52 21.12-21.2 21.12s-21.2-8.96-21.2-21.12c0-12.24 9.52-21.12 21.2-21.12s21.2 8.88 21.2 21.12zm-9.28 0c0-7.6-5.52-12.8-11.92-12.8s-11.92 5.2-11.92 12.8c0 7.52 5.52 12.8 11.92 12.8s11.92-5.28 11.92-12.8z" fill="#fabb05"/><path d="m199.77 24.64v37.92c0 15.6-9.2 22-20.08 22-10.24 0-16.4-6.88-18.72-12.48l8.08-3.36c1.44 3.44 4.96 7.52 10.64 7.52 6.96 0 11.28-4.32 11.28-12.4v-3.04h-.32c-2.08 2.56-6.08 4.8-11.12 4.8-10.56 0-20.24-9.2-20.24-21.04 0-11.92 9.68-21.2 20.24-21.2 5.04 0 9.04 2.24 11.12 4.72h.32v-3.44zm-8.16 19.92c0-7.44-4.96-12.88-11.28-12.88-6.4 0-11.76 5.44-11.76 12.88 0 7.36 5.36 12.72 11.76 12.72 6.32 0 11.28-5.36 11.28-12.72z" fill="#4285f4"/><path d="m215.25 2.32v62h-9.28v-62h9.28z" fill="#34a853"/><path d="m251.15 51.44 7.2 4.8c-2.32 3.44-7.92 9.36-17.6 9.36-12 0-20.96-9.28-20.96-21.12 0-12.56 9.04-21.12 19.92-21.12 10.96 0 16.32 8.72 18.08 13.44l.96 2.4-28.24 11.68c2.16 4.24 5.52 6.4 10.24 6.4s8-2.32 10.4-5.84zm-22.16-7.6 18.88-7.84c-1.04-2.64-4.16-4.48-7.84-4.48-4.72 0-11.28 4.16-11.04 12.32z" fill="#e94235"/></svg>