<svg id="Group_228" data-name="Group 228" xmlns="http://www.w3.org/2000/svg" width="204.884" height="29.177" viewBox="0 0 204.884 29.177">
    <defs>
        <clipPath id="clip-path">
            <path id="Rectangle_300" data-name="Rectangle 300" style="fill:none" d="M0 0h204.884v29.177H0z"/>
        </clipPath>
        <style>
            .cls-3{fill:#e20613}
        </style>
    </defs>
    <g id="Group_150" data-name="Group 150" style="clip-path:url(#clip-path)">
        <path id="Path_240" data-name="Path 240" class="cls-3" d="M0 19.553h6.111c0 2.708 2.238 4.015 4.717 4.015 2.282 0 4.513-1.2 4.513-3.294 0-2.173-2.555-2.77-5.594-3.479C5.521 15.754.389 14.527.389 8.489c0-5.376 3.96-8.4 10.166-8.4 6.442 0 10.1 3.439 10.1 9.023h-5.987c0-2.413-1.991-3.545-4.258-3.545-1.965 0-3.956.834-3.956 2.668 0 1.973 2.435 2.57 5.4 3.28 4.273 1.081 9.637 2.413 9.637 8.691 0 6.053-4.822 8.99-10.624 8.99C4.433 29.191 0 25.577 0 19.553" transform="translate(0 -.069)"/>
        <path id="Path_241" data-name="Path 241" class="cls-3" d="M129.167 28.92v5.2h-4.153c-4.757 0-7.679-2.922-7.679-7.719V17.2h-3.909v-1.259l8.539-9.077h1.117v5.641h5.965v4.7h-5.867v8.425a3.008 3.008 0 0 0 3.33 3.29z" transform="translate(-91.871 -5.56)"/>
        <path id="Path_242" data-name="Path 242" class="cls-3" d="M223.737 33.911V55.53h-4.582l-.5-1.934a10.508 10.508 0 0 1-7.006 2.578A11.117 11.117 0 0 1 200.3 44.721a11.078 11.078 0 0 1 11.341-11.389 10.543 10.543 0 0 1 7.1 2.644l.624-2.066zm-5.729 10.81a5.889 5.889 0 1 0-5.885 5.925 5.741 5.741 0 0 0 5.885-5.925" transform="translate(-162.239 -26.998)"/>
        <path id="Path_243" data-name="Path 243" class="cls-3" d="M347.226 28.92v5.2h-4.153c-4.757 0-7.679-2.922-7.679-7.719V17.2h-3.909v-1.259l8.539-9.077h1.117v5.641h5.965v4.7h-5.866v8.425a3.008 3.008 0 0 0 3.33 3.29z" transform="translate(-268.49 -5.56)"/>
        <path id="Path_244" data-name="Path 244" class="cls-3" d="M428.6 56.17c-5.426 0-9.052-3.1-9.081-7.73h5.7c.029 1.925 1.5 2.886 3.6 2.886 1.623 0 3.075-.735 3.075-2.18 0-1.478-1.875-1.925-4.16-2.307-3.454-.575-7.847-1.5-7.847-6.595 0-4.091 3.479-6.916 8.7-6.916s8.644 2.9 8.666 7.225H431.7c-.022-1.718-1.227-2.566-3.265-2.566-1.82 0-2.893.834-2.893 2.071 0 1.441 1.845 1.776 4.091 2.184 3.527.633 8.029 1.38 8.029 6.646 0 4.411-3.607 7.283-9.066 7.283z" transform="translate(-339.792 -26.994)"/>
        <path id="Path_245" data-name="Path 245" class="cls-3" d="M546.768 16.088a7.259 7.259 0 0 1 3.88 6.694c0 4.495-3.953 8.087-8.823 8.087h-11.913V2.844H541.5c4.834 0 8.426 3.083 8.426 7.206a7.374 7.374 0 0 1-3.159 6.038zm-5.515 9.212a3.147 3.147 0 1 0 0-6.286h-5.383V25.3h5.383zm2.793-14.3a2.892 2.892 0 0 0-3.123-2.988h-5.052v5.976h5.052A2.892 2.892 0 0 0 544.046 11z" transform="translate(-429.208 -2.304)"/>
        <path id="Path_246" data-name="Path 246" class="cls-3" d="M645.065 44.753c0-6.559 4.99-11.422 11.687-11.422 6.664 0 11.687 4.87 11.687 11.422a11.69 11.69 0 0 1-23.374 0m17.449 0a5.764 5.764 0 1 0-11.523 0 5.764 5.764 0 1 0 11.523 0" transform="translate(-522.478 -26.997)"/>
        <path id="Path_247" data-name="Path 247" class="cls-3" d="M807.574 42.424v13.557h-5.845V43.389c0-2.886-1.132-4.408-3.25-4.408-2.61 0-4.157 1.922-4.157 5.306v11.694h-5.7V43.389c0-2.886-1.1-4.408-3.192-4.408-2.642 0-4.222 1.922-4.222 5.306v11.694h-5.845V34.362h4.084l1.1 2.68a8.314 8.314 0 0 1 6.449-3.194 7.009 7.009 0 0 1 6.276 3.459 8.178 8.178 0 0 1 6.692-3.459c4.473 0 7.614 3.509 7.614 8.575" transform="translate(-628.014 -27.416)"/>
        <path id="Path_248" data-name="Path 248" class="cls-3" d="M979.5 17.71a11.057 11.057 0 0 1-11.364 11.419 10.358 10.358 0 0 1-6.767-2.418l-.692 1.806h-4.316V5.44L961.474 0h.762l-.036 8.072a10.443 10.443 0 0 1 5.931-1.781A11.053 11.053 0 0 1 979.5 17.71m-5.957 0a5.888 5.888 0 1 0-11.775 0 5.888 5.888 0 1 0 11.775 0" transform="translate(-774.612)"/>
    </g>
</svg>
