<svg height="16" width="16" xmlns="http://www.w3.org/2000/svg"><path d="m.984 10.213a3.375 3.375 0 0 0 0 4.764 3.375 3.375 0 0 0 4.763 0l3.275-3.275a3.37 3.37 0 0 0 .182-4.573.633.633 0 1 0 -.963.824 2.086 2.086 0 0 1 -.112 2.856l-3.275 3.275a2.087 2.087 0 0 1 -2.977 0 2.087 2.087 0 0 1 0-2.977l3.126-3.127a.632.632 0 1 0 -.893-.893zm5.954-5.953a3.37 3.37 0 0 0 -.181 4.573.633.633 0 0 0 .963-.824 2.086 2.086 0 0 1 .112-2.856l3.275-3.275a2.087 2.087 0 0 1 2.977 0 2.087 2.087 0 0 1 0 2.977l-3.126 3.125a.632.632 0 1 0 .893.894l3.126-3.127a3.375 3.375 0 0 0 0-4.763 3.375 3.375 0 0 0 -4.764 0l-3.275 3.275z" fill="#333"/></svg>