<svg enable-background="new 0 0 50 50" viewBox="0 0 50 50" xmlns="http://www.w3.org/2000/svg" xmlns:xlink="http://www.w3.org/1999/xlink"><clipPath id="a"><circle cx="24.9" cy="24.9" r="20"/></clipPath><clipPath id="b"><circle cx="24.9" cy="24.9" r="20"/></clipPath><g fill="none" stroke="#c5c9cc" stroke-miterlimit="10" stroke-width="2"><g clip-path="url(#a)"><path d="m12.3 10s10.8 16.3.3 32.4"/><path d="m13.5 18.3 2.5.2 1.6-1.9"/><path d="m12 14.4 2.4-.1 1.3-2.2"/><path d="m14.7 22.8 2.4.6 1.8-1.8"/><path d="m14.9 27.2 2.3 1.1 2.2-1.1"/><path d="m14.4 32.1 2 1.5 2.4-.7"/><path d="m13.2 36.4 1.3 2 2.4.3"/></g><g clip-path="url(#b)"><path d="m37.8 39.9s-10.8-16.3-.3-32.4"/><path d="m36.6 31.6-2.3-.1-1.7 1.8"/><path d="m38.3 35.6-2.4.1-1.4 2.1"/><path d="m35.6 27.2-2.4-.5-1.8 1.6"/><path d="m35.4 22.8-2.3-1.2-2.2 1.1"/><path d="m35.7 17.8-1.9-1.5-2.3.6"/><path d="m37.1 13.6-1.4-2.1-2.5-.1"/></g><path d="m44.9 24.9c0 11.1-8.9 20-20 20s-20-8.9-20-20 8.9-20 20-20 20 8.9 20 20z"/></g></svg>