<svg enable-background="new 0 0 50 50" viewBox="0 0 50 50" xmlns="http://www.w3.org/2000/svg"><g fill="none" stroke="#c5c9cc" stroke-miterlimit="10" stroke-width="2"><path d="m-70.1 24.9c0 11.1-8.9 20-20 20s-20-8.9-20-20 8.9-20 20-20 20 9 20 20z"/><path d="m-91.5 5.1c6.5.8 11.6 9.5 11.6 20s-5.1 19.2-11.6 20"/><path d="m-110.1 24.9h40"/><path d="m-73.4 13.7c-1.5 2.8-3.7 4.8-6.1 5.6-8.5 2.5-13.3-14.3-27.6-4.5"/><path d="m-73.4 36.1c-1.5-2.8-3.7-4.8-6.1-5.6-8.6-2.5-13.4 14.3-27.6 4.6"/><path d="m39.6 19.5c0 8.1-6.5 14.6-14.6 14.6s-14.6-6.5-14.6-14.6 6.5-14.6 14.6-14.6 14.6 6.6 14.6 14.6z"/><path d="m-23.5 19.5c0 8.1-6.5 14.6-14.6 14.6s-14.6-6.5-14.6-14.6 6.5-14.6 14.6-14.6 14.6 6.6 14.6 14.6z"/><path d="m-38.1 44.9-3-7.6v-3.1h5.9v3.1z" stroke-linecap="round" stroke-linejoin="round"/></g><g fill="#c5c9cc"><circle cx="-38.1" cy="22.8" r="1.2"/><circle cx="-34.7" cy="22.8" r="1.2"/><circle cx="-31.2" cy="22.8" r="1.2"/><circle cx="-27.7" cy="22.8" r="1.2"/><circle cx="-39.9" cy="26.1" r="1.2"/><circle cx="-43.4" cy="26.1" r="1.2"/><circle cx="-46.9" cy="26.1" r="1.2"/><circle cx="-36.4" cy="26.1" r="1.2"/><circle cx="-32.9" cy="26.1" r="1.2"/><circle cx="-29.4" cy="26.1" r="1.2"/><circle cx="-41.6" cy="29.4" r="1.2"/><circle cx="-38.1" cy="29.4" r="1.2"/><circle cx="-34.7" cy="29.4" r="1.2"/><circle cx="-41.6" cy="22.8" r="1.2"/><circle cx="-45.1" cy="22.8" r="1.2"/><circle cx="-48.6" cy="22.8" r="1.2"/></g><path d="m11.3 44.9h28.3" style="fill:none;stroke:#c5c9cc;stroke-width:2;stroke-linecap:round;stroke-linejoin:round;stroke-miterlimit:10"/><path d="m23.2 44.9v-2c0-5.5-4.8-6.3-4.8-6.3v-2.4h13.3v2.4s-4.8.8-4.8 6.3v2" style="fill:none;stroke:#c5c9cc;stroke-width:2;stroke-linecap:round;stroke-linejoin:round;stroke-miterlimit:10"/></svg>