<svg enable-background="new 0 0 22.7 22.7" viewBox="0 0 22.7 22.7" xmlns="http://www.w3.org/2000/svg"><path d="m-92.8-214.8c0 5-4 9.1-9.1 9.1s-9.1-4-9.1-9.1 4-9.1 9.1-9.1 9.1 4.1 9.1 9.1z" fill="#fff"/><path d="m17.6 11.3c0-1.5 1.3-2.8 2.8-2.8v-4.2h-18.1v4.3c1.5-.1 2.7 1.2 2.7 2.7s-1.3 2.8-2.8 2.8v4.3h18.2v-4.3c-1.5 0-2.8-1.2-2.8-2.8z" fill="none" stroke="#000" stroke-linecap="round" stroke-linejoin="round" stroke-miterlimit="10"/><path d="m11.8 10.9v-2.3c.4.1.8.2 1.2.5.1.1.2.1.3.1.3 0 .5-.2.5-.5 0-.2-.2-.4-.2-.4-.5-.4-1.1-.6-1.8-.7v-.8c0-.3-.2-.5-.5-.5s-.5.2-.5.5v.8c-1.2.2-2.1 1-2.1 2.1 0 1.2.8 1.7 2.1 2.1v2.2c-.5-.1-1-.3-1.4-.7-.1-.1-.2-.1-.3-.1-.3 0-.5.2-.5.5 0 .2.1.3.2.4.6.5 1.3.8 2.1.9v.8c0 .3.2.5.5.5s.5-.2.5-.5v-.8c1.3-.1 2.3-.9 2.3-2.1-.1-1-.8-1.7-2.4-2zm-.9-.3c-.8-.3-1-.6-1-1 0-.5.4-.8 1-1zm.9 3.5v-2.1c1 .3 1.2.6 1.2 1.1s-.5.9-1.2 1z" fill="#000"/></svg>
