<svg enable-background="new 0 0 22.7 22.7" viewBox="0 0 22.7 22.7" xmlns="http://www.w3.org/2000/svg" xmlns:xlink="http://www.w3.org/1999/xlink"><defs><ellipse id="a" cx="11.3" cy="11.3" rx="10.6" ry="7.2"/><clipPath id="b"><use xlink:href="#a"/></clipPath><clipPath id="c"><use xlink:href="#e"/></clipPath><clipPath id="d"><use xlink:href="#f"/></clipPath><ellipse id="e" cx="11.3" cy="11.3" rx="10.6" ry="7.2"/><path id="f" d="m11.3 19c-6.1 0-11.1-3.4-11.1-7.7s5-7.7 11.1-7.7 11.1 3.4 11.1 7.7-4.9 7.7-11.1 7.7zm0-14.3c-5.6 0-10.1 3-10.1 6.7 0 3.6 4.6 6.6 10.1 6.6s10.1-3 10.1-6.7c.1-3.6-4.5-6.6-10.1-6.6z"/></defs><path clip-path="url(#b)" d="m18.2 5.5h1v12.3h-1z" fill="#a7a9ac"/><use fill="none" stroke="#a7a9ac" stroke-miterlimit="10" xlink:href="#a"/><path clip-path="url(#c)" d="m3.6 5.5h1v12.3h-1z" fill="#a7a9ac"/><use fill="none" stroke="#a7a9ac" stroke-miterlimit="10" xlink:href="#e"/><ellipse cx="11.3" cy="11.3" fill="none" rx="10.6" ry="7.2" stroke="#a7a9ac" stroke-linecap="round" stroke-linejoin="round" stroke-miterlimit="10"/><g fill="#a7a9ac"><path d="m15.6 11.8h-8.4c-.3 0-.5-.2-.5-.5s.2-.5.5-.5h8.4c.3 0 .5.2.5.5s-.3.5-.5.5z"/><path d="m11.3 13.5c-.3 0-.5-.2-.5-.5v-3.3c0-.3.2-.5.5-.5s.5.2.5.5v3.3c0 .3-.2.5-.5.5z"/><path d="m8.7 13.5c-.3 0-.5-.2-.5-.5v-3.3c0-.3.2-.5.5-.5s.5.2.5.5v3.3c0 .3-.2.5-.5.5z"/><path d="m14 13.5c-.3 0-.5-.2-.5-.5v-3.3c0-.3.2-.5.5-.5s.5.2.5.5v3.3c0 .3-.2.5-.5.5z"/><use xlink:href="#f"/></g><path clip-path="url(#d)" d="m18.2 5.5h1v12.3h-1z" fill="#c5c9cc"/><path d="m11.3 19c-6.1 0-11.1-3.4-11.1-7.7s5-7.7 11.1-7.7 11.1 3.4 11.1 7.7-4.9 7.7-11.1 7.7zm0-14.3c-5.6 0-10.1 3-10.1 6.7 0 3.6 4.6 6.6 10.1 6.6s10.1-3 10.1-6.7c.1-3.6-4.5-6.6-10.1-6.6z" fill="#c5c9cc"/></svg>