<svg enable-background="new 0 0 22.7 22.7" viewBox="0 0 22.7 22.7" xmlns="http://www.w3.org/2000/svg"><g fill="#a7a9ac"><path d="m11.3 14.2c-6.2 0-11.1-2.2-11.1-5s4.9-5 11.1-5 11.1 2.2 11.1 5-4.8 5-11.1 5zm0-8.9c-6 0-10.1 2.1-10.1 4s4.2 4 10.1 4c6.1 0 10.1-2.1 10.1-4s-4-4-10.1-4z"/><path d="m11.3 18.5c-6.2 0-11.1-2.2-11.1-5v-4.3c0-.3.2-.5.5-.5s.5.3.5.5c0 1.9 4.2 4 10.1 4 6.1 0 10.1-2.1 10.1-4 0-.3.2-.5.5-.5s.5.2.5.5v4.3c.1 2.8-4.8 5-11.1 5zm-10.1-7.2v2.2c0 1.9 4.1 4 10.1 4s10.1-2.1 10.1-4v-2.2c-1.7 1.7-5.6 2.9-10.1 2.9s-8.4-1.1-10.1-2.9z"/></g></svg>