<svg enable-background="new 0 0 22.7 22.7" viewBox="0 0 22.7 22.7" xmlns="http://www.w3.org/2000/svg" xmlns:xlink="http://www.w3.org/1999/xlink"><clipPath id="a"><path d="m20.4 11.3c0 5-4 9.1-9.1 9.1s-9.1-4-9.1-9.1 4-9.1 9.1-9.1 9.1 4.1 9.1 9.1z"/></clipPath><g fill="#a7a9ac"><g clip-path="url(#a)"><path d="m17.2 18.7c-.2 0-.3-.1-.4-.2s-5-7.8-.1-15.3c.2-.2.5-.3.7-.1s.3.5.1.7c-4.5 6.9.1 14.1.1 14.2.2.2.1.5-.1.7-.1-.1-.2 0-.3 0z"/><path d="m14.8 15.7c-.1 0-.2 0-.3-.1-.2-.2-.2-.5 0-.7l.8-.8c.1-.1.2-.2.4-.2h1c.3 0 .5.2.5.5s-.2.5-.5.5h-.8l-.6.7c-.2 0-.3.1-.5.1z"/><path d="m15.7 17.7c-.1 0-.2 0-.3-.1-.2-.2-.3-.5-.1-.7l.6-1c.1-.1.2-.2.4-.2h1.1c.3 0 .5.2.5.5s-.2.5-.5.5h-.8l-.5.7c-.1.2-.2.3-.4.3z"/><path d="m14.3 13.4c-.1 0-.3-.1-.4-.2-.2-.2-.2-.5 0-.7l.8-.7c.1-.1.3-.1.4-.1l1.1.2c.3.1.4.3.4.6-.1.3-.3.4-.6.4l-.8-.2-.6.6c-.1 0-.2.1-.3.1z"/><path d="m16.1 10.9c-.1 0-.2 0-.2-.1l-.8-.4-.8.4c-.2.1-.5 0-.7-.2-.1-.2 0-.5.2-.7l1-.5c.1-.1.3-.1.5 0l1 .5c.2.1.3.4.2.7 0 .2-.2.3-.4.3z"/><path d="m16.2 8.6c-.1 0-.2 0-.3-.1l-.6-.5-.8.2c-.3.1-.5-.1-.6-.4s.1-.5.4-.6l1-.3c.2 0 .3 0 .4.1l.9.7c.2.2.3.5.1.7-.2.1-.3.2-.5.2z"/><path d="m16.9 6.7c-.2 0-.3-.1-.4-.2l-.5-.8h-.9c-.3 0-.5-.2-.5-.5s.3-.5.5-.5h1.1c.2 0 .3.1.4.2l.6 1c.2.2.1.5-.1.7 0 .1-.1.1-.2.1z"/><path d="m5.7 19.8c-.1 0-.2 0-.3-.1-.2-.2-.3-.5-.1-.7 4.6-6.9-.1-14.1-.1-14.2-.2-.2-.1-.5.1-.6.3-.2.6-.1.7.1.1.1 5 7.8.1 15.3 0 .1-.2.2-.4.2z"/><path d="m7.3 8.9-1.2-.1c-.3 0-.5-.3-.5-.5s.3-.5.5-.5l.9.1.6-.7c.2-.2.5-.2.7 0s.2.5.1.7l-.7.9c-.1.1-.3.1-.4.1z"/><path d="m5.5 7.1c-.3 0-.5-.2-.5-.5s.2-.5.5-.5h.8l.5-.8c.1-.3.4-.3.6-.2s.3.4.2.7l-.6 1c-.1.1-.2.2-.4.2z"/><path d="m7.8 11.2h-.1l-1.1-.3c-.3-.1-.4-.3-.4-.6.1-.3.4-.5.6-.4l.8.2.6-.6c.2-.2.5-.2.7 0s.2.5 0 .7l-.8.8c0 .1-.2.2-.3.2z"/><path d="m7.8 13.4c-.1 0-.1 0-.2 0l-1-.5c-.2-.1-.4-.4-.2-.7s.4-.4.7-.2l.8.4.8-.4c.2-.1.5 0 .7.2s0 .5-.2.7l-1 .5c-.2 0-.3 0-.4 0z"/><path d="m7.5 15.8c-.1 0-.2 0-.3-.1l-.9-.7c-.3-.2-.3-.5-.1-.7s.5-.3.7-.1l.7.5.8-.2c.3-.1.6.1.6.3.1.3-.1.5-.3.6l-1.1.3c0 .1-.1.1-.1.1z"/><path d="m7.7 18.1-1.2-.1c-.1 0-.3-.1-.4-.2l-.6-.9c-.2-.2-.1-.5.1-.7.4-.2.7-.1.8.1l.5.7.9.1c.3 0 .5.3.4.6 0 .2-.2.4-.5.4z"/></g><path d="m11.3 20.9c-5.3 0-9.6-4.3-9.6-9.6s4.3-9.6 9.6-9.6 9.6 4.3 9.6 9.6-4.3 9.6-9.6 9.6zm0-18.1c-4.7 0-8.6 3.9-8.6 8.6s3.9 8.6 8.6 8.6 8.6-3.9 8.6-8.6-3.8-8.6-8.6-8.6z"/></g></svg>