<svg enable-background="new 0 0 22.7 22.7" viewBox="0 0 22.7 22.7" xmlns="http://www.w3.org/2000/svg"><g fill="#a7a9ac"><path d="m11.3 16.3c-4.2 0-7.6-3.4-7.6-7.6s3.4-7.6 7.6-7.6 7.6 3.4 7.6 7.6-3.4 7.6-7.6 7.6zm0-14.1c-3.6 0-6.5 2.9-6.5 6.5s2.9 6.5 6.5 6.5 6.5-2.9 6.5-6.5c0-3.5-2.9-6.5-6.5-6.5z"/><path d="m18.2 21.5h-13.6c-.3 0-.6-.2-.6-.5s.2-.5.5-.5h13.6c.3 0 .5.2.5.5s-.1.5-.4.5z"/><path d="m12.3 21.5c-.3 0-.5-.2-.5-.5v-1c0-2.1 1.3-3.1 2.3-3.4v-.2h-5.4v.2c1 .3 2.3 1.3 2.3 3.4v1c0 .3-.2.5-.5.5s-.6-.2-.6-.5v-1c0-2.1-1.7-2.5-1.9-2.5-.3 0-.4-.3-.4-.5v-1.2c0-.3.2-.5.5-.5h6.4c.3 0 .5.2.5.5v1.2c0 .3-.2.5-.4.5s-1.9.4-1.9 2.5v1c.1.3-.2.5-.4.5z"/></g></svg>