<svg enable-background="new 0 0 22.7 22.7" viewBox="0 0 22.7 22.7" xmlns="http://www.w3.org/2000/svg"><g fill="#a7a9ac"><path d="m12.6 20.5c-2.4 0-4.7-.9-6.4-2.6-.2-.2-.2-.5 0-.7s.5-.2.7 0c1.5 1.5 3.6 2.3 5.7 2.3 4.5 0 8.1-3.7 8.1-8.1s-3.7-8.2-8.1-8.2-8.1 3.7-8.1 8.1c0 .3-.2.5-.5.5s-.5-.2-.5-.5c0-5 4.1-9.1 9.1-9.1s9.1 4.1 9.1 9.1-4.1 9.2-9.1 9.2z"/><path d="m17.2 11.8h-4.6c-.3 0-.5-.2-.5-.5v-6.5c0-.3.2-.5.5-.5s.5.2.5.5v6h4.1c.3 0 .5.2.5.5s-.3.5-.5.5z"/><path d="m3.9 11.8c-.1 0-.3 0-.4-.1l-2.4-2.4c-.2-.2-.2-.5 0-.7s.5-.2.7 0l2.1 2.1 2.1-2.1c.2-.2.5-.2.7 0s.2.5 0 .7l-2.4 2.4c-.1.1-.3.1-.4.1z"/></g></svg>