<svg enable-background="new 0 0 22.7 22.7" viewBox="0 0 22.7 22.7" xmlns="http://www.w3.org/2000/svg" xmlns:xlink="http://www.w3.org/1999/xlink"><clipPath id="a"><path d="m20.4 11.3c0 5-4 9.1-9.1 9.1s-9.1-4-9.1-9.1 4-9.1 9.1-9.1 9.1 4.1 9.1 9.1z"/></clipPath><g fill="#a7a9ac"><g clip-path="url(#a)"><path d="m10.3 21-.1-1 .5-.1c2.7-.3 4.8-4.1 4.8-8.5 0-4.5-2.1-8.3-4.8-8.7l-.5-.1.1-1 .5.1c3.2.4 5.7 4.6 5.7 9.7 0 5-2.5 9.1-5.7 9.5z"/><path d="m1.8 10.8h19.2v1h-19.2z"/><path d="m15.4 9.4c-1.4 0-2.5-.9-3.7-1.7-2-1.5-4.2-3-7.8-.6l-.4.3-.6-.8.4-.3c4.2-2.9 6.8-1 8.9.6 1.3 1 2.4 1.8 3.7 1.4 1.1-.3 2-1.1 2.6-2.3l.2-.4.9.4-.2.4c-.7 1.4-1.8 2.4-3.1 2.8-.3.2-.6.2-.9.2z"/><path d="m7.4 17.9c-1.2 0-2.5-.4-4.1-1.5l-.4-.3.6-.8.4.3c3.6 2.5 5.7.9 7.7-.6 1.4-1 2.9-2.1 4.7-1.6 1.2.4 2.3 1.4 3.1 2.8l.2.4-.9.5-.2-.4c-.6-1.1-1.5-2-2.5-2.3-1.3-.4-2.4.5-3.8 1.4-1.3.9-2.8 2.1-4.8 2.1z"/></g><path d="m11.3 20.9c-5.3 0-9.6-4.3-9.6-9.6s4.3-9.6 9.6-9.6 9.6 4.3 9.6 9.6-4.3 9.6-9.6 9.6zm0-18.1c-4.7 0-8.6 3.9-8.6 8.6s3.9 8.6 8.6 8.6 8.6-3.9 8.6-8.6-3.8-8.6-8.6-8.6z"/></g></svg>