<svg enable-background="new 0 0 22.7 22.7" viewBox="0 0 22.7 22.7" xmlns="http://www.w3.org/2000/svg" xmlns:xlink="http://www.w3.org/1999/xlink"><defs><circle id="a" cx="11.3" cy="11.3" r="9.1"/><clipPath id="b"><use xlink:href="#a"/></clipPath></defs><g fill="none" stroke="#969ca1" stroke-linecap="round" stroke-linejoin="round" stroke-miterlimit="10"><g clip-path="url(#b)"><path d="m11.3 7.2-4 2.9 1.6 4.7h4.9l1.5-4.7z"/><path d="m13.8 14.8 1.3 1.8"/><path d="m19.6 16.5-4.5.1-1.4 4.3"/><path d="m7.3 10.1-2.1-.7"/><path d="m1.6 12.1 3.6-2.7-1.3-4.3"/><path d="m11.3 7.2v-2.3"/><path d="m7.7 2.4 3.6 2.5 3.7-2.5"/><path d="m8.9 14.8-1.4 1.8"/><path d="m3.1 16.5 4.4.1 1.5 4.3"/><path d="m15.3 10.1 2.2-.7"/><path d="m21 12.1-3.5-2.7 1.3-4.3"/></g><use xlink:href="#a"/><path d="m20.4 11.3c0 5-4 9.1-9.1 9.1s-9.1-4-9.1-9.1 4-9.1 9.1-9.1 9.1 4.1 9.1 9.1z"/></g></svg>