<svg enable-background="new 0 0 30 30" height="30" viewBox="0 0 30 30" width="30" xmlns="http://www.w3.org/2000/svg"><g fill="#00c1d8"><path d="m18.9 6.7c-2.5 0-5.1 0-7.6 0-.3 0-.6 0-.9 0-2.3.5-3.7 2.3-3.7 4.5v7.6s2 4.5 4.5 4.5 5 0 7.6 0c2.5 0 4.5-2 4.5-4.5 0-1.2 0-2.5 0-3.7s0-2.5 0-3.9c.2-2.5-1.9-4.5-4.4-4.5zm-3.7 13.6c-3 0-5.3-2.3-5.3-5.1 0-3 2.3-5.3 5.3-5.3 2.8 0 5.3 2.3 5.1 5.3 0 2.8-2.3 5.1-5.1 5.1zm5.3-9.4c-.6 0-1.1-.5-1.1-1.1s.5-1.1 1.1-1.1 1.1.5 1.1 1.2c0 .4-.5 1-1.1 1z"/><path d="m15.2 11.4c-2 0-3.6 1.6-3.6 3.6s1.6 3.6 3.6 3.6 3.6-1.6 3.6-3.6c0-1.9-1.7-3.6-3.6-3.6z"/><path d="m14.9 0c-8.2 0-14.9 6.7-14.9 14.9s6.7 15.1 14.9 15.1 15.1-6.7 15.1-14.9-6.7-15.1-15.1-15.1zm5 25c-.3 0-.6 0-.9 0-2.5 0-5.1 0-7.6 0-3 0-5.5-2-6.1-4.8-.3-.5-.3-.8-.3-1.3 0-2.5 0-5.1 0-7.6 0-3.1 2.2-5.6 5.3-6.1h.9 3.7 3.7c3.1 0 5.6 2.2 6.1 5.1v.9 7.5c.3 3.4-1.7 5.8-4.8 6.3z"/></g></svg>