<svg enable-background="new 0 0 30 30" height="30" viewBox="0 0 30 30" width="30" xmlns="http://www.w3.org/2000/svg"><path d="m15 0c-8.3 0-15 6.7-15 15s6.7 15 15 15 15-6.7 15-15-6.7-15-15-15zm2 23.9c0 .3-.2.8-.2 1.1s-.3.6-.6.8c-.6.5-1.7.3-2.3 0-.3-.2-.5-.5-.5-.6-.2-.9-.3-1.9-.5-3-.2-.9-.2-1.9-.3-3 0-.3 0-.8 0-1.1 0-.5.3-.8.6-1.1.9-.8 2.7-.8 3.6 0 .3.3.6.6.6 1.1v.8c.1 1.7-.2 3.4-.4 5zm-5.9-6.1c.3.3.3.5.3.9v.6s0 .2 0 .3c-.2 0-.2 0-.3-.2-.6-.5-1.2-1.1-1.7-1.7-.8-1.1-1.1-2.3-1.1-3.7 0-3 2-5.6 5-6.4 3.8-1.1 7.8 1.4 8.4 5.3.5 2.8-.5 5-2.7 6.7 0 0-.2 0-.3.2 0-.2 0-.2 0-.3 0-.3 0-.5 0-.8s0-.5.3-.8c.8-.8 1.2-1.7 1.4-2.8.3-2.2-.3-4.1-2-5.3-3.1-2.3-7.5-.9-8.6 2.8-.6 1.9-.1 3.6 1.3 5.2zm6.2-4.5c0 1.2-1.1 2.3-2.3 2.3s-2.3-1.1-2.3-2.3 1.1-2.3 2.3-2.3c1.4-.1 2.3.9 2.3 2.3zm4.4 8.3c-.9.8-2 1.4-3.1 1.9-.3.2-.3.2-.3-.3 0-.3 0-.5.2-.8 0-.2.2-.3.3-.3 1.9-.8 3.3-2.2 4.2-3.9s1.2-3.6.9-5.5c-.3-1.7-1.1-3.3-2.3-4.7-1.6-1.7-4.1-2.8-6.4-2.8-4.1 0-7.8 3-8.6 6.9-.8 3.6.8 7.5 4.1 9.4.3.2.6.3.9.5.2.2.3.2.3.5s0 .5.2.8c0 .3 0 .3-.3.2-1.6-.6-3-1.4-4.1-2.7-2-2.2-2.8-4.8-2.5-7.7.2-2.8 1.6-5.2 3.7-6.9 1.6-1.1 3.3-1.9 5.2-2 2.7-.3 5 .5 7.2 2 1.7 1.4 3 3.1 3.6 5.2.9 3.9-.1 7.3-3.2 10.2z" fill="#00c1d8"/></svg>