<svg xmlns="http://www.w3.org/2000/svg" width="26" height="24"><path fill="#2962FF" d="M13.717.425l5.57 5.132a1.372 1.372 0 0 1 0 2.053 1.672 1.672 0 0 1-2.228 0l-2.88-2.654v6.657c0 .802-.706 1.452-1.576 1.452-.87 0-1.575-.65-1.575-1.452V4.956L8.148 7.61a1.672 1.672 0 0 1-2.229 0 1.372 1.372 0 0 1 0-2.053L11.49.425A1.64 1.64 0 0 1 12.603 0c.435 0 .829.162 1.114.425zm8.339 19.898v-8.71c0-.802.705-1.452 1.575-1.452s1.575.65 1.575 1.452v10.161c0 .401-.176.764-.461 1.027a1.64 1.64 0 0 1-1.114.425H1.575A1.64 1.64 0 0 1 .461 22.8 1.392 1.392 0 0 1 0 21.774V11.613c0-.802.705-1.452 1.575-1.452s1.576.65 1.576 1.452v8.71h18.905z"/></svg>