<svg enable-background="new 0 0 19.2 19.2" viewBox="0 0 19.2 19.2" xmlns="http://www.w3.org/2000/svg"><path d="m9.6 0c-5.3 0-9.6 4.3-9.6 9.6s4.3 9.6 9.6 9.6 9.6-4.3 9.6-9.6-4.3-9.6-9.6-9.6zm-5.7 11.6c0-2.2 1.7-3.9 3.9-3.9h.5v.5h.6v2.2c-.2-.1-.4-.1-.5-.1-1 0-1.8.8-1.8 1.8 0 .4.1.8.4 1.1-.6-.3-1-.9-1-1.6 0-1 .8-1.8 1.8-1.8.2 0 .4 0 .5.1v-1.7c-2.1 0-3.8 1.8-3.8 3.9 0 1.1.4 2 1.1 2.7-1-.6-1.7-1.8-1.7-3.2zm11.4-2.8c-1.1 0-2.1-.3-2.9-.9v4.3c0 2.2-1.8 3.9-3.9 3.9-1.1 0-2.1-.5-2.8-1.2.6.4 1.4.7 2.2.7 2.2 0 3.9-1.7 3.9-3.9v-4.4c.8.6 1.8.9 2.9.9v-1.6c-.6-.1-1.1-.4-1.6-.9-.7-.4-1.2-1.2-1.4-2h-1.5v8.4c0 1-.8 1.8-1.8 1.8-.6 0-1.1-.3-1.4-.7.2.1.5.2.8.2 1 0 1.8-.8 1.8-1.8v-8.4h2.1v.3.2h.6v.3c.1.7.3 1.3.8 1.7.5.3 1 .4 1.6.4v.4c.2 0 .4.1.6.1z" fill="#00c1d8"/></svg>