<svg enable-background="new 0 0 30 30" height="30" viewBox="0 0 30 30" width="30" xmlns="http://www.w3.org/2000/svg"><path d="m15 0c-8.3 0-15 6.7-15 15s6.7 15 15 15 15-6.7 15-15-6.7-15-15-15zm8.9 9.7c-.5.6-.9 1.1-1.6 1.6 0 0-.2.2-.2.3 0 3.3-1.1 6.1-3.6 8.3-1.7 1.6-3.8 2.4-6.1 2.5s-4.3-.3-6.4-1.4l-.2-.2c2 .2 3.9-.3 5.5-1.6-1.7-.2-2.8-.9-3.4-2.7.6 0 1.1.2 1.6 0-1.7-.6-2.8-1.7-2.8-3.8.5.3 1.1.5 1.7.5-1-.3-1.4-1.1-1.8-2.1-.2-.9 0-1.9.5-2.7 2 2.4 4.5 3.8 7.7 3.9 0-.2 0-.3 0-.5-.2-1.6.6-3 2-3.8 1.4-.6 3.1-.5 4.2.6.2.2.2.2.3.2.6-.2 1.4-.5 2-.8h.2c-.2.6-.6 1.3-1.4 2 .2 0 .3 0 .5-.2.2 0 .3 0 .5-.2.2 0 .3-.2.5-.2s.3-.2.5-.2c-.1.4-.1.4-.2.5z" fill="#00c1d8"/></svg>