<svg height="150" width="150" xmlns="http://www.w3.org/2000/svg" xmlns:xlink="http://www.w3.org/1999/xlink"><linearGradient id="a" x1="49.941%" x2="49.941%" y1=".144%" y2="100.032%"><stop offset="0" stop-color="#81b4e0"/><stop offset="1" stop-color="#0c5a94"/></linearGradient><linearGradient id="b" x1="50%" x2="50%" y1=".137%" y2="71.693%"><stop offset="0" stop-color="#f06b59"/><stop offset="1" stop-color="#df2227"/></linearGradient><linearGradient id="c" x1="18.169%" x2="48.838%" y1="81.958%" y2="38.282%"><stop offset="0" stop-color="#388b41"/><stop offset="1" stop-color="#4cb749"/></linearGradient><linearGradient id="d" x1="65.064%" x2="24.382%" y1="85.352%" y2="12.208%"><stop offset="0" stop-color="#e4b022"/><stop offset=".3" stop-color="#fcd209"/></linearGradient><linearGradient id="e"><stop offset="0" stop-color="#fff" stop-opacity=".15"/><stop offset=".3" stop-color="#fff" stop-opacity=".06"/><stop offset="1" stop-color="#fff" stop-opacity=".03"/></linearGradient><linearGradient id="f" x1="49.999%" x2="49.999%" xlink:href="#e" y1="96.296%" y2="-2.466%"/><linearGradient id="g" x1="105.96%" x2="-6.276%" xlink:href="#e" y1="8.54%" y2="78.539%"/><linearGradient id="h" x1="39.927%" x2="47.694%" xlink:href="#e" y1="547.057%" y2="131.307%"/><g fill="none" fill-rule="evenodd"><ellipse cx="74.837" cy="75.187" fill="#fff" rx="73.513" ry="73.513"/><path d="m121.618 88.553c0-25.837-20.945-46.782-46.781-46.782-25.837 0-46.782 20.945-46.782 46.782h13.366c0-18.456 14.96-33.416 33.415-33.416 18.454 0 33.415 14.96 33.415 33.416" fill="#000" fill-opacity=".1"/><ellipse cx="78.178" cy="84.543" fill="#000" fill-opacity=".1" rx="25.396" ry="25.396"/><circle cx="74.837" cy="75.186" fill="url(#a)" r="27.4"/><path d="m141.667 41.771c-18.4-37.017-63.323-52.111-100.342-33.713a74.838 74.838 0 0 0 -28.64 25.025l30.075 52.128c-5.538-17.603 4.243-36.365 21.846-41.903a33.446 33.446 0 0 1 9.563-1.537" fill="url(#b)"/><path d="m12.685 33.084c-23.017 34.338-13.842 80.832 20.495 103.851a74.85 74.85 0 0 0 35.643 12.434l31.411-53.463c-11.745 14.236-32.804 16.254-47.04 4.51a33.418 33.418 0 0 1 -10.434-15.202" fill="url(#c)"/><path d="m68.822 149.368c41.22 3.116 77.162-27.773 80.28-68.993a74.835 74.835 0 0 0 -7.436-38.603h-67.498c18.453.085 33.346 15.114 33.26 33.57a33.42 33.42 0 0 1 -7.196 20.563" fill="url(#d)"/><path d="m12.685 33.084 30.075 52.128a33.415 33.415 0 0 1 1.336-22.723l-30.076-31.409" fill="url(#f)"/><path d="m68.822 149.368 31.411-53.463a33.425 33.425 0 0 1 -19.381 11.36l-13.367 42.103" fill="url(#g)"/><path d="m141.667 41.771h-67.499a33.416 33.416 0 0 1 26.064 12.698l42.77-10.692" fill="url(#h)"/></g></svg>