<svg width="138" height="150" xmlns="http://www.w3.org/2000/svg"><path d="M43.84 60.443h53.114c0-18.857-8.228-31.712-30.663-31.712C39.78 28.73 12.817 45.99 0 67.51 3.97 30.156 30.753 0 71.075 0c34.56 0 67.305 26.424 67.305 70.35v16.7H44.124c0 22.73 19.828 31.736 40.595 31.736 25.272 0 40.923-11.357 40.923-11.357v31.839S107.974 150 79.813 150c-36.596 0-62.428-26.227-62.428-58.841 0-25.6 15.485-46.038 36.933-54.472C43.878 48.154 43.84 60.443 43.84 60.443z" fill="#3277BC" fill-rule="evenodd"/></svg>