<svg viewBox="0 0 922.5 922.5" xmlns="http://www.w3.org/2000/svg"><path d="m166 475.9v-380.8c0-15.4 12.4-27.8 27.8-27.8h536.3c14.6 0 26.4 11.8 26.4 26.4v381.9c0 16.3-13.2 29.6-29.6 29.6h-531.6c-16.2 0-29.3-13.1-29.3-29.3z" fill="#f2f2f2"/><path d="m738.6 79.9-558.4 414.1c-4.8 3.5-2.3 11.1 3.7 11.1h544.3c15.2 0 27.5-12.3 27.5-27.5v-389.1c-.1-8.8-10-13.8-17.1-8.6z" fill="#d8d8d8" opacity=".36"/><ellipse cx="396.2" cy="737.9" fill="#e07048" rx="77.2" ry="77.2" transform="matrix(.97509906 -.22176975 .22176975 .97509906 -153.78074 106.232457)"/><path d="m350 746.5c-13.1-20.6-15.2-44.9-7.9-66.3-27.2 24.8-33.5 66.2-13.1 98.4 22.9 36 70.5 46.6 106.5 23.8 15.4-9.8 26.2-24.2 31.6-40.2-3.3 3-6.8 5.7-10.7 8.2-35.9 22.7-83.5 12.1-106.4-23.9z" fill="#af533a"/><g fill="#221407"><path d="m396.2 819.1c-37.1 0-70.6-25.6-79.2-63.2-4.8-21.1-1.1-42.9 10.5-61.3s29.6-31.1 50.7-35.9c43.7-9.9 87.3 17.5 97.2 61.2s-17.5 87.3-61.2 97.2c-6 1.3-12.1 2-18 2zm0-154.4c-5.4 0-10.8.6-16.2 1.8-19.1 4.3-35.3 15.8-45.7 32.4-10.4 16.5-13.8 36.2-9.4 55.2 7.7 33.9 38 57 71.4 57 5.4 0 10.8-.6 16.2-1.8 39.4-8.9 64.1-48.2 55.1-87.6-7.7-34-38-57-71.4-57z"/><path d="m392.9 819c-15.5-2.5-29.1-12.8-39.4-29.8-7.6-12.5-10.7-24.2-10.8-24.7v-.1c-8.4-36.7 2.4-63.4 12.9-79.4 11.4-17.3 24.6-25.9 25.2-26.3l4.3 6.7-2.2-3.4 2.2 3.4c-.1.1-12.6 8.2-23 24.2-13.8 21.3-17.7 45.8-11.6 72.9.5 1.7 12.3 43.4 43.8 48.5z"/><path d="m352.6 768.4c-9.7 0-19.9-1.2-28.6-4.8l3-7.4c24.5 10 63.2-1 63.6-1.1h.1c61.3-15.9 77-33.2 77.2-33.4l6 5.3c-.7.8-17.5 19.3-81.1 35.8-1.6.4-20.1 5.6-40.2 5.6z"/><path d="m345.7 751.2c-1.1 0-2.2-.1-3.4-.3-3.4-.1-19.5-2.1-24.1-34l7.9-1.1c2.1 14.5 6.6 21.2 10 24.2s6.2 3 6.3 3c.4 0 .5 0 .9.1 5.3.9 10.7-1.4 16-7.1 4.3-4.6 6.7-9.4 6.7-9.5.1-.1.1-.2.2-.3 34.3-55.7 71.3-55.4 72.9-55.4l-.2 8c-.1 0-8.6 0-20.8 6.2-20.6 10.5-35.8 30.4-45 45.2-1.1 2.2-11.2 21-27.4 21zm73.2 47.8c-29.6 0-48.9-10.5-51.7-12.2-5-2-9-2.1-12.1-.5-4.6 2.5-5.9 8.5-5.9 8.6l-7.8-1.6c.1-.4 2-9.7 9.9-14 5.3-2.9 11.8-2.8 19.2.2l.6.3c.3.2 33.7 19.8 81.4 6.5l2.1 7.7c-13 3.6-25 5-35.7 5z"/></g><path d="m705.8 655.9c-.3 0-.5 0-.8-.1-73.7-19.8-126.4-11.7-159.6-3.9-1.6.4-3.2-.6-3.6-2.2s.6-3.2 2.2-3.6c23.6-5.5 46.2-8.3 69.3-8.6 30-.3 61.4 3.9 93.3 12.5 1.6.4 2.5 2.1 2.1 3.7-.4 1.3-1.6 2.2-2.9 2.2zm-231.2 25.7c-.5 0-1-.1-1.4-.4-1-.6-1.6-1.7-1.5-2.9 0-.5.1-1 1.3-2.2.1-.1.2-.1.3-.2 1.5-1.3 4.6-3.5 10.8-7 6.7-3.8 17.7-9.5 32.7-14.9 1.6-.6 3.3.3 3.8 1.8.6 1.6-.3 3.3-1.8 3.8-26.2 9.4-40.4 19.9-41.9 21.1-.1.1-.2.2-.3.2-.7.5-1.3.7-2 .7zm190.6-6.9h-.4c-11.3-1.5-22.8-2.4-35.2-2.8-1.7 0-3-1.4-2.9-3.1 0-1.7 1.4-3 3.1-2.9 12.6.3 24.3 1.3 35.8 2.8 1.6.2 2.8 1.7 2.6 3.4-.2 1.5-1.5 2.6-3 2.6zm-174.1 32.1c-.9 0-1.8-.4-2.4-1.2-1-1.3-.7-3.2.6-4.2 1.7-1.3 42.1-30.9 115.9-35.1 1.7-.1 3.1 1.2 3.2 2.8s-1.2 3.1-2.8 3.2c-37.6 2.1-66.2 11.2-83.6 18.5-18.9 7.9-29 15.3-29.1 15.4-.5.4-1.2.6-1.8.6zm221.8 4.4c-.2 0-.5 0-.7-.1-39.9-9.9-79.2-12.7-116.9-8.3-1.6.2-3.1-1-3.3-2.6s1-3.1 2.6-3.3c38.4-4.5 78.5-1.6 119.1 8.5 1.6.4 2.6 2 2.2 3.6-.4 1.3-1.7 2.2-3 2.2zm-214.9 22.8c-1 0-1.9-.5-2.5-1.3-.9-1.3-.5-3.2.8-4.2.1-.1.2-.1.3-.2 4.9-3.2 29-17.8 69.3-26.7 1.6-.4 3.2.7 3.6 2.3s-.7 3.2-2.3 3.6c-4.3.9-42.5 9.7-67.5 26-.5.4-1.1.5-1.7.5zm-140.5-93.2c-6.3 0-11.4-5.1-11.4-11.4s5.1-11.4 11.4-11.4 11.4 5.1 11.4 11.4-5.1 11.4-11.4 11.4zm0-16.8c-3 0-5.4 2.4-5.4 5.4s2.4 5.4 5.4 5.4 5.4-2.4 5.4-5.4-2.4-5.4-5.4-5.4zm140.5 182.3c-6.3 0-11.4-5.1-11.4-11.4s5.1-11.4 11.4-11.4 11.4 5.1 11.4 11.4-5.1 11.4-11.4 11.4zm0-16.8c-3 0-5.4 2.4-5.4 5.4s2.4 5.4 5.4 5.4 5.4-2.4 5.4-5.4-2.4-5.4-5.4-5.4zm-206.1 16.8c-6.3 0-11.4-5.1-11.4-11.4s5.1-11.4 11.4-11.4 11.4 5.1 11.4 11.4-5.1 11.4-11.4 11.4zm0-16.8c-3 0-5.4 2.4-5.4 5.4s2.4 5.4 5.4 5.4 5.4-2.4 5.4-5.4-2.4-5.4-5.4-5.4zm-8.4-92c-1.7 0-3-1.3-3-3v-18c0-1.7 1.3-3 3-3s3 1.3 3 3v18c0 1.7-1.3 3-3 3z" fill="#c6c6c6"/><path d="m292.5 688.5h-18c-1.7 0-3-1.3-3-3s1.3-3 3-3h18c1.7 0 3 1.3 3 3s-1.3 3-3 3zm135.4 169.6c-1.7 0-3-1.3-3-3v-18c0-1.7 1.3-3 3-3s3 1.3 3 3v18c0 1.7-1.3 3-3 3z" fill="#c6c6c6"/><path d="m436.9 849.1h-18c-1.7 0-3-1.3-3-3s1.3-3 3-3h18c1.7 0 3 1.3 3 3s-1.3 3-3 3z" fill="#c6c6c6"/><path d="m201.4 510.1c-10.7 0-20.8-4.2-28.4-11.8-7.7-7.7-12-17.9-12-28.7v-366.7c0-22.4 18.2-40.6 40.6-40.6h519.3c22.4 0 40.6 18.2 40.6 40.6v366.6c0 22.4-18.2 40.6-40.6 40.6zm.2-437.8c-16.9 0-30.6 13.7-30.6 30.6v366.7c0 8.2 3.2 15.9 9 21.7 5.7 5.7 13.3 8.8 21.4 8.8h519.5c16.9 0 30.6-13.7 30.6-30.6v-366.6c0-16.9-13.7-30.6-30.6-30.6z" fill="#221407"/><path d="m726.5 475.2h-530.5v-377.9h530.5zm-510.5-20h490.5v-337.9h-490.5z" fill="#ea514e"/><path d="m558.5 407.1h-194.5v-194.5h194.5zm-179.5-15h164.5v-164.5h-164.5z" fill="#ea514e"/><g fill="#ccc"><path d="m411.1 624.8c-1.4 0-2.5-1.1-2.5-2.5-1-77.4-49.8-179.8-50.3-180.8-.6-1.2-.1-2.7 1.2-3.3 1.2-.6 2.7-.1 3.3 1.2.5 1 49.8 104.4 50.7 183 .1 1.2-1 2.4-2.4 2.4zm99.9 0c-1.4 0-2.5-1.2-2.5-2.5 1.1-78.6 50.7-180.6 51.2-181.7.6-1.2 2.1-1.8 3.3-1.1 1.2.6 1.8 2.1 1.1 3.3-.5 1-49.6 102.1-50.6 179.5 0 1.4-1.1 2.5-2.5 2.5z"/><path d="m511.1 618.1c-1.3 0-2.4-1-2.5-2.3-3.5-41.5-48.3-92.3-61.9-106.9-4.2-4.5-7.8-9.5-10.4-14.9l-27.4-55c-.6-1.2-.1-2.7 1.1-3.4 1.2-.6 2.7-.1 3.4 1.1l27.4 55c2.4 5 5.7 9.6 9.6 13.7 7.8 8.3 22.8 25.2 36.2 45.3 16.4 24.5 25.5 46.3 27.1 64.6.1 1.4-.9 2.6-2.3 2.7-.2.1-.2.1-.3.1z"/><path d="m411.1 618.2h-.3c-1.4-.2-2.3-1.4-2.2-2.8 2.3-18.2 11.7-39.9 27.7-64.3 15.2-23.2 31-40.7 35.5-45.5 3.6-3.8 6.8-8.4 9.6-13.7l27.4-55c.6-1.2 2.1-1.7 3.4-1.1 1.2.6 1.7 2.1 1.1 3.4l-27.4 55c-3 5.8-6.5 10.8-10.4 14.9-4.4 4.7-20 21.9-35 44.8-15.6 23.8-24.7 44.8-26.9 62.2-.2 1.2-1.3 2.1-2.5 2.1z"/><path d="m513.3 595.4c-1.2 0-2.3-.9-2.5-2.2-5-41.3-16.2-73.7-25.1-87.4-4.8-7.4-8.6-15.4-11.2-23.6-7.3-23-13.2-46.7-13.2-47-.3-1.3.5-2.7 1.8-3s2.7.5 3 1.8c.1.2 5.9 23.8 13.2 46.6 2.5 7.8 6 15.4 10.6 22.4 12.8 19.7 22.2 59.2 25.9 89.6.2 1.4-.8 2.6-2.2 2.8z"/><path d="m409.6 602.8c-1.4 0-2.5-1.2-2.5-2.5.8-51.6 26.6-92.7 29.5-97.2 4.6-7 8.1-14.6 10.6-22.4 7.3-22.9 13.1-46.4 13.2-46.6.3-1.3 1.7-2.2 3-1.8 1.3.3 2.2 1.7 1.8 3-.1.2-5.9 23.9-13.2 47-2.6 8.2-6.4 16.2-11.2 23.6-2.9 4.4-27.9 44.4-28.7 94.6 0 1.2-1.1 2.3-2.5 2.3z"/><path d="m495.8 624.8c-1 0-2-.6-2.3-1.6-16.4-45.1-62.7-98.8-81.3-116.3-4-3.8-7.3-8.1-10.1-12.9-8.4-15.2-26.3-49-26.4-49.4-.6-1.2-.2-2.7 1-3.4 1.2-.6 2.7-.2 3.4 1 .2.3 18 34.2 26.4 49.3 2.5 4.3 5.5 8.3 9.1 11.7 18.8 17.8 65.8 72.3 82.5 118.3.5 1.3-.2 2.7-1.5 3.2-.2.1-.5.1-.8.1z"/><path d="m427.6 624.8c-.2 0-.4 0-.6-.1-1.3-.3-2.2-1.7-1.8-3 10.5-43.7 62.7-100.4 81.9-118.5 1.2-1.1 2-1.8 2.8-2.4 1.6-1.3 2.2-1.8 3.8-4.7 8.3-15.1 28.7-53.5 28.9-53.8.6-1.2 2.2-1.7 3.4-1 1.2.6 1.7 2.2 1 3.4-.2.4-20.6 38.8-28.9 53.9-2 3.5-3 4.5-4.9 6.1-.7.6-1.5 1.2-2.5 2.2-18.9 17.9-70.3 73.6-80.5 116.1-.4 1-1.5 1.8-2.6 1.8z"/><path d="m524.3 543.5c-1.1 0-2.1-.7-2.4-1.9-10.9-40.7-13.4-103-13.4-103.7-.1-1.4 1-2.5 2.4-2.6s2.5 1 2.6 2.4c0 .6 2.4 62.4 13.2 102.5.4 1.3-.4 2.7-1.8 3.1-.2.2-.4.2-.6.2zm-125.6 0c-.3 0-.5 0-.8-.1-1.3-.4-2-1.8-1.6-3.1 12.1-38 11.9-101.7 11.9-102.3 0-1.4 1.1-2.5 2.5-2.5s2.5 1.1 2.5 2.5c0 .2.1 16.4-1.4 37.2-1.3 19.2-4.3 46.4-10.8 66.7-.3.9-1.2 1.6-2.3 1.6z"/><path d="m447.9 627.6c-.4 0-.8-.1-1.2-.3-1.2-.7-1.7-2.2-1-3.4 25.3-47.2 48.9-80.1 64.3-99.4 16.7-21 27.2-30.6 27.6-31 1-.9 2.6-.9 3.5.2.9 1 .9 2.6-.2 3.5-.4.4-42.8 39.5-90.9 129.1-.3.8-1.2 1.3-2.1 1.3z"/><path d="m474.6 627.6c-.9 0-1.8-.5-2.2-1.3-48.1-89.6-90.5-128.7-90.9-129.1-1-.9-1.1-2.5-.2-3.5s2.5-1.1 3.5-.2c.4.4 43.4 40 91.9 130.5.7 1.2.2 2.7-1 3.4-.3.1-.7.2-1.1.2zm-26.7 0c-1.1 0-2-.7-2.4-1.7-13.9-43-53.5-97-53.9-97.6-.8-1.1-.6-2.7.5-3.5s2.7-.6 3.5.5c.4.5 40.5 55.2 54.7 99 .4 1.3-.3 2.7-1.6 3.1-.3.2-.5.2-.8.2z"/><path d="m474.7 627.6c-.2 0-.5 0-.7-.1-1.3-.4-2.1-1.8-1.7-3.1 14.4-47.2 53.7-98.6 54.1-99.1.8-1.1 2.4-1.3 3.5-.5s1.3 2.4.5 3.5c-.4.5-39.2 51.2-53.3 97.5-.3 1.1-1.3 1.8-2.4 1.8zm-86.6-115c-1.2 0-2.2-.8-2.5-2.1-.1-.4-7.5-42.1-10.1-66.9-.1-1.4.9-2.6 2.2-2.7 1.4-.1 2.6.9 2.7 2.2 2.6 24.6 10 66.1 10.1 66.5.2 1.4-.7 2.7-2 2.9-.1.1-.3.1-.4.1zm146.1 0h-.5c-1.4-.3-2.2-1.6-2-2.9.1-.4 7.9-41.9 10.5-66.5.1-1.4 1.4-2.4 2.7-2.2 1.4.1 2.4 1.4 2.2 2.7-2.6 24.8-10.5 66.5-10.5 66.9-.2 1.2-1.2 2-2.4 2zm-38.4 112.2c-.2 0-.5 0-.8-.1-1.3-.4-2-1.8-1.6-3.1 7.2-22.9 17.3-39.6 17.8-40.3.7-1.2 2.3-1.5 3.4-.8 1.2.7 1.5 2.3.8 3.4-.1.2-10.2 16.8-17.2 39.1-.4 1.1-1.3 1.8-2.4 1.8zm-68.3 0c-1.1 0-2-.7-2.4-1.8-7-22.2-20.2-40.7-20.3-40.9-.8-1.1-.6-2.7.6-3.5 1.1-.8 2.7-.6 3.5.6.6.8 13.8 19.3 21.1 42.3.4 1.3-.3 2.7-1.6 3.1-.4.2-.7.2-.9.2z"/></g><path d="m557.8 441.7h-193.2c-4.8 0-8.7-3.9-8.7-8.7v-1.7c0-4.8 3.9-8.7 8.7-8.7h193.2c4.8 0 8.7 3.9 8.7 8.7v1.7c0 4.8-3.9 8.7-8.7 8.7z" fill="#ea514e"/><path d="m557.8 445.7h-193.2c-7 0-12.7-5.7-12.7-12.7v-1.7c0-7 5.7-12.7 12.7-12.7h193.2c7 0 12.7 5.7 12.7 12.7v1.7c0 7-5.7 12.7-12.7 12.7zm-193.2-19.1c-2.6 0-4.7 2.1-4.7 4.7v1.7c0 2.6 2.1 4.7 4.7 4.7h193.2c2.6 0 4.7-2.1 4.7-4.7v-1.7c0-2.6-2.1-4.7-4.7-4.7z" fill="#221407"/></svg>