<svg height="400" viewBox="0 0 1366 400" width="1366" xmlns="http://www.w3.org/2000/svg" xmlns:xlink="http://www.w3.org/1999/xlink"><defs><path id="a" d="m0 0h1366v400h-1366z"/><linearGradient id="b" x1="0%" x2="100%" y1="0%" y2="100%"><stop offset="0" stop-color="#27f" stop-opacity=".5"/><stop offset="1" stop-color="#0c004b" stop-opacity=".5"/></linearGradient><mask id="c" fill="#fff"><use fill="#fff" fill-rule="evenodd" xlink:href="#a"/></mask></defs><g fill="none"><use fill="#3c4656" xlink:href="#a"/><path d="m673.294537 399.717408h168.168098 369.681895l-112.91187-385.810142z" fill="#d8d8d8" mask="url(#c)" opacity=".098549" stroke="#979797"/><path d="m569.424803 0h796.575197v353l-254.06918-176.5z" fill="#8693ab" mask="url(#c)" opacity=".463002"/><path d="m841-1h524.7754v383.737244l-258.64171-129.01929z" fill="#212227" mask="url(#c)" opacity=".64481"/><path d="m403.592521-1h356.341983l-545.934504 384z" fill="#8693ab" mask="url(#c)" opacity=".398549"/><path d="m-1 17 432.066997 272.234471 934.933003 110.868964h-1367z" fill="#bdd5ea" mask="url(#c)" opacity=".291629"/><g fill="#363b45"><path d="m0-1h1366l-828.343214 90.1268711-537.656786 198.8731289z" mask="url(#c)" opacity=".733092"/><path d="m0 246 707 154h-707z" mask="url(#c)" opacity=".709431"/><path d="m0 126 1131.44232 273.980377h-777.07584-275.36648z" mask="url(#c)" opacity=".744364"/></g><path d="m760 14 606.06917 385.54249h-606.06917z" fill="#8693ab" mask="url(#c)" opacity=".10279" transform="matrix(-1 0 0 1 2126.06917 0)"/><path d="m0 0h1366v400h-1366z" fill="url(#b)" mask="url(#c)"/></g></svg>