<svg height="20" width="143" xmlns="http://www.w3.org/2000/svg"><path d="m9.548 5.907h8.079v14.028h-8.079zm9.548-3.692h8.079v17.72h-8.079zm9.548-2.215h8.079v19.935h-8.079zm-28.644 3.692h8.079v16.243h-8.079zm44.747 12.721c.723 0 1.234-.071 1.534-.213s.45-.416.45-.824c0-.319-.195-.598-.582-.837-.388-.239-.979-.509-1.772-.81a18.368 18.368 0 0 1 -1.679-.718 4.919 4.919 0 0 1 -1.282-.892 3.589 3.589 0 0 1 -.82-1.235c-.194-.478-.29-1.055-.29-1.728 0-1.311.484-2.348 1.454-3.11.968-.762 2.3-1.143 3.992-1.143.846 0 1.656.076 2.433.226.775.15 1.392.315 1.85.492l-.687 3.083c-.459-.16-.956-.301-1.494-.425a8.121 8.121 0 0 0 -1.811-.186c-1.234 0-1.85.345-1.85 1.037 0 .159.026.301.078.425.053.124.16.244.318.358.158.116.374.24.648.374.273.135.62.282 1.044.442.864.322 1.577.639 2.142.952.564.313 1.009.65 1.335 1.012.326.363.555.765.687 1.207s.199.955.199 1.538c0 1.38-.516 2.422-1.547 3.13-1.031.706-2.49 1.06-4.376 1.06-1.234 0-2.26-.106-3.08-.319-.82-.212-1.388-.389-1.706-.531l.661-3.217c.67.266 1.358.475 2.063.625a9.882 9.882 0 0 0 2.088.227zm7.773-14.618 3.94-.638v4.12h4.733v3.296h-4.733v4.917c0 .833.145 1.497.436 1.993.29.496.877.744 1.758.744.423 0 .86-.04 1.31-.12.449-.078.858-.19 1.229-.33l.555 3.083c-.476.194-1.005.363-1.587.505-.581.141-1.295.212-2.141.212-1.076 0-1.966-.146-2.67-.44-.706-.291-1.27-.698-1.693-1.221s-.719-1.155-.886-1.9a11.233 11.233 0 0 1 -.25-2.473v-11.748zm15.415 3.11c1.163 0 2.132.133 2.908.398.776.266 1.397.647 1.864 1.143a4.21 4.21 0 0 1 .992 1.808c.194.708.29 1.497.29 2.365v8.24c-.563.124-1.348.27-2.353.438-1.004.169-2.22.253-3.648.253-.9 0-1.715-.08-2.446-.24-.732-.159-1.362-.42-1.89-.783a3.568 3.568 0 0 1 -1.217-1.422c-.282-.584-.423-1.303-.423-2.153 0-.815.163-1.506.49-2.074a3.775 3.775 0 0 1 1.308-1.355 5.878 5.878 0 0 1 1.877-.73c.705-.15 1.437-.227 2.195-.227.511 0 .965.022 1.362.066.396.046.718.103.965.173v-.372c0-.673-.203-1.214-.608-1.621-.406-.407-1.11-.612-2.116-.612-.67 0-1.33.05-1.983.147a8.47 8.47 0 0 0 -1.692.412l-.502-3.19a15.08 15.08 0 0 1 1.983-.439 24.95 24.95 0 0 1 1.282-.159c.45-.044.904-.066 1.362-.066zm.317 11.588a23.1 23.1 0 0 0 1.11-.026c.353-.017.635-.045.847-.08v-3.003a7.191 7.191 0 0 0 -.714-.107 7.891 7.891 0 0 0 -1.917.013 2.77 2.77 0 0 0 -.86.253c-.246.125-.44.292-.581.506-.141.212-.212.477-.212.797 0 .621.207 1.05.622 1.29.413.238.982.357 1.705.357zm19.38-10.571a37.23 37.23 0 0 1 1.996-.478c.82-.178 1.881-.266 3.186-.266 1.727 0 2.979.505 3.754 1.515.088-.071.26-.19.516-.359.255-.168.576-.341.964-.518a7.444 7.444 0 0 1 3.093-.638c1.04 0 1.882.155 2.525.465s1.141.744 1.494 1.302c.352.559.59 1.227.714 2.008.122.78.185 1.63.185 2.55v7.682h-1.719v-7.123c0-.904-.04-1.687-.119-2.352-.079-.666-.238-1.214-.475-1.648a2.33 2.33 0 0 0 -1.019-.984c-.44-.221-1.014-.332-1.718-.332-.53 0-1.01.049-1.441.146a5.977 5.977 0 0 0 -1.124.359 4.772 4.772 0 0 0 -.78.425 9.43 9.43 0 0 0 -.436.32c.16.46.278.978.357 1.554.078.576.119 1.183.119 1.82v7.815h-1.719v-7.123c0-.904-.04-1.687-.119-2.352-.078-.666-.242-1.214-.489-1.648a2.394 2.394 0 0 0 -1.044-.984c-.45-.221-1.045-.332-1.785-.332-.83 0-1.53.045-2.102.133-.573.088-.939.169-1.097.24v12.066h-1.719v-13.263h.001zm31.543 12.784c-.511.142-1.199.301-2.063.478-.863.178-1.92.265-3.172.265-1.024 0-1.878-.15-2.565-.45a4.168 4.168 0 0 1 -1.666-1.277c-.423-.549-.727-1.213-.912-1.993a11.17 11.17 0 0 1 -.278-2.578v-7.707h1.72v7.15c0 .974.07 1.798.21 2.471.14.674.37 1.219.688 1.635a2.69 2.69 0 0 0 1.23.904c.502.186 1.115.28 1.838.28.81 0 1.515-.046 2.115-.133.599-.09.978-.17 1.137-.24v-12.067h1.72v13.262zm5.578-.744c.987 0 1.802-.163 2.446-.492.643-.327.964-.88.964-1.661 0-.372-.057-.691-.172-.957a1.88 1.88 0 0 0 -.568-.718c-.263-.212-.612-.416-1.044-.611a65.484 65.484 0 0 0 -1.6-.691 27.92 27.92 0 0 1 -1.454-.652 5.917 5.917 0 0 1 -1.216-.77 3.355 3.355 0 0 1 -.845-1.05c-.212-.408-.318-.904-.318-1.49 0-1.115.418-2.02 1.256-2.71.837-.691 1.987-1.037 3.45-1.037.933 0 1.705.08 2.313.24.609.159 1.036.301 1.283.425l-.397 1.541c-.211-.106-.568-.247-1.07-.425-.503-.177-1.24-.266-2.208-.266-.388 0-.754.04-1.098.12s-.648.205-.912.373a1.984 1.984 0 0 0 -.634.64c-.16.257-.238.572-.238.945 0 .372.07.692.211.959.141.266.349.501.621.705.274.204.609.395 1.006.57.396.177.85.371 1.362.583.53.212 1.035.428 1.52.648s.912.486 1.282.796.67.682.9 1.116c.228.435.343.98.343 1.635 0 1.24-.463 2.18-1.388 2.818-.926.637-2.19.956-3.794.956-1.199 0-2.116-.103-2.75-.306-.635-.203-1.058-.358-1.27-.464l.45-1.57c.052.037.168.095.344.174a7.568 7.568 0 0 0 1.785.518 8.38 8.38 0 0 0 1.44.108zm6.346-5.662c0-1.205.171-2.254.515-3.15.344-.894.793-1.643 1.349-2.245a5.308 5.308 0 0 1 1.903-1.343 5.774 5.774 0 0 1 2.209-.438c1.674 0 3.01.55 4.005 1.648s1.494 2.79 1.494 5.076a6.871 6.871 0 0 1 -.053.824h-9.598c.053 1.684.466 2.977 1.242 3.88.776.905 2.01 1.356 3.702 1.356.934 0 1.674-.088 2.22-.265.547-.177.943-.327 1.19-.452l.318 1.49c-.248.14-.71.31-1.388.504-.679.195-1.477.293-2.393.293-1.2 0-2.221-.178-3.067-.533-.846-.353-1.544-.85-2.09-1.488s-.943-1.396-1.19-2.273c-.246-.876-.368-1.838-.368-2.884zm9.703-1.089h-7.825a5.92 5.92 0 0 1 .356-1.728 4.638 4.638 0 0 1 .845-1.448 4.224 4.224 0 0 1 1.27-.997c.485-.248 1.036-.372 1.653-.372 1.163 0 2.063.399 2.697 1.196.634.798.969 1.914 1.004 3.35zm-65.11-9.416 3.94-.638v4.12h4.733v3.296h-4.733v4.917c0 .833.146 1.497.437 1.993.29.496.877.744 1.759.744.423 0 .86-.04 1.308-.12.45-.078.86-.19 1.23-.33l.555 3.083a11.3 11.3 0 0 1 -1.586.505c-.582.141-1.296.212-2.142.212-1.075 0-1.965-.146-2.67-.44-.705-.291-1.27-.698-1.692-1.221-.424-.523-.72-1.155-.886-1.9a11.233 11.233 0 0 1 -.251-2.473v-11.748h-.001z" fill="#fff" fill-rule="evenodd"/></svg>