<svg height="150" width="150" xmlns="http://www.w3.org/2000/svg" xmlns:xlink="http://www.w3.org/1999/xlink"><linearGradient id="a" x1="50%" x2="50%" y1="100%" y2="0%"><stop offset=".25" stop-color="#dbdbda"/><stop offset="1" stop-color="#fff"/></linearGradient><radialGradient id="b" cx="57.025%" cy="39.017%" r="61.032%"><stop offset="0" stop-color="#2abce1"/><stop offset=".11363" stop-color="#2abbe1"/><stop offset="1" stop-color="#3375f8"/></radialGradient><linearGradient id="c" x1="49.05%" x2="25.713%" y1="35.703%" y2="77.572%"><stop offset="0" stop-color="#fff" stop-opacity="0"/><stop offset="1" stop-color="#fff"/></linearGradient><g fill="none" fill-rule="evenodd"><circle cx="75" cy="75" fill="url(#a)" r="75"/><ellipse cx="75" cy="75" fill="url(#b)" rx="69.375" ry="69.375"/><g transform="translate(5.86 5.274)"><path d="m69.258 17.226c-.47 0-.88-.351-.88-.82v-12.246c0-.469.41-.82.88-.82.468 0 .878.351.878.82v12.246c-.058.469-.41.82-.878.82z" fill="#f3f3f3"/><path d="m69.258 17.285c-.528 0-.938-.41-.938-.879v-12.246c0-.469.41-.879.938-.879.527 0 .937.41.937.88v12.245c0 .469-.469.88-.937.88zm0-13.887c-.41 0-.82.352-.82.762v12.246c0 .41.35.762.82.762.41 0 .82-.352.82-.762v-12.246c-.058-.41-.41-.762-.82-.762z" fill="#fff"/><path d="m75.117 10.664c-.468-.059-.82-.41-.82-.879l.41-5.45c.058-.468.469-.82.938-.761s.82.41.82.88l-.41 5.448c-.059.47-.469.82-.938.763z" fill="#f3f3f3"/><path d="m75.117 10.723c-.527-.06-.878-.47-.878-.938l.41-5.45c.058-.468.468-.878.996-.82.527.059.879.47.879.938l-.41 5.45c-.06.527-.47.878-.997.82zm.528-7.09c-.41 0-.821.293-.821.703l-.41 5.45c0 .41.293.761.762.82.41 0 .82-.293.82-.704l.41-5.45c0-.41-.351-.76-.762-.82z" fill="#fff"/><path d="m79.512 18.281c-.47-.117-.762-.527-.703-.996l2.401-12.012c.117-.468.528-.762.996-.644.469.117.762.527.703.996l-2.402 12.012c-.059.41-.528.703-.997.644h.001z" fill="#f3f3f3"/><path d="m79.512 18.34a.956.956 0 0 1 -.762-1.055l2.402-12.012c.118-.468.587-.82 1.113-.703a.955.955 0 0 1 .762 1.055l-2.402 12.012c-.117.468-.586.762-1.113.703zm2.753-13.652a.838.838 0 0 0 -.937.586l-2.402 12.012a.83.83 0 0 0 .644.937c.41.058.82-.176.938-.587l2.402-12.011c.059-.469-.234-.82-.645-.938z" fill="#fff"/><path d="m86.543 13.008a.873.873 0 0 1 -.644-1.055l1.465-5.273c.116-.469.585-.704 1.054-.586a.874.874 0 0 1 .644 1.055l-1.464 5.273c-.118.468-.587.703-1.055.586z" fill="#f3f3f3"/><path d="m86.543 13.066c-.469-.117-.82-.644-.644-1.113l1.465-5.274c.116-.468.644-.761 1.112-.644.47.117.82.645.645 1.113l-1.465 5.274c-.117.468-.586.762-1.113.644zm1.933-6.855c-.41-.117-.878.117-.996.528l-1.464 5.272c-.117.41.117.821.585.938.41.117.88-.117.997-.527l1.465-5.274a.841.841 0 0 0 -.587-.938z" fill="#fff"/><path d="m89.414 21.27c-.469-.176-.644-.704-.469-1.114l4.688-11.308c.175-.41.703-.645 1.113-.41a.837.837 0 0 1 .469 1.112l-4.688 11.31c-.175.41-.703.644-1.112.41z" fill="#f3f3f3"/><path d="m89.414 21.328a.91.91 0 0 1 -.528-1.172l4.688-11.308c.176-.47.703-.645 1.23-.47a.91.91 0 0 1 .528 1.173l-4.687 11.309c-.235.468-.762.703-1.231.468zm5.332-12.832a.795.795 0 0 0 -1.055.41l-4.687 11.309c-.176.41.058.82.469.996.41.175.878 0 1.054-.41l4.688-11.309c.117-.352-.059-.82-.469-.996z" fill="#fff"/><path d="m97.325 17.52c-.411-.235-.587-.704-.411-1.114l2.461-4.863c.234-.41.703-.586 1.172-.352.41.235.586.704.41 1.113l-2.461 4.864c-.235.41-.703.586-1.172.352z" fill="#f3f3f3"/><path d="m97.325 17.578a.896.896 0 0 1 -.411-1.23l2.461-4.863a.895.895 0 0 1 1.23-.411.896.896 0 0 1 .41 1.23l-2.46 4.864a.896.896 0 0 1 -1.231.41zm3.222-6.387c-.41-.175-.88-.058-1.055.352l-2.46 4.863c-.176.352 0 .82.35 1.055.41.175.88.059 1.055-.351l2.462-4.864c.175-.351 0-.82-.352-1.055z" fill="#fff"/><path d="m98.496 26.191c-.41-.292-.527-.82-.235-1.171l6.798-10.137c.234-.41.762-.47 1.171-.234.41.292.528.82.235 1.171l-6.797 10.137c-.234.41-.762.528-1.172.234z" fill="#f3f3f3"/><path d="m98.496 26.25c-.41-.293-.527-.879-.293-1.289l6.797-10.137c.293-.41.82-.527 1.289-.234.41.293.527.879.293 1.289l-6.797 10.137c-.293.41-.879.527-1.289.234zm7.734-11.543c-.35-.234-.879-.176-1.113.176l-6.797 10.137c-.234.35-.117.82.235 1.054.351.235.879.176 1.113-.175l6.797-10.079c.234-.351.117-.879-.235-1.113z" fill="#fff"/><path d="m107.05 24.024c-.35-.294-.468-.821-.175-1.173l3.399-4.277a.836.836 0 0 1 1.171-.117c.352.293.469.82.176 1.172l-3.398 4.277a.836.836 0 0 1 -1.172.118z" fill="#f3f3f3"/><path d="m106.992 24.082c-.41-.293-.468-.88-.175-1.29l3.398-4.276c.293-.41.879-.47 1.289-.117.41.292.469.878.175 1.288l-3.398 4.278c-.292.41-.879.469-1.289.117zm4.394-5.567c-.35-.292-.82-.234-1.112.118l-3.399 4.277a.83.83 0 0 0 .175 1.113c.352.293.821.235 1.114-.117l3.398-4.277c.235-.352.176-.879-.175-1.113z" fill="#fff"/><path d="m106.465 32.813c-.351-.352-.351-.88 0-1.173l8.671-8.613a.83.83 0 0 1 1.173 0c.292.293.351.88 0 1.172l-8.613 8.613a.85.85 0 0 1 -1.231 0z" fill="#f3f3f3"/><path d="m106.406 32.871a.92.92 0 0 1 0-1.289l8.672-8.613a.92.92 0 0 1 1.29 0 .92.92 0 0 1 0 1.289l-8.673 8.613a.92.92 0 0 1 -1.289 0zm9.903-9.844a.814.814 0 0 0 -1.113 0l-8.672 8.613a.814.814 0 0 0 0 1.114.814.814 0 0 0 1.112 0l8.673-8.613c.292-.293.292-.762 0-1.114z" fill="#fff"/><path d="m115.254 32.344c-.293-.352-.293-.88.058-1.172l4.16-3.516a.836.836 0 0 1 1.173.118c.293.351.293.878-.059 1.171l-4.16 3.516a.836.836 0 0 1 -1.172-.117z" fill="#f3f3f3"/><path d="m115.195 32.402c-.351-.41-.293-.996.059-1.288l4.16-3.516c.351-.352.937-.293 1.289.117s.293.996-.058 1.289l-4.16 3.516c-.352.35-.938.292-1.29-.118zm5.391-4.628c-.293-.352-.762-.352-1.113-.118l-4.16 3.516a.814.814 0 0 0 -.06 1.113c.294.351.763.351 1.114.117l4.16-3.516c.352-.292.352-.761.06-1.112z" fill="#fff"/><path d="m112.91 40.781c-.293-.41-.175-.937.235-1.172l10.195-6.797c.41-.234.937-.117 1.171.235.294.41.177.938-.234 1.172l-10.195 6.796c-.352.235-.88.118-1.172-.234z" fill="#f3f3f3"/><path d="m112.851 40.781c-.292-.41-.175-.996.235-1.289l10.195-6.797c.41-.293.996-.175 1.29.294.293.41.175.996-.235 1.288l-10.195 6.798c-.41.293-.996.176-1.29-.293zm11.602-7.675c-.234-.352-.703-.47-1.054-.235l-10.196 6.797c-.351.234-.469.703-.176 1.113.234.352.703.469 1.055.235l10.195-6.797a.83.83 0 0 0 .176-1.113z" fill="#fff"/><path d="m121.64 42.012c-.234-.41-.116-.937.294-1.172l4.746-2.695c.41-.235.937-.059 1.171.35.235.411.118.938-.292 1.173l-4.746 2.696c-.41.234-.938.058-1.173-.353z" fill="#f3f3f3"/><path d="m121.582 42.07c-.234-.469-.117-.996.293-1.23l4.746-2.695c.41-.235.996-.059 1.23.35.235.47.118.997-.292 1.231l-4.746 2.696c-.41.234-.997.058-1.23-.352zm6.21-3.515c-.233-.41-.702-.528-1.053-.294l-4.747 2.696a.841.841 0 0 0 -.293 1.054c.235.41.703.528 1.055.294l4.746-2.696c.351-.175.469-.644.293-1.054z" fill="#fff"/><path d="m117.715 49.805c-.175-.469 0-.938.469-1.113l11.308-4.688c.41-.176.938.059 1.113.469.176.468 0 .937-.469 1.112l-11.308 4.688a.838.838 0 0 1 -1.113-.468z" fill="#f3f3f3"/><path d="m117.656 49.863c-.175-.468 0-.996.469-1.23l11.309-4.688a.91.91 0 0 1 1.171.528c.176.468 0 .996-.469 1.23l-11.308 4.687a.91.91 0 0 1 -1.172-.526zm12.833-5.332c-.177-.41-.645-.586-.997-.468l-11.308 4.687c-.41.175-.586.645-.41 1.055.175.41.644.586.996.469l11.308-4.688a.794.794 0 0 0 .41-1.055z" fill="#fff"/><path d="m125.976 52.735c-.175-.47.06-.938.528-1.114l5.156-1.7c.41-.175.938.118 1.055.528.175.469-.059.937-.528 1.114l-5.156 1.7c-.41.175-.879-.06-1.055-.529z" fill="#f3f3f3"/><path d="m125.918 52.793c-.176-.469.058-.996.586-1.172l5.156-1.7c.469-.175.996.118 1.172.587.176.468-.058.996-.586 1.172l-5.156 1.7c-.469.116-.996-.119-1.172-.587zm6.797-2.226c-.117-.41-.586-.645-.996-.528l-5.156 1.7c-.41.116-.587.585-.47.996.118.41.587.644.997.526l5.156-1.699a.808.808 0 0 0 .469-.996z" fill="#fff"/><path d="m120.703 59.707c-.117-.468.176-.937.645-.996l12.012-2.344c.468-.117.879.234.995.703.118.469-.175.938-.644.996l-12.011 2.344c-.469.059-.938-.234-.996-.703z" fill="#f3f3f3"/><path d="m120.586 59.707c-.117-.527.234-.996.703-1.113l12.011-2.344c.469-.117.938.235 1.054.762.118.527-.234.996-.703 1.113l-12.012 2.344c-.468.117-.937-.234-1.054-.762zm13.653-2.637c-.06-.41-.47-.703-.88-.644l-12.011 2.344c-.41.058-.703.527-.587.937.06.41.47.703.88.644l12.011-2.343c.41-.118.703-.528.587-.938z" fill="#fff"/><path d="m128.203 64.219c-.058-.469.234-.88.703-.938l5.39-.645c.47-.058.88.294.938.763.059.468-.234.878-.703.937l-5.39.644c-.41.059-.88-.293-.938-.761z" fill="#f3f3f3"/><path d="m128.145 64.219c-.059-.528.292-.996.761-1.055l5.39-.644c.47-.059.938.292.997.82.058.527-.293.996-.762 1.055l-5.39.644c-.469.059-.938-.293-.996-.82zm7.09-.82c-.059-.41-.47-.763-.88-.704l-5.39.645c-.41.059-.704.469-.645.879s.469.762.879.703l5.39-.645c.411-.058.704-.468.646-.878z" fill="#fff"/><path d="m121.64 69.902c0-.468.352-.878.821-.878h12.246c.469 0 .82.41.82.878 0 .47-.351.88-.82.88h-12.246c-.469 0-.82-.41-.82-.88z" fill="#f3f3f3"/><path d="m121.582 69.902c0-.527.41-.937.88-.937h12.245c.469 0 .88.41.88.937 0 .528-.411.938-.88.938h-12.246c-.469 0-.879-.41-.879-.938zm13.887.06c0-.411-.352-.821-.762-.821h-12.245c-.41 0-.762.35-.762.82 0 .41.352.82.762.82h12.246c.41-.058.761-.41.761-.82z" fill="#fff"/><path d="m128.145 75.82c.058-.469.41-.82.879-.82l5.45.41c.467.059.819.469.76.938-.058.468-.41.82-.879.82l-5.449-.41c-.41-.059-.762-.47-.762-.938z" fill="#f3f3f3"/><path d="m128.086 75.82c.059-.527.469-.879.938-.879l5.45.41c.467.06.877.47.819.997s-.469.878-.938.878l-5.449-.41c-.469-.058-.82-.527-.82-.996zm7.149.528c.058-.41-.294-.82-.704-.82l-5.45-.41c-.409 0-.76.292-.82.761-.058.41.294.82.704.82l5.45.41c.409 0 .761-.35.82-.761z" fill="#fff"/><path d="m120.586 80.098c.117-.47.528-.763.996-.703l12.012 2.402c.469.117.762.527.645.996-.118.468-.528.762-.997.703l-12.012-2.402c-.41-.059-.703-.528-.644-.996z" fill="#f3f3f3"/><path d="m120.527 80.098a.957.957 0 0 1 1.055-.763l12.012 2.404c.469.116.82.585.703 1.112a.955.955 0 0 1 -1.055.763l-12.012-2.404c-.469-.117-.761-.586-.703-1.113zm13.653 2.753c.059-.41-.176-.82-.586-.937l-12.012-2.403a.831.831 0 0 0 -.938.645c-.058.41.176.82.587.938l12.011 2.402c.47.059.82-.235.938-.645z" fill="#fff"/><path d="m125.86 87.129a.873.873 0 0 1 1.054-.644l5.273 1.464c.47.117.703.587.587 1.055a.873.873 0 0 1 -1.055.645l-5.274-1.465c-.469-.118-.703-.586-.586-1.055z" fill="#f3f3f3"/><path d="m125.8 87.129c.118-.469.645-.82 1.114-.644l5.273 1.464c.47.117.763.645.645 1.114-.117.468-.644.82-1.113.644l-5.274-1.465c-.469-.117-.762-.586-.644-1.113zm6.856 1.933c.118-.41-.117-.878-.527-.996l-5.274-1.465c-.41-.117-.82.118-.937.587-.117.41.117.878.527.996l5.274 1.465c.41.058.82-.176.937-.587z" fill="#fff"/><path d="m117.598 89.941a.838.838 0 0 1 1.112-.468l11.31 4.687c.41.175.644.704.469 1.113a.839.839 0 0 1 -1.114.47l-11.309-4.688c-.468-.176-.644-.704-.468-1.113z" fill="#f3f3f3"/><path d="m117.539 89.883a.91.91 0 0 1 1.172-.528l11.309 4.688c.469.176.644.703.469 1.23a.91.91 0 0 1 -1.173.528l-11.308-4.687c-.47-.235-.644-.763-.47-1.231zm12.832 5.332a.795.795 0 0 0 -.41-1.055l-11.309-4.687c-.41-.176-.82.058-.996.468-.175.41 0 .88.41 1.055l11.309 4.688c.41.117.879-.059.996-.47z" fill="#fff"/><path d="m121.406 97.851c.235-.41.703-.586 1.113-.41l4.864 2.461c.41.176.586.703.352 1.172-.235.41-.704.587-1.114.41l-4.863-2.46c-.41-.235-.586-.763-.352-1.173z" fill="#f3f3f3"/><path d="m121.348 97.793a.896.896 0 0 1 1.23-.41l4.863 2.46a.895.895 0 0 1 .41 1.231.895.895 0 0 1 -1.23.41l-4.863-2.46c-.47-.176-.644-.763-.41-1.231zm6.328 3.222c.175-.41.058-.879-.352-1.054l-4.863-2.461c-.352-.175-.82 0-1.055.351-.175.41-.058.88.352 1.055l4.863 2.461c.41.176.879.059 1.055-.352z" fill="#fff"/><path d="m112.793 98.965c.293-.41.762-.528 1.172-.235l10.195 6.797c.41.234.469.763.235 1.172-.294.41-.762.527-1.172.235l-10.196-6.798c-.41-.292-.527-.82-.234-1.171z" fill="#f3f3f3"/><path d="m112.734 98.906c.293-.41.88-.527 1.29-.292l10.195 6.796c.41.293.527.82.234 1.289-.293.41-.879.527-1.288.293l-10.196-6.797c-.469-.293-.528-.879-.235-1.289zm11.543 7.734c.234-.35.176-.879-.175-1.113l-10.196-6.797c-.351-.234-.82-.116-1.055.235-.234.351-.175.879.176 1.113l10.196 6.797c.351.235.82.117 1.054-.234z" fill="#fff"/><path d="m114.961 107.461c.293-.352.82-.469 1.172-.175l4.277 3.339c.351.293.41.82.117 1.172-.292.351-.82.469-1.172.176l-4.277-3.34a.836.836 0 0 1 -.117-1.172z" fill="#f3f3f3"/><path d="m114.902 107.402c.293-.41.88-.468 1.29-.175l4.277 3.34c.41.292.469.878.175 1.288-.293.41-.879.469-1.288.176l-4.278-3.34c-.41-.292-.468-.879-.176-1.289zm5.625 4.395c.293-.352.234-.82-.117-1.113l-4.277-3.34a.83.83 0 0 0 -1.113.175c-.294.352-.235.82.116 1.114l4.278 3.34a.83.83 0 0 0 1.113-.176z" fill="#fff"/><path d="m106.23 106.875c.352-.351.88-.351 1.172 0l8.672 8.613a.83.83 0 0 1 0 1.172c-.35.351-.879.351-1.172 0l-8.672-8.613c-.293-.293-.293-.88 0-1.172z" fill="#f3f3f3"/><path d="m106.23 106.816a.92.92 0 0 1 1.29 0l8.671 8.613a.92.92 0 0 1 0 1.29.92.92 0 0 1 -1.289 0l-8.672-8.613a.83.83 0 0 1 0-1.29zm9.844 9.785a.814.814 0 0 0 0-1.112l-8.672-8.614a.815.815 0 0 0 -1.112 0 .814.814 0 0 0 0 1.113l8.671 8.613c.293.352.762.352 1.113 0z" fill="#fff"/><path d="m106.758 115.605c.352-.293.878-.293 1.172.059l3.574 4.101a.836.836 0 0 1 -.118 1.172c-.35.293-.878.293-1.171-.058l-3.575-4.102c-.292-.292-.234-.82.118-1.172z" fill="#f3f3f3"/><path d="m106.7 115.605c.41-.35.937-.293 1.288.059l3.575 4.101c.35.352.292.938-.118 1.29-.41.351-.937.293-1.289-.059l-3.574-4.101c-.293-.41-.293-.996.117-1.29zm4.687 5.332c.35-.292.35-.762.117-1.112l-3.575-4.102a.814.814 0 0 0 -1.113-.06c-.351.294-.351.763-.117 1.114l3.575 4.102c.292.351.762.351 1.112.058z" fill="#fff"/><path d="m98.32 113.379c.41-.293.938-.176 1.172.235l6.796 10.136c.235.41.118.938-.234 1.172-.41.293-.937.176-1.172-.234l-6.797-10.138c-.234-.41-.117-.937.235-1.171z" fill="#f3f3f3"/><path d="m98.32 113.32c.41-.293.996-.175 1.29.235l6.796 10.137c.293.41.176.996-.292 1.288-.411.294-.997.176-1.29-.234l-6.797-10.137c-.292-.468-.175-.995.293-1.288zm7.735 11.544c.351-.235.469-.704.234-1.055l-6.797-10.137c-.234-.351-.703-.41-1.113-.176-.352.234-.469.703-.234 1.055l6.796 10.136c.235.293.762.41 1.113.176z" fill="#fff"/><path d="m97.09 122.05c.41-.234.937-.116 1.171.294l2.696 4.746c.234.41.058.937-.352 1.171-.41.235-.937.118-1.171-.292l-2.695-4.746c-.177-.41-.06-.938.35-1.172z" fill="#f3f3f3"/><path d="m97.09 121.992c.469-.234.996-.117 1.23.293l2.695 4.746c.235.41.118.996-.35 1.23-.47.235-.997.118-1.231-.292l-2.695-4.746c-.235-.41-.118-.938.35-1.23zm3.515 6.211c.352-.234.528-.703.294-1.054l-2.696-4.747a.842.842 0 0 0 -1.054-.293c-.352.235-.528.704-.294 1.055l2.696 4.746c.175.351.703.528 1.054.293z" fill="#fff"/><path d="m89.297 118.184c.468-.176.937 0 1.113.41l4.746 11.308c.176.41-.058.938-.469 1.113-.41.176-.937 0-1.112-.41l-4.747-11.308c-.176-.41.058-.937.469-1.113z" fill="#f3f3f3"/><path d="m89.297 118.125c.468-.175.996 0 1.23.469l4.747 11.308a.91.91 0 0 1 -.528 1.172c-.469.176-.996 0-1.23-.469l-4.746-11.308c-.176-.41.058-.937.527-1.172zm5.332 12.832c.41-.176.586-.644.41-.996l-4.746-11.309a.794.794 0 0 0 -1.054-.41c-.41.176-.587.644-.41.997l4.745 11.308c.235.41.645.586 1.055.41z" fill="#fff"/><path d="m86.425 126.504c.47-.176.938.058 1.114.527l1.7 5.156c.175.41-.118.938-.528 1.055-.469.176-.937-.058-1.113-.527l-1.7-5.156c-.175-.41.06-.88.528-1.055z" fill="#f3f3f3"/><path d="m86.367 126.445a.91.91 0 0 1 1.172.528l1.7 5.156c.175.469-.118.996-.587 1.172a.91.91 0 0 1 -1.172-.527l-1.699-5.157c-.117-.468.118-.996.586-1.172zm2.285 6.738c.41-.117.645-.585.528-.995l-1.7-5.157c-.116-.41-.585-.586-.995-.469-.411.118-.645.587-.528.997l1.7 5.156a.74.74 0 0 0 .995.469z" fill="#fff"/><path d="m79.512 121.172c.468-.117.938.176.996.644l2.46 12.012c.118.469-.234.88-.703.996-.468.117-.937-.175-.995-.644l-2.462-12.012c-.058-.41.235-.88.703-.996z" fill="#f3f3f3"/><path d="m79.512 121.113c.527-.117.996.235 1.113.703l2.461 12.012c.117.469-.235.996-.703 1.055-.528.117-.997-.234-1.113-.703l-2.462-12.012c-.117-.469.177-.938.703-1.054zm2.753 13.652c.411-.058.704-.468.645-.937l-2.461-12.012c-.058-.41-.527-.702-.938-.586-.41.059-.702.469-.644.938l2.461 12.012c.117.41.527.644.938.586z" fill="#fff"/><path d="m75.059 128.789c.468-.059.879.235.996.703l.703 5.39c.058.47-.293.88-.762.938-.469.059-.879-.234-.996-.703l-.703-5.39c-.058-.47.293-.88.762-.938z" fill="#f3f3f3"/><path d="m75.059 128.73c.527-.058.996.294 1.055.762l.702 5.39c.059.47-.292.938-.82.997-.527.059-.996-.293-1.055-.762l-.702-5.39c-.06-.47.292-.938.82-.997zm.879 7.031c.41-.058.762-.468.703-.878l-.704-5.39c-.058-.41-.468-.704-.878-.645-.41.058-.762.468-.704.878l.704 5.391c.058.41.468.703.879.644z" fill="#fff"/><path d="m69.024 122.226c.468 0 .878.352.878.821v12.246c0 .468-.41.82-.878.82-.47 0-.88-.352-.88-.82v-12.246c.06-.469.41-.82.88-.82z" fill="#f3f3f3"/><path d="m69.024 122.168c.527 0 .937.41.937.879v12.246c0 .468-.41.879-.937.879-.528 0-.938-.41-.938-.88v-12.245c0-.469.469-.88.938-.88zm0 13.887c.41 0 .82-.352.82-.762v-12.246c0-.41-.352-.762-.82-.762-.41 0-.82.351-.82.762v12.246c.057.41.41.762.82.762z" fill="#fff"/><path d="m63.164 128.789c.469.059.82.41.82.879l-.41 5.45c-.058.468-.469.82-.938.761-.468-.059-.82-.41-.82-.879l.41-5.45c.06-.468.47-.82.938-.761z" fill="#f3f3f3"/><path d="m63.164 128.73c.527.059.879.469.879.938l-.41 5.45c-.059.468-.47.878-.997.82-.526-.06-.878-.47-.878-.938l.41-5.45c.058-.526.468-.878.996-.82zm-.528 7.09c.41 0 .821-.293.821-.703l.41-5.45c0-.41-.293-.76-.762-.82-.41 0-.82.293-.82.704l-.41 5.449c0 .41.351.762.762.82z" fill="#fff"/><path d="m58.77 121.172c.469.117.761.527.703.996l-2.403 12.012c-.117.469-.527.762-.996.644-.469-.117-.761-.527-.703-.996l2.403-12.012c.058-.41.527-.702.996-.644z" fill="#f3f3f3"/><path d="m58.77 121.113c.527.117.82.587.761 1.055l-2.401 12.012c-.118.469-.586.82-1.113.703a.956.956 0 0 1 -.762-1.055l2.402-12.012c.118-.468.586-.762 1.113-.702zm-2.754 13.652c.41.059.82-.175.937-.585l2.402-12.012a.83.83 0 0 0 -.644-.938c-.41-.058-.82.176-.937.587l-2.403 12.01c-.059.47.234.822.645.938z" fill="#fff"/><path d="m51.738 126.445c.47.118.762.586.645 1.055l-1.465 5.274c-.117.468-.586.702-1.054.586a.873.873 0 0 1 -.645-1.055l1.465-5.274c.117-.469.586-.703 1.055-.586z" fill="#f3f3f3"/><path d="m51.738 126.387c.47.117.82.644.645 1.113l-1.465 5.274c-.117.468-.644.762-1.113.644-.469-.117-.82-.644-.645-1.113l1.465-5.274c.117-.469.586-.762 1.113-.645zm-1.933 6.855c.41.118.879-.117.996-.527l1.464-5.274c.118-.41-.116-.82-.585-.937-.41-.118-.879.117-.996.527l-1.465 5.274c-.059.41.175.82.586.937z" fill="#fff"/><path d="m48.867 118.184c.47.175.644.702.47 1.113l-4.688 11.308c-.176.41-.704.645-1.113.41-.411-.234-.646-.702-.47-1.113l4.688-11.308c.175-.41.703-.645 1.113-.41z" fill="#f3f3f3"/><path d="m48.867 118.125a.91.91 0 0 1 .528 1.172l-4.688 11.308c-.176.469-.703.645-1.23.469a.91.91 0 0 1 -.528-1.172l4.687-11.308c.235-.469.763-.703 1.231-.469zm-5.332 12.832c.41.176.879 0 1.055-.41l4.687-11.308c.176-.41-.058-.821-.468-.997a.795.795 0 0 0 -1.055.41l-4.688 11.31c-.117.35.059.82.47.995z" fill="#fff"/><path d="m40.957 121.934c.41.234.586.702.41 1.113l-2.46 4.863c-.235.41-.704.586-1.173.351-.41-.234-.585-.702-.41-1.112l2.462-4.863c.234-.411.703-.587 1.171-.352z" fill="#f3f3f3"/><path d="m40.957 121.875a.896.896 0 0 1 .41 1.23l-2.46 4.864a.895.895 0 0 1 -1.231.41.895.895 0 0 1 -.41-1.23l2.46-4.863a.896.896 0 0 1 1.231-.411zm-3.222 6.387c.41.175.879.058 1.054-.352l2.461-4.863c.175-.352 0-.82-.351-1.055-.41-.175-.88-.058-1.055.352l-2.461 4.863c-.176.352 0 .82.352 1.054z" fill="#fff"/><path d="m39.785 113.262c.41.293.528.82.235 1.172l-6.797 10.137c-.234.41-.763.468-1.172.234-.41-.294-.527-.82-.235-1.172l6.798-10.137c.234-.41.761-.527 1.171-.235z" fill="#f3f3f3"/><path d="m39.785 113.203c.41.293.528.88.293 1.29l-6.797 10.136c-.292.41-.82.527-1.289.235-.41-.294-.527-.88-.293-1.29l6.797-10.136c.293-.41.879-.528 1.29-.235zm-7.734 11.543c.35.234.879.176 1.113-.175l6.797-10.137c.234-.352.117-.82-.235-1.055-.351-.234-.878-.176-1.112.175l-6.798 10.079c-.234.352-.117.878.235 1.113z" fill="#fff"/><path d="m31.23 115.43c.352.293.469.82.176 1.171l-3.398 4.278a.836.836 0 0 1 -1.172.117c-.351-.293-.469-.82-.175-1.172l3.398-4.277a.836.836 0 0 1 1.171-.117z" fill="#f3f3f3"/><path d="m31.289 115.371c.41.293.469.879.175 1.29l-3.398 4.276c-.292.41-.878.47-1.289.118-.41-.294-.468-.879-.175-1.29l3.398-4.275c.293-.411.879-.47 1.289-.118zm-4.394 5.567c.35.292.82.234 1.113-.118l3.398-4.277a.83.83 0 0 0 -.175-1.113c-.352-.294-.82-.235-1.114.117l-3.398 4.277c-.234.352-.176.879.175 1.114z" fill="#fff"/><path d="m31.816 106.64c.352.352.352.88 0 1.172l-8.671 8.613a.83.83 0 0 1 -1.172 0c-.293-.292-.352-.878 0-1.171l8.612-8.613a.85.85 0 0 1 1.231 0z" fill="#f3f3f3"/><path d="m31.875 106.582a.92.92 0 0 1 0 1.289l-8.672 8.614a.92.92 0 0 1 -1.288 0 .92.92 0 0 1 0-1.29l8.671-8.613a.92.92 0 0 1 1.289 0zm-9.902 9.843a.815.815 0 0 0 1.112 0l8.673-8.613a.814.814 0 0 0 0-1.113.814.814 0 0 0 -1.113 0l-8.672 8.613c-.293.293-.293.762 0 1.113z" fill="#fff"/><path d="m23.027 107.11c.293.35.293.879-.058 1.171l-4.16 3.516a.837.837 0 0 1 -1.173-.117c-.292-.352-.292-.879.06-1.172l4.16-3.516a.835.835 0 0 1 1.171.118z" fill="#f3f3f3"/><path d="m23.086 107.05c.352.411.293.997-.059 1.29l-4.16 3.515c-.351.352-.937.294-1.289-.116-.352-.411-.293-.997.058-1.29l4.161-3.515c.351-.352.938-.293 1.288.117h.001zm-5.39 4.63c.293.351.761.351 1.112.117l4.16-3.516a.814.814 0 0 0 .06-1.113c-.294-.352-.763-.352-1.113-.117l-4.161 3.515c-.352.293-.352.762-.059 1.113z" fill="#fff"/><path d="m25.371 98.672c.293.41.176.937-.235 1.172l-10.195 6.797c-.41.234-.937.117-1.171-.235-.294-.41-.176-.937.234-1.172l10.196-6.796c.352-.235.878-.118 1.172.234z" fill="#f3f3f3"/><path d="m25.43 98.672c.293.41.175.996-.235 1.29l-10.195 6.795c-.41.293-.996.175-1.289-.293-.293-.41-.175-.996.234-1.289l10.196-6.797c.41-.293.995-.176 1.288.293zm-11.602 7.676c.235.351.703.468 1.055.234l10.195-6.797c.352-.234.469-.703.176-1.113-.234-.352-.703-.469-1.055-.234l-10.195 6.797a.83.83 0 0 0 -.176 1.113z" fill="#fff"/><path d="m16.64 97.441c.235.41.118.938-.292 1.173l-4.747 2.695c-.41.234-.937.058-1.171-.352-.235-.41-.117-.937.293-1.172l4.746-2.695c.41-.235.937-.059 1.172.351z" fill="#f3f3f3"/><path d="m16.7 97.383c.234.468.116.996-.294 1.23l-4.746 2.696c-.41.234-.996.058-1.23-.352-.235-.468-.117-.996.293-1.23l4.746-2.696c.41-.234.996-.058 1.23.352zm-6.212 3.516c.235.41.703.527 1.055.292l4.746-2.695a.842.842 0 0 0 .293-1.055c-.234-.41-.703-.527-1.055-.292l-4.746 2.695c-.351.175-.469.645-.292 1.055z" fill="#fff"/><path d="m20.566 89.649c.176.468 0 .937-.468 1.112l-11.31 4.689c-.41.176-.937-.058-1.112-.469-.176-.469 0-.937.469-1.113l11.308-4.687c.41-.176.938 0 1.113.469z" fill="#f3f3f3"/><path d="m20.625 89.59c.175.469 0 .996-.469 1.23l-11.308 4.688a.91.91 0 0 1 -1.172-.528c-.176-.469 0-.996.469-1.23l11.308-4.688a.91.91 0 0 1 1.172.528zm-12.832 5.332c.176.41.644.586.996.468l11.309-4.687a.794.794 0 0 0 .41-1.054c-.176-.41-.644-.587-.997-.47l-11.308 4.689a.795.795 0 0 0 -.41 1.055z" fill="#fff"/><path d="m12.305 86.719c.175.469-.059.937-.528 1.113l-5.156 1.7c-.41.175-.937-.118-1.055-.528-.175-.469.059-.938.528-1.113l5.156-1.7c.41-.175.879.059 1.055.528z" fill="#f3f3f3"/><path d="m12.363 86.66c.176.469-.058.996-.586 1.172l-5.156 1.7c-.469.175-.996-.118-1.172-.587-.175-.469.059-.996.587-1.171l5.155-1.7c.47-.117.996.117 1.173.587h-.001zm-6.796 2.227c.117.41.586.645.996.528l5.156-1.7c.41-.117.586-.586.47-.996-.118-.41-.587-.644-.997-.527l-5.156 1.7a.808.808 0 0 0 -.47.995z" fill="#fff"/><path d="m17.578 79.746c.117.469-.176.938-.644.996l-12.012 2.344c-.47.117-.88-.235-.996-.703-.117-.47.175-.938.644-.997l12.012-2.343c.469-.058.938.234.996.703z" fill="#f3f3f3"/><path d="m17.695 79.746c.117.528-.234.996-.703 1.113l-12.012 2.344c-.469.117-.937-.234-1.054-.762-.117-.527.234-.996.703-1.113l12.012-2.343c.468-.118.937.234 1.054.761zm-13.652 2.637c.058.41.468.703.879.644l12.012-2.343c.41-.059.702-.528.586-.938-.059-.41-.469-.703-.88-.645l-12.01 2.344c-.41.118-.703.528-.586.938z" fill="#fff"/><path d="m10.078 75.235c.058.468-.234.879-.703.937l-5.39.644c-.47.059-.88-.292-.938-.762-.058-.468.234-.878.703-.937l5.39-.644c.411-.06.88.292.938.762z" fill="#f3f3f3"/><path d="m10.137 75.235c.058.526-.293.995-.762 1.054l-5.39.645c-.47.058-.938-.293-.996-.82-.06-.528.292-.997.761-1.055l5.39-.645c.47-.059.938.293.996.82h.001zm-7.09.82c.058.41.469.762.879.703l5.39-.644c.41-.06.704-.47.645-.88s-.469-.761-.879-.703l-5.39.645c-.41.059-.703.469-.645.879z" fill="#fff"/><path d="m16.64 69.55c0 .47-.35.88-.82.88h-12.245c-.47 0-.82-.41-.82-.879s.35-.88.82-.88h12.245c.469 0 .82.411.82.88z" fill="#f3f3f3"/><path d="m16.7 69.55c0 .528-.411.938-.88.938h-12.245c-.47 0-.88-.41-.88-.938 0-.526.41-.937.88-.937h12.245c.469 0 .879.41.879.937zm-13.887-.058c0 .41.35.82.762.82h12.245c.41 0 .762-.35.762-.82 0-.41-.352-.82-.762-.82h-12.245c-.41.058-.762.41-.762.82z" fill="#fff"/><path d="m10.137 63.633c-.06.468-.41.82-.88.82l-5.449-.41c-.468-.059-.82-.469-.761-.938.058-.469.41-.82.879-.82l5.449.41c.41.059.762.469.762.938z" fill="#e2e2e2"/><path d="m10.195 63.633c-.059.527-.469.878-.937.878l-5.45-.41c-.468-.058-.878-.468-.82-.996.059-.527.47-.879.938-.879l5.449.41c.469.06.82.528.82.997zm-7.148-.528c-.058.41.293.821.703.821l5.45.41c.41 0 .761-.293.82-.762.058-.41-.294-.82-.704-.82l-5.45-.41c-.409 0-.76.351-.82.762z" fill="#fff"/><path d="m17.695 59.355c-.117.469-.527.762-.996.704l-12.012-2.461c-.468-.118-.762-.528-.644-.997.117-.468.527-.762.996-.702l12.011 2.401c.41.117.703.585.644 1.054z" fill="#f3f3f3"/><path d="m17.754 59.355a.956.956 0 0 1 -1.055.762l-12.012-2.402c-.468-.117-.82-.586-.702-1.113a.955.955 0 0 1 1.054-.762l12.012 2.402c.469.118.762.586.703 1.113zm-13.654-2.754c-.058.41.176.82.587.938l12.013 2.401a.83.83 0 0 0 .937-.644.842.842 0 0 0 -.587-.938l-12.01-2.401c-.47-.058-.82.234-.938.644z" fill="#fff"/><path d="m12.422 52.325a.873.873 0 0 1 -1.055.644l-5.273-1.465c-.469-.118-.703-.586-.586-1.055a.873.873 0 0 1 1.054-.644l5.274 1.465c.469.116.703.585.586 1.054z" fill="#f3f3f3"/><path d="m12.48 52.325c-.116.468-.644.82-1.113.644l-5.273-1.465c-.469-.118-.762-.645-.645-1.113.117-.47.645-.82 1.114-.645l5.273 1.465c.469.117.762.586.644 1.113zm-6.855-1.935c-.117.41.117.88.527.996l5.274 1.465c.41.117.82-.118.938-.586.116-.41-.118-.88-.528-.996l-5.274-1.465c-.41-.058-.82.176-.937.586z" fill="#fff"/><path d="m20.684 49.512c-.176.468-.704.644-1.113.468l-11.311-4.687c-.41-.176-.644-.703-.468-1.113a.838.838 0 0 1 1.113-.469l11.31 4.689a.838.838 0 0 1 .469 1.112v.001z" fill="#f3f3f3"/><path d="m20.742 49.57a.91.91 0 0 1 -1.172.528l-11.309-4.688c-.468-.175-.644-.703-.468-1.23a.91.91 0 0 1 1.172-.528l11.309 4.688c.468.234.644.762.468 1.23zm-12.832-5.33c-.175.41 0 .878.41 1.054l11.31 4.686c.41.176.82-.058.996-.469a.794.794 0 0 0 -.41-1.054l-11.31-4.687c-.41-.118-.879.058-.996.469z" fill="#fff"/><path d="m16.875 41.601c-.234.41-.703.587-1.113.41l-4.863-2.46c-.41-.176-.586-.703-.352-1.172.234-.41.703-.586 1.113-.41l4.863 2.46c.41.235.587.763.352 1.172z" fill="#f3f3f3"/><path d="m16.934 41.66a.896.896 0 0 1 -1.231.41l-4.863-2.46a.895.895 0 0 1 -.41-1.231.895.895 0 0 1 1.23-.41l4.863 2.46c.47.176.645.763.41 1.231zm-6.329-3.222c-.175.41-.058.878.352 1.054l4.863 2.461c.352.176.82 0 1.055-.352.175-.41.059-.878-.351-1.054l-4.923-2.46c-.352-.176-.82-.059-.996.351z" fill="#fff"/><path d="m25.488 40.488c-.293.41-.762.528-1.172.235l-10.136-6.738c-.41-.235-.468-.762-.234-1.172.235-.41.762-.528 1.172-.235l10.195 6.797c.352.235.47.762.176 1.113z" fill="#f3f3f3"/><path d="m25.547 40.547c-.293.41-.88.527-1.289.293l-10.137-6.797c-.41-.293-.527-.82-.235-1.289.294-.41.88-.528 1.29-.293l10.136 6.797c.47.293.528.878.235 1.289zm-11.543-7.734c-.234.35-.176.878.175 1.112l10.196 6.798c.351.235.82.118 1.055-.234.234-.352.175-.88-.176-1.113l-10.196-6.798c-.351-.234-.82-.117-1.055.234z" fill="#fff"/><path d="m23.32 31.992c-.293.352-.82.47-1.171.176l-4.278-3.34a.837.837 0 0 1 -.117-1.172c.293-.351.82-.468 1.172-.175l4.277 3.34c.352.293.41.82.117 1.171z" fill="#f3f3f3"/><path d="m23.379 32.05c-.293.411-.879.47-1.29.176l-4.276-3.339c-.41-.293-.47-.879-.176-1.288.293-.41.879-.47 1.288-.176l4.278 3.34c.41.292.47.878.176 1.289zm-5.625-4.394c-.293.352-.234.82.117 1.113l4.278 3.34a.83.83 0 0 0 1.112-.175c.294-.352.235-.82-.116-1.113l-4.278-3.34a.83.83 0 0 0 -1.113.175z" fill="#fff"/><path d="m32.05 32.578c-.35.352-.878.352-1.171 0l-8.73-8.613a.83.83 0 0 1 0-1.172c.352-.351.879-.351 1.172 0l8.672 8.613c.351.293.351.88.059 1.172z" fill="#f3f3f3"/><path d="m32.05 32.637a.92.92 0 0 1 -1.288 0l-8.673-8.614a.92.92 0 0 1 0-1.29.92.92 0 0 1 1.29 0l8.671 8.614a.83.83 0 0 1 0 1.289zm-9.842-9.786a.814.814 0 0 0 0 1.113l8.671 8.613a.814.814 0 0 0 1.113 0 .814.814 0 0 0 0-1.113l-8.671-8.671c-.293-.293-.762-.293-1.113.058z" fill="#fff"/><path d="m31.524 23.848c-.352.293-.88.293-1.173-.06l-3.574-4.1a.836.836 0 0 1 .118-1.172c.35-.293.879-.293 1.171.058l3.575 4.102c.293.293.234.82-.117 1.172z" fill="#f3f3f3"/><path d="m31.582 23.848c-.41.351-.937.293-1.29-.06l-3.573-4.1c-.352-.352-.293-.938.117-1.29.41-.351.938-.293 1.289.06l3.575 4.1c.292.41.292.997-.118 1.29zm-4.687-5.332c-.352.293-.352.761-.118 1.113l3.575 4.101a.813.813 0 0 0 1.113.059c.351-.293.351-.762.117-1.113l-3.574-4.102c-.293-.35-.762-.35-1.113-.058z" fill="#fff"/><path d="m39.961 26.075c-.41.292-.937.175-1.172-.235l-6.855-10.137c-.235-.41-.118-.938.234-1.172.41-.292.937-.175 1.172.235l6.796 10.136c.294.41.176.938-.175 1.172z" fill="#f3f3f3"/><path d="m39.961 26.133c-.41.293-.996.175-1.29-.234l-6.795-10.139c-.293-.41-.175-.995.293-1.288.41-.293.996-.176 1.29.234l6.796 10.137c.293.468.175.996-.293 1.289zm-7.735-11.543c-.352.234-.469.703-.234 1.055l6.796 10.136c.235.352.704.41 1.113.176.352-.234.47-.703.235-1.055l-6.796-10.078c-.235-.35-.762-.469-1.113-.234z" fill="#fff"/><path d="m41.191 17.402c-.41.234-.937.118-1.171-.292l-2.696-4.746c-.234-.41-.059-.938.352-1.173.41-.234.938-.117 1.172.294l2.695 4.745c.176.41.058.938-.351 1.172z" fill="#f3f3f3"/><path d="m41.191 17.461c-.468.234-.996.117-1.23-.293l-2.696-4.746c-.234-.41-.116-.996.352-1.23.47-.235.997-.118 1.23.293l2.696 4.745c.234.41.117.938-.351 1.231zm-3.515-6.211c-.352.234-.527.703-.293 1.055l2.695 4.746a.841.841 0 0 0 1.055.293c.352-.234.527-.704.293-1.055l-2.696-4.746c-.175-.351-.703-.528-1.054-.293z" fill="#fff"/><path d="m48.984 21.27c-.468.175-.937 0-1.113-.41l-4.746-11.31c-.175-.41.059-.937.469-1.113.468-.176.937 0 1.113.41l4.746 11.309c.176.41-.058.937-.469 1.113z" fill="#f3f3f3"/><path d="m48.984 21.328c-.468.176-.995 0-1.23-.469l-4.746-11.308a.91.91 0 0 1 .527-1.172c.469-.176.996 0 1.23.469l4.746 11.308c.176.41-.058.938-.526 1.172zm-5.332-12.832c-.41.176-.586.645-.41.996l4.746 11.308a.794.794 0 0 0 1.054.41c.41-.175.587-.644.41-.996l-4.745-11.308c-.235-.41-.645-.586-1.055-.41z" fill="#fff"/><path d="m51.855 12.95c-.469.175-.937-.06-1.113-.528l-1.7-5.157c-.175-.41.118-.937.528-1.054s.938.059 1.113.528l1.7 5.156c.175.41-.059.879-.528 1.054z" fill="#f3f3f3"/><path d="m51.914 13.008a.91.91 0 0 1 -1.172-.528l-1.7-5.156c-.175-.469.118-.996.587-1.172a.91.91 0 0 1 1.172.528l1.699 5.156c.117.469-.117.996-.586 1.172zm-2.285-6.738c-.41.116-.645.585-.528.995l1.7 5.157c.117.41.585.586.996.468.41-.116.644-.585.527-.995l-1.699-5.157a.74.74 0 0 0 -.996-.469z" fill="#fff"/><path d="m58.77 18.281c-.469.118-.938-.175-.996-.645l-2.462-12.011c-.117-.469.235-.879.703-.996.47-.118.938.175.996.645l2.462 12.012c.058.41-.234.878-.703.995z" fill="#f3f3f3"/><path d="m58.77 18.34c-.528.117-.996-.235-1.114-.704l-2.46-12.011c-.118-.469.234-.996.703-1.055.527-.117.996.235 1.112.704l2.462 12.012c.117.468-.176.937-.703 1.054zm-2.754-13.652c-.41.058-.703.468-.645.937l2.461 12.012c.059.41.527.703.938.586.41-.06.703-.47.644-.938l-2.461-12.012c-.117-.41-.527-.644-.938-.585z" fill="#fff"/><path d="m63.223 10.664c-.47.059-.88-.234-.997-.703l-.702-5.39c-.06-.47.292-.88.762-.938.468-.059.878.234.995.703l.703 5.39c.059.47-.293.88-.761.938z" fill="#f3f3f3"/><path d="m63.223 10.723c-.528.058-.997-.293-1.055-.763l-.703-5.39c-.059-.469.293-.937.82-.996.528-.058.996.293 1.055.762l.703 5.39c.058.47-.293.938-.82.997zm-.88-7.032c-.41.059-.761.47-.703.88l.704 5.39c.058.41.468.703.879.644.41-.058.762-.469.703-.879l-.703-5.39c-.06-.41-.47-.703-.88-.645z" fill="#fff"/><ellipse cx="69.551" cy="69.668" fill="url(#c)" rx="69.375" ry="69.375"/></g><path d="m123.457 30.938-55.957 35.859h-.059v.057l-.058.059-34.921 57.598 51.328-41.308.058-.058v-.058l39.61-52.149z" fill="#000" fill-opacity=".05"/><path d="m122.402 27.598-55.312 39.316 16.406 16.289z" fill="#cd151e"/><path d="m67.149 66.797 8.262 8.144 46.991-47.343-55.253 39.2z" fill="#fa5153"/><path d="m67.149 66.797 16.406 16.288-55.313 39.317 38.908-55.605z" fill="#acacac"/><path d="m28.242 122.402 47.168-47.46-8.262-8.145z" fill="#eee"/></g></svg>