<svg height="12" viewBox="0 0 11 12" width="11" xmlns="http://www.w3.org/2000/svg"><path d="m8.368 12a1.742 1.742 0 0 1 -1.736-1.737c0-.254.058-.497.157-.715l-3.749-2.413a1.73 1.73 0 0 1 -1.302.602 1.742 1.742 0 0 1 -1.738-1.737c0-.955.781-1.737 1.737-1.737.523 0 .993.233 1.312.602l3.745-2.408a1.705 1.705 0 0 1 -.162-.72c0-.957.78-1.737 1.736-1.737s1.737.781 1.737 1.737c0 .955-.781 1.737-1.737 1.737-.47 0-.9-.192-1.213-.499l-3.79 2.433c.068.185.109.385.109.592 0 .21-.04.41-.109.597l3.785 2.428a1.734 1.734 0 0 1 1.218-.499c.956 0 1.737.782 1.737 1.737 0 .956-.781 1.737-1.737 1.737z" fill="#c4cbd6"/></svg>