<svg enable-background="new 0 0 22.7 22.7" viewBox="0 0 22.7 22.7" xmlns="http://www.w3.org/2000/svg"><g fill="none" stroke="#c5c9cc" stroke-linecap="round" stroke-linejoin="round" stroke-miterlimit="10"><circle cx="11.3" cy="11.3" r="9.1"/><path d="m8.3 14.1 1.7-6.7-.7-.2c-.1 0-.2-.1-.2-.2-.1 0-.1-.1-.1-.2s.1-.1.1-.2h.3l3.6.9c.7.2 1.2.5 1.6 1.1.3.5.4 1.1.3 1.6-.2.7-.7 1.2-1.5 1.4.5.4.9.8 1.1 1.2s.2.8.1 1.3c-.1.4-.3.7-.5 1-.3.3-.6.5-1 .6s-.9.1-1.3 0l-4.2-1.1c-.1 0-.2-.1-.3-.2 0-.1-.1-.1 0-.2 0-.1.1-.1.1-.2h.3zm1.6-3.6 2 .5c.4.1.8.1 1.2.1.3-.1.6-.2.8-.4s.4-.4.4-.7c.1-.4 0-.7-.2-1.1-.3-.4-.6-.6-1.2-.8l-2.2-.6zm-1 3.8 2.9.7c.4.1.7.1 1 0s.6-.2.8-.4.3-.4.4-.7 0-.6-.1-.9-.4-.6-.7-.8-.8-.4-1.4-.6l-2-.5z" stroke-width=".6"/><path d="m10.7 16.7.4-1.4"/><path d="m8.1 16 .4-1.4"/><path d="m13.1 7.7.4-1.4"/><path d="m10.4 7.1.4-1.5"/></g><path d="m9.6 10.2 4 1-.4.9-3.8-1.2z" fill="#c5c9cc"/></svg>