<svg enable-background="new 0 0 22.7 22.7" viewBox="0 0 22.7 22.7" xmlns="http://www.w3.org/2000/svg"><g fill="#00c1d8"><path d="m6.3 11.8h-4.5c.1 1.3.4 2.5.9 3.5h4.1c-.3-1-.5-2.2-.5-3.5z"/><path d="m8.1 6.3h2.7v-3.5c-1.1.3-2.1 1.6-2.7 3.5z"/><path d="m10.8 11.8h-3.5c0 1.3.2 2.5.5 3.5h3z"/><path d="m10.8 10.8v-3.5h-3c-.3 1.1-.4 2.3-.5 3.5z"/><path d="m6.8 7.3h-4.1c-.5 1.1-.8 2.3-.9 3.5h4.5c0-1.2.2-2.4.5-3.5z"/><path d="m15.9 15.4h4.1c.5-1.1.8-2.3.9-3.5h-4.5c-.1 1.2-.2 2.4-.5 3.5z"/><path d="m15.4 10.8c0-1.3-.2-2.5-.5-3.5h-3v3.5z"/><path d="m11.8 2.8v3.5h2.7c-.6-1.9-1.6-3.2-2.7-3.5z"/><path d="m11.8 11.8v3.5h3c.3-1.1.4-2.3.5-3.5z"/><path d="m10.8 20.9c-1.6-.3-3-2-3.8-4.5h-3.8c1.6 2.6 4.4 4.3 7.6 4.5z"/><path d="m7 6.3c.8-2.5 2.2-4.2 3.8-4.5-3.2.2-6 1.9-7.6 4.5z"/><path d="m15.6 16.4c-.8 2.5-2.2 4.2-3.8 4.5 3.2-.2 6-1.9 7.6-4.5z"/><path d="m15.9 7.3c.3 1.1.4 2.3.4 3.5h4.5c-.1-1.3-.4-2.5-.9-3.5z"/><path d="m14.6 16.4h-2.7v3.5c1-.4 2-1.7 2.7-3.5z"/><path d="m11.8 1.8c1.6.3 3 2 3.8 4.5h3.8c-1.5-2.6-4.3-4.4-7.6-4.5z"/><path d="m10.8 19.9v-3.5h-2.7c.6 1.8 1.6 3.1 2.7 3.5z"/></g></svg>