<svg enable-background="new 0 0 22.7 22.7" viewBox="0 0 22.7 22.7" xmlns="http://www.w3.org/2000/svg"><g fill="#00c1d8"><path d="m11.4 20.9h.2c-.1 0-.2 0-.2 0z"/><path d="m11.6 1.8c-.2-.1-.4-.1-.5 0-.2.1-.3.3-.3.4 0 1.6-1.5 2.6-3.2 3.8-1.9 1.3-4 2.7-4.6 5.2-.6 2.3-.1 4.5 1.3 6.3 1.5 2 4.1 3.3 6.8 3.4-1.8-.1-3.4-1.2-4-2.8-.5-1.4-.7-4.3 3.9-8 0 0 .1-.1.2-.1h.2c.1 0 .2 0 .2.1.1 0 .1.1.1.1 4.5 3.8 4.4 6.7 3.9 8.1-.5 1.5-1.9 2.5-3.5 2.7 3.5-.3 6.6-2.5 7.5-5.7.6-2.2 1.1-7.6-8-13.5z"/><path d="m11.3 11.1c-2.8 2.4-4 4.8-3.3 6.7.5 1.3 1.8 2.2 3.3 2.2s2.8-.9 3.3-2.1c.7-1.9-.5-4.4-3.3-6.8z"/></g></svg>