<svg enable-background="new 0 0 22.7 22.7" viewBox="0 0 22.7 22.7" xmlns="http://www.w3.org/2000/svg"><path d="m-145.8-214.8c0 5-4 9.1-9.1 9.1-5 0-9.1-4-9.1-9.1s4-9.1 9.1-9.1 9.1 4.1 9.1 9.1z" fill="#fff"/><g fill="#00c1d8"><path d="m11.8 12v2.1c.7-.1 1.2-.5 1.2-1s-.2-.9-1.2-1.1z"/><path d="m9.9 9.6c0 .5.2.8 1 1v-2c-.6.1-1 .5-1 1z"/><path d="m20.4 9c.3 0 .5-.2.5-.5v-4.2c0-.3-.2-.5-.5-.5h-18.1c-.3 0-.5.2-.5.5v4.3c0 .2.2.4.5.4 1.3 0 2.3 1 2.3 2.3s-1 2.3-2.3 2.3c-.3 0-.5.2-.5.5v4.3c0 .3.2.5.5.5h18.2c.3 0 .5-.2.5-.5v-4.3c0-.3-.2-.5-.5-.5-1.3 0-2.3-1-2.3-2.3-.1-1.2 1-2.3 2.2-2.3zm-8.6 6.1v.8c0 .3-.2.5-.5.5s-.5-.2-.5-.5v-.8c-.7-.1-1.4-.4-2.1-.9-.1-.1-.2-.2-.2-.4 0-.3.2-.5.5-.5.1 0 .3 0 .3.1.5.4.9.6 1.4.7v-2.3c-1.2-.3-2.1-.8-2.1-2.1 0-1.1.8-1.9 2.1-2.1v-.8c0-.3.2-.5.5-.5s.5.2.5.5v.8c.7.1 1.2.3 1.8.7.1.1.2.2.2.4 0 .3-.2.5-.5.5-.1 0-.2 0-.3-.1-.4-.3-.8-.4-1.2-.5v2.2c1.6.4 2.3 1 2.3 2.1.1 1.3-.8 2.1-2.2 2.2z"/></g></svg>