<svg enable-background="new 0 0 1447.43 1200" viewBox="0 0 1447.43 1200" xmlns="http://www.w3.org/2000/svg"><path d="m525.16 749.72 31.57-20.51 2.65-63.04 1.62-33.85s-4.09-12.1-5.58-19.43-.73-25.07-3.52-24.55c-2.78.52-20.68-1.59-24.4-18.06-3.72-16.48-5.49-40.36-5.32-45.18s1.11-48.78 1.22-50.13 4.1-15.28 4.1-15.28 9.78-.87 14.08-16.16c4.31-15.29 34.54-138.29 34.54-138.29s48.71-38.05 63.87-40.33 132.82-9.15 140.98-9.15 82.38 24.74 83.75 28.17c1.37 3.44 19.04 31.61 20.17 34.36s10.06 41.92 12.13 52.22 3.44 46.04 4.81 53.6-2.11 43.43 0 43.47c2.11.03 21.93 2.79 23.19 7.38s.98 27.78.98 27.78l2.17 32.3s.32 26.4-.13 30.62c-.46 4.22-.1 23.47-.1 23.47s-2.21 13.36-7.55 13.03c-5.34-.32-6.86-5.79-13.02 10.73s-8.47 24.67-9.12 26.73-9.76 26.55-9.76 26.55l3.9 47.9 1.18 17.87 36.22 30.03s36.02 69.63-18.99 105.36-73.57 55.1-128.2 61.22-120.59 9.56-150.14 6.81-94.03-72.15-96.49-74.21c-2.45-2.07-29.48-88.17-10.81-111.43z" fill="#ad6045"/><path d="m556.72 462.75s8.74-34.85 11.15-43.44 10.31-63.9 10.31-65.62 2.41-35.39 9.62-44.32c7.22-8.93 18.67-20.32 31.84-24.42s66.42-19.56 80.51-19.21c14.09.34 50.03-.01 50.03-.01s53.73 9.28 63.35 12.37 26.46 8.25 30.23 9.96c3.78 1.72 20.96 7.56 25.08 13.06s10.65 14.43 12.03 21.99c1.37 7.56 10.65 50.51 13.4 71.46s10.68 73.36 10.68 73.36 7.84-6.18 8.39-16.57c.55-10.4 0-84.19 0-89.77s-19.41-64.94-21.82-68.71-46.6-46.98-52.15-52.03c-5.54-5.04-36.84-33.52-56.77-40.05s-51.55-12.85-68.71-8.8c-17.17 4.05-68.45 19.39-71.44 24.95s-45.49 46.36-51.32 52.82-29.62 37.85-30.71 39.67-22.58 56.79-23.52 79.38 2.48 41.16 2.48 41.16v18.02c.02 0 14.44 15.25 17.34 14.75z" fill="#221407"/><path d="m802.59 275.48s37.33 88.68 0 125.78c0 0-2.96 0-8.7 1.8-5.74 1.81-12.91.78-18.32 6.82-3.09 3.46-18.95 25.68-15.8 33.8 3.14 8.12 15.68 17.11 16.32 26.82s17.01 15.45 28.86 20.26c10.9 4.42 54.07 2.6 70.95-11.76 2.05-1.75 5.21-.97 6.2 1.54 5.52 13.97 16.27 50.15-14.78 61.55-28.19 10.36-14.68 40.81-11.29 62.04 2.06 12.89 1.49 26.27 1.18 39.29-.47 19.87-2.97 40.2-10.47 58.75-5.56 13.77-14.1 26.38-26.12 35.29-6.49 4.81-13.79 8.42-21.48 10.88-8.97 2.87-18.68 1.91-27.42 4.4 0 0 61.05-26.28 96.61-65.45s37.46-74.25 37.27-76.3 6.65-47.39 6.65-47.39-2.76-54.17-2.96-56-9.03-61.49-9.03-61.49l-7.86-49.55s-2.81-46.71-3.9-51.28c-1.09-4.58-11.96-32.84-11.96-32.84l-24.43-21.3c-.01 0-43.77-14.48-49.52-15.66z" fill="#99503a"/><path d="m686.41 396.56s11.22 3.39 10.5 13.32c-.71 9.93-6.38 14.29-1.23 21.9 5.15 7.62 9.79 19.47 9.79 24.11s-9.45 26.8-23.53 26.8c-14.09 0-19-4.12-38.45 0s-60.67 14.26-49.34 4.12 14.24-7.04 12.75-16.31c-1.49-9.28-3.99-3.74-13.26-9.69-9.28-5.95-13.91-.62-13.91-13.59s2.58-28.72 18.04-37.34c15.46-8.61 80.88-18.37 88.64-13.32z" fill="#99503a"/><path d="m679.62 541.85s2.15 14.59 13.49 15.34 11.85-.28 21.13 2.81 20.61 5.67 28.86 5.67 5.2 1.55 16.26-2.06.75-3.09 11.06-3.61 23.58-1.37 25.6-9.03c2.01-7.67 4.84-10.86 2.66-18.3s-1.22-16.51-5.97-18.55c-4.76-2.04-11.63-7.88-14.89-6.51s-3.78-1.24-2.75 6.51c1.27 9.56 1.34 15.46-7.04 21.24-8.61 5.93-22.14 9.23-31.98 4.33-4.81-2.39-9.5-7.63-15.09-8.03-7.22-.52-16.19 6.91-25.47-2.36-9.28-9.28-10.54-24.43-13.53-15.17-3 9.25-2.34 27.72-2.34 27.72z" fill="#99503a"/><path d="m910.8 504.42 2.78-16.06s13.58-10.72 13.35-2.04-8.67 17.9-3.47 35c5.21 17.1 2.08 31.98-3.08 41.26s-5.47 22.67-6.8 11.85-3.38-33.02-2.93-41.76c.46-8.74.15-28.25.15-28.25z" fill="#99503a"/><path d="m525.16 464.66s15.62 15.85 18.26 23.41 6.55 21.89 6.16 33.25-.05 37.75-.12 35.87-6.59 8.48-10.06-11.1-11.89-34.02-14.24-44.32c-2.35-10.31 0-37.11 0-37.11z" fill="#99503a"/><path d="m893.58 731.94s-33.31 17.29-47.15 44c-11.73 22.63-29.73 27.21-38.67 41.23s-31.92 40.2-48.41 42.26-41.76 12.37-71.65-12.37-33.02-12.61-49.59-48.49-25.64-43.48-49.34-66.69-32.04-57.26-32.04-57.26l8.48-34.58 60.39 69.93s52.57 41.23 79.88 42.78 80.57-6.82 80.57-6.82l60.38-55.51 42.07-24.24z" fill="#914837"/><path d="m788.23 459.01 9.01.09-.05-5.18-2.56-4.42c.01 0-7.39 3.86-6.4 9.51z" fill="#9e4141"/><path d="m796 448.85s11.9-5.96 13.15-6.31c1.26-.35 10.33-1.66 10.33-1.66l15.22.91 15.85 9.55-1.55 7.47s-.76 2.17-9.53 3.04c-8.77.86-16.54.46-18.31.27s-16.99-3.31-16.99-3.31l-6.79-1.42z" fill="#fcfcfc"/><path d="m798.67 454.3s21.99-12.13 47.76.53v-8.72s-18.82-3.7-23.88-4.31-23.88 5.23-23.88 5.23l-2.67 1.82z" fill="#bfbfbf"/><path d="m824.53 441.19 10.17.61-.09 6.5-1.04 6.54s-5.94 5.49-5.94 5.98-6.96 1.82-10.31 0-5.72-5.98-5.72-5.98-1.04-5.03-1.14-5.98 1.88-7.1 1.88-7.1z" fill="#221407"/><path d="m676.99 454.83h9.41s-1.03-3.87-2.36-5.12c-1.34-1.25-4.43-4.64-4.43-4.64l-3.49 3.22s.05 5.65.87 6.54z" fill="#9e4141"/><path d="m617.92 447.03c.18-.32 11.95-6.27 14.33-7.07 2.38-.79 12.27-2.55 13.96-2.89s10.98.01 12.2.24c1.23.22 9.61 4.04 10.47 4.44s10.73 4.36 10.73 4.36l-3.49 3.84s5.65 4.63-1.05 4.5-11.85 2.72-16.66 2.94-15.86.09-20.3 0-14.23-1.94-15.26-3.09-7.11-3.43-4.93-7.27z" fill="#fcfcfc"/><path d="m625.6 448.29s29.89-9.6 49.47 2.18l2.8-4.36s-5.42-4.32-7.59-5.22-9.9-3.5-13.89-3.87c-3.99-.36-12.04-.81-13.93-.09-1.89.73-16.86 5.81-16.86 5.81z" fill="#bfbfbf"/><path d="m651.35 436.67 6.24.51 3.11 4.62 1.06 5.23-2.42 4.32s-.59 3.28-1.79 3.48c-1.2.21-12.2 1.29-12.2 1.29l-5.36-1.82-2.47-4.59.59-6.2 2.12-5.78z" fill="#221407"/><path d="m764.02 658.83s22.03-3.48 41.27-27.53c0 0 7.23-8.84 13.08-12.19 1.45-.83 1.49-2.91.06-3.78-6.01-3.68-16.72-10.19-19.33-11.48-3.69-1.82-31.87-13.23-33.33-11.7-1.46 1.54-21.99 1.7-26.63 2.27s-17.69-2.56-23.53-2.41-22.68 1.7-25.1 2.23-18.56 5.49-20.54 6.32c-1.69.71-9.62 1.74-18.75 4.44-2.52.74-3.76 3.58-2.63 5.95 2.12 4.44 5.38 11.43 7.68 17.18 3.2 8.02 8.88 14.82 16.32 19.21 7.9 4.67 19.43 9.5 35.12 11.5 34.38 4.37 56.31-.01 56.31-.01z" fill="#884442" opacity=".39"/><path d="m664.08 619.61 15.54 5.67s15.99 1.5 19.09 2.03c3.1.54 19.4 7.24 23.48 6.29s12.18-.47 18.51.09 18.54-1.5 21.2-2.17 9.02-2.46 12.79-2.88 18.75-.63 18.67-2.43c-.09-1.8 7.3-7.05 0-7.71s-8.26-2.26-15.55-3.09-28.52-2.72-38.65-2.54c-10.14.19-28.07.25-36.63-.4s-24.36-1.47-27.45-1.5-10.99 6.86-10.99 6.86v1.78z" fill="#fff"/><g fill="#221407"><path d="m786.04 617.86s4.29 5.01 0 8.36h7.3 5.75s4.3-1.54 5.07-2.05c.78-.51 1.7-1.08 2.29-1.95.58-.87 1.23-4.37 1.23-4.37s-19.98 1.5-21.64.01z"/><path d="m675.07 612.9s-5.41 4.05-1.03 9.33c0 0-4.43.19-5.33-.18-.89-.38-7.44-4.46-7.44-4.46l-4.61-4.69-1.64-3.43s18.76 4.01 20.05 3.43z"/><path d="m890.96 612.9c-8.72 6.37-14.9 13.77-20.06 22.09-5.15 8.33-13.65 21.56-18.8 17.78s-5.93-9.79-6.62-29.03-1.37-26.68-6.53-31.59-16.49-20.29-27.14-21.66-48.44-4.81-54.28-4.81-23.53 0-23.53 0-21.82 0-28 0-22.16 1.03-30.92 2.58-21.47 7.19-28.09 11.83c-12.11 8.49-18.81 29.4-20.36 32.82s-2.58 18.74-3.61 31.11-9.1 14.82-13.45 9.43c-2.92-3.62-6.13-20.77-10.25-27.98-4.12-7.22-8.76-14.43-16.49-20.1s-30.92-17.01-30.92-17.01l15.57 60.47s20.02 37.07 22.46 40.78 28.7 36.96 28.7 36.96 23.59 28.16 26.75 32.57 25.64 24.3 30.75 27.81c5.12 3.51 38.49 10.2 51 11.28 12.52 1.08 21.64-.63 21.64-.63s-.01-.21-.03-.59l33.87-5.61 34.7-21.74 38.22-49.39s32.65-46.05 37.91-64.03c5.26-17.99 13.94-55.66 13.94-55.66s-7.71 5.94-16.43 12.32zm-71.24 28.7c-2.4 10.65-10.85 28.17-11.95 34.7s-5.92 19.58-10.38 26.46c-4.46 6.87-.86 13.06-16.41 13.06s-17.6-.34-26.54-3.44c-6.28-2.17-15.29-2.75-20.44-.86s-10.48 3.61-24.91 5.15c-14.43 1.55-19.58-.52-34.01-6.18-14.43-5.67-5.67-7.22-9.28-18.55-3.61-11.34-6.18-12.37-10.77-20.1-4.58-7.73-5.72-14.95-10.4-20.61-4.68-5.67.56-23.19.04-33.36s3.61-15.6 7.73-19.72 14.43-8.76 25.48-11.85c7.93-2.22 22.97-4.18 30.81-5.1 3.28-.39 6.58-.32 9.84.2l9.25 1.49c3.92.63 7.92.43 11.75-.61 4.1-1.11 9.44-2.36 12.17-2.16 4.81.34 33.33 3.78 38.82 6.18 5.5 2.4 15.12 6.18 19.24 8.93s8.59 3.09 9.96 12.71c1.37 9.61 2.4 23.01 0 33.66z"/><path d="m771.58 661.01s-11.21 9.95-14.74 13.61c-3.61 3.75-1.03 3.38-8.25 7.5s-11.01 8.68-17.2 8.27c-3.03-.2-8.46-5.61-15.61-9.31-18.87-9.76-14.95-17.35-20.1-21.98-1.72-1.54 7.22 4.03 12.37 4.52s9.28 1.54 12.88 2.56c3.61 1.02 14.43-1.02 20.61 0s12.88-2.56 12.88-2.56 19.11-8.11 17.16-2.61z"/><path d="m833.54 465.52c-8.38 0-18.23-.87-29.22-3.37-2.2-.5-4.46-.61-6.73-.32-3.28.41-8.09.62-12.37-.73-1.43-.45-2.24-1.97-1.81-3.41.1-.33 2.52-8.03 12.95-11.95 1.69-1.3 8.3-5.9 18.84-7.26 19.78-2.54 37.86 8.31 49.55 17.86.76.62 1.13 1.6.97 2.57s-.81 1.78-1.73 2.13c-.67.26-11.98 4.48-30.45 4.48zm-33.5-9.34c1.85 0 3.68.21 5.49.62 24.39 5.54 43.08 2.59 51.54.55-34.69-25.63-56.61-7.87-57.56-7.07-.25.21-.54.38-.85.49-4.42 1.58-6.98 3.93-8.39 5.76 2.39.24 4.79.08 6.64-.15 1.04-.14 2.09-.2 3.13-.2z"/><path d="m799.1 464.66s.43.18 1.16.5c.71.31 1.72.76 2.93 1.3 1.17.53 2.53 1.16 3.98 1.83.74.3 1.46.67 2.22.98.76.32 1.51.68 2.29.97l1.15.49c.39.14.77.3 1.15.45.38.14.75.32 1.13.45s.75.26 1.12.41c.73.3 1.45.53 2.14.77.68.26 1.34.5 1.95.68.61.19 1.18.43 1.69.6.51.14.96.3 1.33.42.75.26 1.19.45 1.19.45s-.43.16-1.22.35c-.39.09-.87.21-1.43.31-.55.08-1.18.13-1.87.17-.35.01-.71.03-1.08.04-.37-.02-.75-.04-1.15-.06-.79-.05-1.63-.12-2.47-.3-.85-.16-1.73-.33-2.59-.62-.43-.13-.87-.26-1.31-.41l-1.28-.51c-.85-.35-1.67-.76-2.46-1.19-.8-.41-1.54-.92-2.25-1.38-.69-.51-1.36-.99-1.96-1.51-.6-.51-1.14-1.01-1.61-1.51-.49-.48-.88-.98-1.24-1.41-.35-.43-.63-.83-.86-1.17-.45-.67-.65-1.1-.65-1.1z"/><path d="m790.51 443.36c1.02-.55 2-1.15 2.97-1.75.97-.59 1.9-1.25 2.83-1.88.92-.64 1.81-1.32 2.66-2.03l.32-.26.35-.28.68-.54c.48-.36.97-.74 1.46-1.07 3.91-2.74 8.42-4.8 13.26-5.8.3-.07.61-.12.91-.17l.49-.09.42-.06c.55-.09 1.13-.17 1.76-.24 1.22-.16 2.4-.23 3.61-.3 1.2-.04 2.41-.08 3.62-.03 1.21.04 2.42.12 3.62.25 1.2.12 2.4.31 3.6.53 1.19.22 2.38.48 3.55.81 1.17.32 2.33.68 3.47 1.09 1.14.42 2.25.89 3.36 1.37l-.19-.07c.67.25 1.2.49 1.78.75.57.26 1.12.52 1.67.8 1.1.54 2.17 1.16 3.22 1.78.53.31 1.04.64 1.55.97.52.32 1.01.69 1.51 1.04.5.34.99.71 1.47 1.09s.97.74 1.42 1.15l1.38 1.2 1.31 1.28c.44.42.83.9 1.23 1.35.4.46.82.89 1.18 1.39.37.48.75.96 1.1 1.45.35.5.66 1.02.98 1.53l.48.76c.14.26.27.54.41.81.27.54.53 1.07.78 1.61l-1.28-1.24c-.41-.42-.85-.81-1.29-1.19s-.86-.77-1.31-1.13c-.47-.35-.92-.71-1.36-1.06-.43-.37-.93-.68-1.39-1.01-.47-.32-.92-.66-1.42-.95l-1.43-.92-1.47-.86c-.48-.3-.99-.55-1.49-.82-.5-.26-.99-.54-1.5-.78-.51-.25-1-.51-1.52-.74l-1.53-.7c-1.03-.45-2.07-.87-3.11-1.28-.52-.2-1.04-.39-1.57-.57-.51-.18-1.07-.35-1.51-.49l-.19-.07c-1.02-.36-2.03-.71-3.07-1.01-1.03-.3-2.06-.59-3.11-.83s-2.1-.46-3.15-.64c-1.06-.19-2.12-.32-3.19-.44-1.07-.13-2.14-.21-3.21-.26-1.08-.05-2.15-.08-3.23-.08-1.07.01-2.17.05-3.23.1-.51.02-1.07.06-1.65.11l-.43.04-.36.04-.79.09c-4.19.51-8.35 1.76-12.36 3.58l-1.48.69-1.54.78c-1.07.53-2.16 1.01-3.26 1.43-1.09.44-2.23.77-3.35 1.08-1.14.3-2.28.54-3.44.69z"/><path d="m763.71 426.87s-.49 1.03-.99 2.83c-.51 1.79-1.03 4.36-.94 7.29.05 1.46.24 3 .63 4.57s.98 3.15 1.73 4.74c.38.79.82 1.58 1.27 2.37.52.83 1.05 1.66 1.58 2.51 1.14 1.81 2.26 3.68 3.33 5.58 1.06 1.92 2.1 3.85 3.02 5.82.95 1.95 1.79 3.93 2.54 5.88s1.38 3.88 1.9 5.74c.51 1.86.9 3.66 1.17 5.33.26 1.68.42 3.23.46 4.61s.01 2.59-.09 3.58c-.08.99-.23 1.76-.32 2.27-.1.52-.17.79-.17.79s-.1-.26-.29-.75c-.17-.49-.47-1.2-.82-2.08-.72-1.76-1.81-4.19-3.23-7.01-.71-1.41-1.5-2.92-2.35-4.5-.85-1.59-1.77-3.25-2.72-4.97-1.93-3.45-3.99-7.14-6.06-10.82-1.02-1.86-2.05-3.74-3.03-5.61-.25-.47-.49-.93-.73-1.42-.26-.53-.51-1.06-.76-1.59-.48-1.07-.89-2.16-1.22-3.26-.68-2.2-1.02-4.43-1.05-6.55-.04-2.12.27-4.11.75-5.85.99-3.51 2.72-5.96 4.06-7.43.67-.75 1.29-1.25 1.69-1.58.4-.35.64-.49.64-.49z"/><path d="m695.68 546.43s.24-.31.75-.82c.52-.51 1.3-1.26 2.43-2.05 1.12-.8 2.56-1.72 4.39-2.48s4.06-1.37 6.63-1.5c.64-.05 1.3 0 1.97.01.67.02 1.35.15 2.05.23l.26.03c.07.01.03 0 .19.03l.11.02.46.09c.32.07.76.19 1.11.29.71.21 1.42.47 2.13.76 1.41.6 2.77 1.4 4.06 2.35.64.48 1.27.99 1.86 1.56.29.28.59.57.87.87l.73.76c1.74 1.79 3.77 3.33 5.94 4.5 2.18 1.15 4.51 1.89 6.9 2.03 2.38.17 4.84-.15 7.25-.95.31-.07.6-.18.9-.32l.89-.37c.59-.26 1.21-.41 1.77-.75.58-.31 1.15-.61 1.72-.91l.86-.45.82-.53c1.16-.75 2.3-1.49 3.42-2.21 1.36-.86 2.67-1.55 4.05-2.1 2.74-1.11 5.55-1.62 8.11-1.59.33.01.65.02.97.03.29.03.58.05.86.08.64.06 1.21.14 1.77.26 1.12.23 2.16.51 3.09.87 1.88.71 3.35 1.62 4.47 2.43 1.13.8 1.88 1.6 2.4 2.1.49.54.74.83.74.83s-.35-.16-1.01-.45c-.66-.28-1.63-.67-2.86-1.06s-2.75-.69-4.45-.84c-.85-.06-1.75-.09-2.69-.02-.46.03-.96.07-1.4.14-.26.04-.52.07-.78.11-.23.05-.47.1-.71.14-1.95.41-3.96 1.22-5.88 2.39-.95.58-1.93 1.27-2.78 2.01l-.72.63-.38.31-.43.35c-.58.47-1.17.95-1.77 1.43l-.9.72c-.31.23-.65.43-.99.65-.67.42-1.35.85-2.02 1.28-.66.46-1.45.76-2.18 1.15l-1.13.53c-.37.19-.76.35-1.18.48-3.17 1.26-6.81 1.84-10.44 1.61-3.63-.27-7.18-1.47-10.14-3.28l-1.11-.68-1.04-.75c-.7-.49-1.32-1.06-1.95-1.6s-1.19-1.14-1.77-1.72c-.56-.62-1.17-1.31-1.56-1.83l-.65-.84c-.17-.24-.36-.46-.54-.68-.37-.44-.76-.86-1.16-1.26-.8-.8-1.68-1.47-2.57-2.06-.45-.29-.91-.56-1.38-.79-.24-.12-.4-.2-.67-.32l-.43-.17-.11-.04c.08.02-.03-.01-.04-.02l-.19-.06c-.5-.15-.98-.36-1.47-.48-.5-.1-.99-.25-1.48-.33-1.96-.35-3.88-.34-5.6-.14-1.72.21-3.25.55-4.49.93-1.23.39-2.23.73-2.88 1.02-.64.27-1 .44-1 .44z"/><path d="m777.8 552.61s.98-.08 2.59-.34c.8-.12 1.76-.3 2.81-.55s2.2-.57 3.35-1.04c1.17-.41 2.28-1.06 3.32-1.76 1.03-.73 1.88-1.64 2.64-2.64.18-.26.31-.56.49-.83.18-.28.34-.51.49-.85.21-.48.45-1.14.62-1.76.18-.64.28-1.32.38-2.02l.06-.53.04-.56.04-.69.01-.57c.08-1.56.01-3.25-.1-4.85-.12-1.62-.35-3.19-.6-4.73-.15-.76-.29-1.52-.47-2.26-.09-.37-.17-.74-.25-1.1-.1-.36-.2-.71-.3-1.06s-.18-.71-.29-1.05-.23-.67-.33-1c-.11-.34-.21-.66-.31-.99-.12-.32-.25-.62-.36-.93-.42-1.26-.95-2.36-1.35-3.4-.47-1.02-.88-1.91-1.21-2.65-.73-1.46-1.13-2.38-1.13-2.38s.86.42 2.33 1.32c.72.47 1.53 1.1 2.48 1.85.87.81 1.9 1.72 2.85 2.87.5.56.98 1.17 1.45 1.83.49.65.95 1.35 1.38 2.1.91 1.48 1.68 3.16 2.35 4.94.33.9.62 1.83.86 2.78.12.48.24.96.36 1.45.08.49.17.99.26 1.48.33 2 .44 4.01.38 6.13l-.04.81-.06.69-.08.81c-.03.28-.07.56-.11.84-.17 1.12-.48 2.22-.87 3.31-.4 1.1-.89 2.1-1.57 3.15-.27.44-.65.91-1.01 1.33-.36.43-.72.85-1.11 1.24-1.61 1.53-3.45 2.65-5.28 3.32-1.83.61-3.59.93-5.16.91-.79.04-1.53-.05-2.23-.1-.69-.11-1.34-.18-1.94-.33-1.19-.28-2.19-.6-2.99-.94-.8-.31-1.39-.66-1.79-.87-.4-.23-.6-.38-.6-.38z"/><path d="m649.65 607.93s.65.14 1.87.36c1.21.23 3.01.49 5.28.76s5.04.44 8.14.4c1.56-.04 3.14-.19 4.97-.38 1.83-.18 3.78-.25 5.76-.34 3.99-.16 8.3-.25 12.86-.2s9.36.18 14.33.46c2.49.12 5.02.31 7.59.53 1.28.11 2.58.23 3.89.38 1.18.12 2.58.29 3.7.35 4.89.32 10.11.35 15.3.27 5.2-.03 10.44-.2 15.62-.28l3.9-.06c1.33 0 2.64.02 3.94.05 2.6.07 5.16.18 7.68.39 5.03.39 9.87 1.06 14.41 1.92 1.21.23 2.31.5 3.29.7.89.19 2.09.34 3.09.53 2.08.35 4.1.68 6.01.94 3.79.54 7.34.6 10.68 1.05 3.23.41 5.97.93 8.25 1.24 2.27.31 4.06.52 5.28.49 1.22 0 1.85-.25 1.85-.25s-.13.1-.43.24c-.29.14-.75.32-1.37.46-1.23.29-3.07.55-5.4.65-2.33.12-5.16.17-8.33.23-.8.02-1.6.05-2.41.11-.85.07-1.73.13-2.63.2-1.81.14-3.78.18-5.81.16s-4.11-.1-6.26-.2c-1.11-.05-2.07-.09-3.36-.22-1.19-.12-2.28-.29-3.31-.38-4.42-.43-9.08-.7-13.9-.79-2.41-.03-4.86-.05-7.35 0-1.24.02-2.49.07-3.72.12-1.27.06-2.55.11-3.84.17-5.18.26-10.47.44-15.79.52-5.34.03-10.66-.02-16.09-.55-1.46-.14-2.62-.3-3.99-.5-1.24-.19-2.48-.36-3.72-.53-2.49-.31-4.95-.61-7.37-.91-4.86-.55-9.58-1.06-14.06-1.52-4.48-.44-8.71-.89-12.62-1.21-.98-.07-1.93-.15-2.86-.22-.92-.06-1.83-.11-2.71-.17-1.77-.09-3.6-.19-5.24-.42-3.3-.44-6.06-1.19-8.29-1.89-2.24-.69-3.93-1.4-5.08-1.87-1.17-.48-1.75-.79-1.75-.79z"/><path d="m681.94 651.56s.41.13 1.18.36c.76.25 1.91.55 3.34.96 1.43.42 3.19.84 5.18 1.36 2 .49 4.25 1.03 6.7 1.55 2.46.52 5.11 1.05 7.93 1.52 2.81.5 5.78.89 8.85 1.28 3.08.32 6.24.65 9.47.8 3.22.19 6.5.24 9.77.21 3.27-.06 6.53-.22 9.74-.51 1.6-.16 3.19-.29 4.76-.51 1.57-.19 3.12-.4 4.63-.67.76-.12 1.51-.24 2.26-.37.75-.12 1.47-.3 2.2-.43 1.46-.29 2.89-.55 4.26-.91 1.38-.34 2.74-.62 4.03-.98 1.3-.35 2.55-.7 3.76-1.03s2.34-.73 3.44-1.05c1.1-.33 2.15-.64 3.11-.99.97-.33 1.88-.66 2.73-.93.86-.27 1.64-.53 2.33-.81 1.38-.55 2.51-.92 3.27-1.2.77-.26 1.18-.4 1.18-.4s-.33.28-.95.8c-.63.5-1.53 1.28-2.74 2.2-1.19.95-2.72 1.95-4.48 3.13-.87.61-1.86 1.15-2.88 1.75-1.03.58-2.12 1.22-3.28 1.82-1.18.57-2.41 1.16-3.68 1.77-1.28.61-2.66 1.1-4.05 1.68-1.39.6-2.87 1.03-4.38 1.54-1.5.54-3.07.93-4.66 1.35-.8.2-1.6.45-2.42.61-.82.17-1.65.33-2.48.5-.84.16-1.67.36-2.52.48s-1.71.24-2.57.36c-3.44.5-6.96.68-10.48.79-1.76-.02-3.52-.02-5.27-.09-1.75-.09-3.49-.19-5.21-.39-.86-.09-1.72-.18-2.57-.27-.85-.13-1.69-.26-2.53-.38-1.68-.23-3.31-.58-4.92-.9-3.21-.7-6.28-1.5-9.13-2.43-2.86-.9-5.5-1.93-7.9-2.95-4.8-2.06-8.58-4.2-11.12-5.86-1.29-.8-2.24-1.53-2.89-2-.68-.47-1.01-.76-1.01-.76z"/><path d="m807.69 617.86s.06.15.12.46.13.79.08 1.42-.22 1.42-.66 2.27c-.42.86-1.14 1.73-2.08 2.51-.95.78-2.13 1.47-3.46 2.05-1.34.58-2.84 1-4.46 1.35-1.64.34-3.22.6-4.99.93-1.74.28-3.58.58-5.49.9-3.8.61-7.92 1.28-12.28 1.99-1.07.19-2.15.37-3.15.59-.51.11-.97.24-1.28.35-.56.19-1.12.38-1.68.57-2.27.76-4.61 1.43-7.01 2.07-4.8 1.25-9.84 2.3-15.06 2.93-5.21.66-10.61.9-16.07.54-2.73-.21-5.47-.57-8.19-1.16-1.36-.29-2.71-.65-4.05-1.08l-1.91-.65-1.8-.64c-1.21-.44-2.35-.8-3.5-1.18-1.13-.4-2.31-.73-3.45-1.09-2.31-.67-4.59-1.29-6.84-1.78-2.25-.5-4.47-.87-6.66-1.14-2.21-.28-4.31-.34-6.74-.57-.29-.02-.62-.07-.93-.11l-.5-.07-.4-.07c-.52-.09-1.16-.22-1.69-.33-1.1-.23-2.16-.48-3.2-.76-2.08-.55-4.06-1.15-5.95-1.8-3.78-1.27-7.17-2.8-9.97-4.71-.7-.52-1.35-1.01-1.89-1.48-.57-.47-1.12-.94-1.63-1.42-1.04-.94-1.96-1.86-2.72-2.77-1.54-1.81-2.29-3.54-2.69-4.69-.19-.59-.31-1.04-.37-1.35-.07-.31-.1-.47-.1-.47s.07.14.22.43c.13.28.37.68.67 1.2.62 1.02 1.72 2.39 3.39 3.77.84.69 1.84 1.36 2.98 2.05.58.34 1.18.7 1.8 1.07.64.4 1.27.72 1.9 1.05 2.65 1.24 5.97 2.14 9.64 2.93 1.84.38 3.78.71 5.79.98 1.98.25 4.16.58 6.03.58 2-.02 4.45-.1 6.88 0 2.45.08 4.95.36 7.45.74 2.51.36 5 .92 7.5 1.53 1.24.33 2.49.62 3.75 1 1.26.36 2.54.74 3.72 1.13l1.82.59 1.73.53c1.11.32 2.24.59 3.39.84 2.3.48 4.69.78 7.1.94 4.83.36 9.78.16 14.65-.28 4.87-.48 9.68-1.22 14.3-2.15 2.31-.45 4.57-.98 6.77-1.51.55-.14 1.1-.28 1.64-.41.79-.2 1.45-.31 2.07-.39 1.24-.17 2.38-.28 3.52-.36 4.51-.34 8.68-.47 12.56-.61 1.93-.07 3.79-.14 5.55-.2 1.75-.04 3.41-.08 4.97-.12 2.99-.14 5.56-.66 7.41-1.62s2.86-2.39 3.2-3.51c.18-.55.24-1.01.27-1.32 0-.32-.02-.49-.02-.49z"/><path d="m696.91 550.97s-.23.02-.66.01c-.42-.02-1.06-.02-1.85-.13-1.58-.19-3.84-.64-6.41-1.71-1.29-.54-2.65-1.23-4.03-2.13-1.37-.9-2.76-2-4.04-3.37-1.29-1.35-2.46-2.98-3.38-4.81s-1.55-3.88-1.84-5.96c-.14-1.04-.19-2.09-.17-3.12v-.39-.19-.05c0-.06 0 .42 0 .21v-.02-.11c0-.29 0-.52.01-.77.03-.48.06-.95.11-1.42.16-1.85.5-3.64.96-5.35.46-1.7 1.05-3.32 1.76-4.8s1.54-2.81 2.42-3.96c.89-1.14 1.82-2.09 2.72-2.83.92-.73 1.77-1.27 2.52-1.63.74-.37 1.35-.57 1.76-.69.42-.12.64-.17.64-.17s-.13.19-.36.55c-.25.33-.56.87-.93 1.51-.74 1.3-1.58 3.16-2.18 5.43-.31 1.13-.58 2.37-.79 3.69-.23 1.31-.38 2.72-.51 4.18-.13 1.45-.18 2.97-.21 4.49 0 .38 0 .76.01 1.12l.02 1.24c-.01.68.08 1.34.14 2.01.16 1.32.49 2.6.96 3.84s1.11 2.44 1.82 3.59c.73 1.14 1.56 2.23 2.42 3.25.87 1.01 1.76 1.96 2.64 2.81 1.75 1.71 3.39 3.11 4.56 4.1 1.17 1.01 1.89 1.58 1.89 1.58z"/><path d="m656.91 604.58s.5-.36 1.49-.96c.99-.59 2.44-1.48 4.36-2.47 1.91-.99 4.26-2.18 7.04-3.34 2.77-1.18 5.94-2.44 9.49-3.57 3.54-1.15 7.44-2.26 11.64-3.13 4.2-.88 8.7-1.58 13.4-1.96 4.7-.39 9.6-.45 14.58-.11 1.24.09 2.49.22 3.74.33 1.25.14 2.5.31 3.75.49l3.75.66c.59.11 1.03.19 1.56.26.51.07 1.02.12 1.52.14 1 .05 1.98.05 2.93-.06.24-.03.47-.06.7-.1l.9-.15 1.9-.29c2.51-.37 5.02-.59 7.51-.73 4.98-.3 9.88-.14 14.59.31 4.71.47 9.22 1.27 13.41 2.34 4.19 1.06 8.06 2.39 11.53 3.83 3.48 1.41 6.54 2.98 9.17 4.48 2.65 1.46 4.82 2.98 6.59 4.21 1.76 1.26 3.08 2.33 3.96 3.07.88.75 1.35 1.14 1.35 1.14s-.56-.26-1.6-.75c-1.02-.52-2.57-1.18-4.5-2.06-1.96-.83-4.33-1.81-7.09-2.81-2.76-.98-5.9-1.98-9.35-2.9-3.46-.9-7.24-1.66-11.26-2.27-4.02-.62-8.28-1.01-12.69-1.17-4.41-.15-8.97-.04-13.56.34-2.3.2-4.6.49-6.9.83l-1.7.28-.9.16c-.37.07-.74.12-1.1.17-1.47.18-2.94.22-4.37.12-.72-.05-1.42-.12-2.12-.22-.68-.09-1.44-.23-2.04-.36-1.15-.21-2.29-.43-3.43-.64-1.15-.18-2.3-.35-3.44-.53-1.15-.13-2.3-.29-3.44-.41-4.59-.47-9.15-.61-13.58-.56-4.43.08-8.73.37-12.8.81-4.07.45-7.93 1-11.47 1.65-3.54.67-6.79 1.34-9.66 2.03-2.86.71-5.36 1.34-7.41 1.93-2.04.6-3.66 1.06-4.75 1.42-1.11.36-1.7.55-1.7.55z"/><path d="m638.38 460.17c-9.44 0-19.8-.99-30.02-3.86-.95-.27-1.69-1.03-1.93-1.99s.06-1.97.78-2.66c.36-.34 8.96-8.42 22.19-13.58 17.69-6.9 35.16-5.18 50.54 4.98 1.01.58 8.4 5.01 10.4 11.5.23.75.13 1.56-.27 2.23s-1.07 1.14-1.84 1.28c-.21.04-5.27.98-11.86-.57-3.11-.73-6.16-.81-9.08-.23-6.75 1.35-17.1 2.9-28.91 2.9zm-23.26-7.85c21.1 4.53 42.44 1.29 51.09-.43 3.7-.74 7.54-.64 11.42.27 2.11.5 4.03.69 5.58.73-1.98-2.45-4.79-4.36-6.05-5.07-.06-.03-.12-.07-.18-.11-26.5-17.57-52.12-2.6-61.86 4.61z"/><path d="m675.07 464.66s-.15.43-.59 1.09c-.22.32-.5.72-.87 1.12-.36.42-.81.85-1.32 1.3-.52.42-1.11.88-1.77 1.27-.65.43-1.38.78-2.15 1.14-.38.2-.79.31-1.19.47-.41.14-.82.32-1.25.42-.85.21-1.72.47-2.6.58-.88.1-1.77.26-2.64.25-.87.02-1.73.06-2.55-.04-.82-.08-1.61-.16-2.36-.28-.74-.16-1.43-.32-2.07-.49-.32-.09-.62-.17-.9-.26-.28-.11-.55-.21-.8-.31-.5-.19-.93-.39-1.28-.55-.7-.32-1.09-.55-1.09-.55s.45-.11 1.2-.24c.38-.06.83-.14 1.35-.19.51-.05 1.09-.13 1.71-.22.62-.08 1.29-.15 1.99-.21.7-.08 1.43-.19 2.18-.25.75-.04 1.51-.21 2.29-.28s1.55-.22 2.33-.33c.79-.07 1.54-.29 2.31-.39.75-.16 1.5-.32 2.22-.47.71-.19 1.42-.33 2.06-.53.67-.16 1.27-.37 1.86-.55.56-.2 1.12-.35 1.59-.54.48-.18.9-.35 1.24-.48.69-.29 1.1-.48 1.1-.48z"/><path d="m680.59 439.44s-.34-.05-.96-.23c-.61-.18-1.53-.45-2.63-.94-1.1-.45-2.46-1.15-3.86-1.95-1.41-.76-3.02-1.51-4.82-2.25-3.59-1.45-7.92-2.66-12.61-3.15l-.86-.08-.95-.07c-.63-.05-1.19-.08-1.81-.11-1.23-.06-2.48-.06-3.73-.06-2.51.05-5.06.19-7.58.54-2.53.31-5.04.78-7.5 1.35-.6.15-1.2.3-1.79.46-.61.17-1.3.34-1.84.52-1.12.34-2.29.73-3.41 1.14-4.49 1.64-8.49 3.75-11.78 5.85-1.64 1.05-3.13 2.08-4.4 3.06-1.26.99-2.39 1.86-3.25 2.64s-1.52 1.41-1.91 1.9c-.4.48-.56.78-.56.78s.03-.34.27-.95c.23-.6.64-1.48 1.3-2.5.65-1.03 1.49-2.22 2.56-3.52 1.06-1.31 2.34-2.73 3.86-4.16 3.04-2.86 7.06-5.77 11.86-8.02 1.19-.58 2.43-1.08 3.75-1.57.67-.26 1.25-.44 1.88-.66.67-.2 1.34-.4 2.01-.6 2.66-.76 5.42-1.3 8.21-1.67 2.79-.34 5.62-.48 8.39-.4 1.39.04 2.76.13 4.11.29.66.07 1.39.17 2.03.26l.94.15 1.02.19c5.27 1.01 9.88 3.05 13.42 5.32 1.77 1.13 3.29 2.34 4.55 3.46 1.25 1.12 2.22 2.06 3.15 2.79 1.77 1.49 2.94 2.19 2.94 2.19z"/><path d="m796.97 460.33-2.61-3.03c.66-.57.99-1.18 1.02-1.9.08-1.79-1.58-3.9-2.17-4.5l2.86-2.79c.36.36 3.46 3.66 3.3 7.47-.08 1.82-.91 3.46-2.4 4.75z"/><path d="m675.2 455.72c-1.16-2.32-1.39-4.54-.69-6.61 1.07-3.16 3.9-4.64 4.22-4.8l1.77 3.59-.89-1.79.9 1.79c-.89.46-3.63 2.24-1.73 6.04z"/><path d="m842.05 447.03s6.96 7.58 0 13.76c0 0 12.01.33 18.89-1.64 6.88-1.96-17.43-9.91-18.89-12.12z"/><path d="m628.17 443.53s-4.12 7.47 1.55 12.37c0 0-15.61-.09-19.66-1.98s18.11-10.39 18.11-10.39z"/><path d="m785.92 403.42c-2.17.87-3.72 2.81-4.17 5.1-.98 4.95-1.89 13.19 2.92 13.19 6.87 0 46.59-11.62 59.98-7.67 10.79 3.18 27.11 6.67 37.03 15.43 1.49 1.32 3.75-.18 3.09-2.06-3.53-10.05-12.71-25.28-37.23-30.1-3.27-.32-37.86-3.47-61.62 6.11z"/><path d="m688.9 395.05s3.83 15.14-1.43 18.09-33.85-6.4-63.89-1.97c0 0-23.15 5.45-32.93 19.56-1.19 1.71-3.94.93-3.92-1.13.13-9.65 4.08-26.12 27.69-34.19.01.01 56.33-8.79 74.48-.36z"/><path d="m734.44 803.39c-7.13 0-17.81-.5-29.72-2.75-28.2-5.33-49.72-18.08-62.23-36.86-4-6.01-8.86-12.25-14.86-19.09-9.66-11-23.54-27.3-34.87-42.51-2.28-2.91-42.64-55.25-45.84-113.37-.67-5.06-9.24-73.34 7.03-126.93 1.87-6.16 3.54-12.88 5.1-20.54 3.36-16.47 5.09-28.81 4.87-34.73l-.02-.59.12-.58c.05-.26 5.22-26.21 6.44-42.72.81-10.98 2.37-21.43 4.62-31.07 1.29-5.53 2.61-10.58 3.92-15.03 4.21-14.3 14.48-25.94 28.18-31.95 37.86-16.6 138.66-49.23 256.62 6.25 9.08 4.27 16.09 11.82 19.74 21.27 6.09 15.77 13.39 39.22 13.55 61.39.02 3.28.16 6.69.41 10.43.84 12.48 3.17 42.89 6.59 55.53l.08.32c.86 4.26 20.84 104.99 9.93 154.62-.98 4.47-1.7 7.9-2.31 11.13-6.57 34.38-17.4 64.33-32.18 89.01-1.16 1.94-2.47 3.96-4.13 6.34-4.75 6.83-16.84 24.04-26.58 36.22-4.97 6.22-9.27 12.12-13.13 18.03-9.39 14.38-37.19 47.79-92.44 47.88-.92.08-4.11.3-8.89.3zm-160.52-396.55c.14 7-1.57 19.27-5.08 36.49-1.63 7.97-3.37 14.99-5.33 21.45-15.9 52.39-6.75 122.2-6.66 122.89l.04.4c2.97 55.5 43.37 107.46 43.77 107.98l.08.1c11.14 14.95 24.85 31.06 34.4 41.93 6.3 7.17 11.42 13.76 15.67 20.14 26.78 40.2 91.19 34.95 91.84 34.88l.44-.02c48.69 0 73.7-27.16 84.28-43.35 4.04-6.19 8.52-12.34 13.7-18.81 9.55-11.94 21.48-28.92 26.17-35.67 1.53-2.2 2.72-4.04 3.77-5.78 21.37-35.67 28.57-73.36 30.94-85.75.63-3.32 1.36-6.83 2.37-11.4 10.27-46.73-9.03-145.79-9.93-150.35-3.51-13.1-5.81-41.5-6.88-57.31-.27-3.95-.41-7.55-.43-11.03-.16-21.75-8.14-45.59-12.88-57.86-2.72-7.03-7.93-12.65-14.67-15.82-114.26-53.73-211.74-22.19-248.35-6.14-10.99 4.82-19.23 14.16-22.6 25.61-1.25 4.26-2.52 9.13-3.77 14.47-2.13 9.14-3.61 19.08-4.38 29.54-1.2 15.99-5.72 39.4-6.51 43.41z"/><path d="m545.7 594.14c-4.74 0-8.95-1.38-12.56-4.14-7.97-6.07-10.74-17.14-11.66-25.36-.22-1.95-.74-4.05-1.6-6.41-2.9-7.97-3.54-23.95-1.95-48.84.06-.95.1-1.59.11-1.85 0-.29-.02-1.07-.05-2.18-.12-5.02-.37-15.48.05-23.95l.08-1.63c.49-10.48 1.22-26.31 15.86-30.65 4.81-1.43 12.25-1.11 20.36 8.55 4.22 5.03 6.8 10.47 6.91 10.7l-9.05 4.26 4.52-2.13-4.52 2.14c-2.51-5.29-9.56-15.65-15.37-13.93-7.27 2.16-8.2 10.29-8.72 21.53l-.08 1.67c-.4 8.1-.15 18.69-.04 23.21.03 1.22.05 2.09.05 2.48 0 .36-.03.84-.13 2.43-1.85 28.85-.28 40.28 1.36 44.78 1.13 3.11 1.84 5.96 2.15 8.71.98 8.75 3.82 15.5 7.79 18.52 2.42 1.85 5.41 2.46 9.13 1.87l1.56 9.88c-1.44.23-2.84.34-4.2.34z"/><path d="m525.16 464.66s.26.04.73.18c.48.14 1.17.36 2.03.72.84.38 1.88.85 2.98 1.52 1.15.63 2.3 1.5 3.6 2.45 1.2 1.03 2.57 2.14 3.78 3.5.63.67 1.29 1.35 1.89 2.1.61.75 1.18 1.54 1.79 2.34.64.78 1.13 1.66 1.68 2.54.53.88 1.1 1.76 1.59 2.68.45.94.94 1.88 1.37 2.85.44.96.9 1.92 1.24 2.93.34 1 .69 2 1.03 3 .17.5.35.99.49 1.5.12.51.24 1.01.36 1.52.25 1.01.47 2.01.67 3 .1.5.21.99.31 1.48.08.49.12.99.18 1.48.23 1.95.41 3.84.52 5.62 0 1.8-.04 3.49-.11 5.04-.04.78-.09 1.52-.13 2.22-.1.71-.19 1.38-.3 2-.2 1.25-.41 2.34-.6 3.23-.38 1.78-.68 2.78-.68 2.78s-.39-1-.93-2.73c-.27-.86-.57-1.9-.88-3.09-.15-.59-.31-1.22-.47-1.89-.2-.66-.41-1.34-.63-2.06-.42-1.43-.83-2.98-1.23-4.61-.49-1.61-1.03-3.29-1.5-5.03-.42-1.76-1.17-3.47-1.68-5.28l-.42-1.35-.5-1.32c-.33-.88-.65-1.77-.98-2.66-.28-.91-.67-1.77-1.04-2.63-.38-.86-.71-1.74-1.06-2.6-.82-1.65-1.52-3.36-2.33-4.92-.41-.78-.83-1.55-1.2-2.32-.37-.78-.85-1.46-1.23-2.19-.77-1.46-1.65-2.72-2.39-3.99-.82-1.18-1.53-2.35-2.26-3.29-.69-1-1.35-1.81-1.88-2.53-.56-.67-.99-1.26-1.31-1.6-.33-.39-.5-.59-.5-.59z"/><path d="m892.11 773.3-1.37 3.03c-2.26-9.11-3.39-18.45-3.36-27.83.13-37.12-3.83-81.38-3.87-81.88l9.96-.9c.05.5 4.07 45.48 3.91 83.21-.03 8.41-1.82 16.71-5.27 24.37z"/><path d="m552.84 749.33c-3.05-42.5 3.78-111.53 4.12-114.84l9.95 1c-.08.83-7.54 76.13-3.77 117.15.73 7.95.07 15.96-1.9 23.7-4.81-8.25-7.71-17.49-8.4-27.01z"/><path d="m918.07 607.16c-2.56 0-5.58-.55-9.14-1.97l3.7-9.29c2.18.87 6.13 2.08 8.12.48 1.89-1.52 2.68-5.76 1.92-10.31-1.37-8.21.11-19.08 1.3-27.81.27-2 .53-3.89.73-5.58.6-5.15-1.45-17.07-2.94-25.77-.85-4.97-1.53-8.9-1.72-11.36-.2-2.58.21-6.27.73-10.95.98-8.79 2.32-20.84-.41-27.81-1.08-2.76-2.54-3.32-3.01-3.5-2.65-1.02-6.55.41-7.71.99l-4.55-8.9c.85-.44 8.5-4.19 15.77-1.45 2.79 1.05 6.58 3.51 8.82 9.22 3.63 9.27 2.13 22.73 1.03 32.56-.43 3.82-.83 7.43-.7 9.08.15 2 .86 6.1 1.6 10.44 1.69 9.82 3.79 22.05 3.02 28.63-.21 1.75-.47 3.69-.75 5.76-1.1 8.06-2.46 18.1-1.34 24.82 1.41 8.44-.65 15.82-5.5 19.74-1.94 1.54-4.84 2.98-8.97 2.98z"/><path d="m926.28 479.56s-.21.13-.53.38-.79.64-1.3 1.19c-.53.51-1.09 1.21-1.67 1.99-.27.4-.57.83-.87 1.28-.26.49-.55.98-.84 1.49-.3.49-.52 1.1-.79 1.66-.13.29-.27.57-.41.86-.11.31-.23.63-.34.95-.22.64-.5 1.25-.73 1.92-.18.7-.41 1.38-.62 2.08-.49 1.37-.7 2.95-1.16 4.42-.31 1.54-.61 3.13-.95 4.7-.26 1.61-.49 3.23-.81 4.81-.24 1.6-.43 3.2-.7 4.75-.29 1.54-.48 3.06-.68 4.5-.22 1.44-.47 2.81-.72 4.09-.23 1.28-.4 2.46-.62 3.51-.21 1.05-.42 1.97-.61 2.74-.39 1.53-.69 2.42-.69 2.42s-.38-.83-.92-2.32c-.27-.74-.56-1.65-.88-2.7-.3-1.05-.65-2.24-.93-3.55-.24-1.31-.46-2.75-.66-4.27-.11-.76-.18-1.54-.27-2.35-.11-.8-.06-1.63-.1-2.47-.03-.84-.02-1.7-.01-2.56.01-.87-.02-1.75.08-2.63.16-1.78.4-3.58.65-5.39.43-1.8.81-3.6 1.35-5.34.3-.87.63-1.73.96-2.56.16-.42.33-.84.49-1.25.18-.41.41-.8.62-1.2.42-.79.82-1.56 1.26-2.3.47-.72.98-1.42 1.47-2.08.25-.33.49-.65.74-.96.28-.3.55-.6.83-.87.57-.55 1.03-1.12 1.63-1.56.59-.45 1.13-.88 1.66-1.26.58-.35 1.13-.66 1.64-.93.5-.29 1.06-.46 1.52-.64.46-.19.92-.3 1.33-.38.4-.1.76-.16 1.1-.17.32-.02.58-.05.81-.04.45-.01.67.04.67.04z"/><path d="m917.31 467.94-9.97-.72c.04-.5 3.65-50.77 2.96-89.17-.43-23.98-6.6-47.68-17.84-68.55-9.76-18.12-20.52-32.09-31.99-41.53-5.33-4.38-10.77-9.51-16.63-15.67-15.59-16.37-57.76-54.52-112.51-55.28l-.18-.01c-.63-.03-63.82-2.46-109.22 48.39-4.7 5.26-9.09 9.81-13.42 13.91-8.72 8.24-25.5 25.25-39.88 46.59-14.1 20.93-22.97 45.6-25.65 71.35-2.4 23.1-3.86 54.88 2.85 75.09l-9.49 3.15c-7.26-21.9-5.8-55.19-3.3-79.27 2.85-27.37 12.29-53.62 27.3-75.9 14.92-22.14 32.28-39.75 41.3-48.27 4.12-3.9 8.32-8.25 12.83-13.3 25.44-28.5 55.88-41.05 76.93-46.55 22.17-5.8 38.58-5.24 40.15-5.17 58.5.86 103.07 41.11 119.53 58.38 5.58 5.86 10.74 10.72 15.75 14.84 12.47 10.27 24.06 25.24 34.43 44.51 11.99 22.26 18.57 47.54 19.03 73.11.7 38.86-2.95 89.57-2.98 90.07z"/><path d="m822.58 463.35c-7.51 0-13.62-6.11-13.62-13.62 0-3.77 1.58-7.41 4.35-9.98l2.04 2.2c-2.15 2-3.39 4.84-3.39 7.78 0 5.86 4.77 10.62 10.62 10.62s10.62-4.77 10.62-10.62c0-2.45-.81-4.76-2.35-6.66l2.34-1.88c1.94 2.41 3.01 5.45 3.01 8.55 0 7.5-6.11 13.61-13.62 13.61z"/><path d="m658.33 457.27-1.91-2.31c2.45-2.03 3.85-5.01 3.85-8.19 0-3.38-1.55-6.48-4.26-8.5l1.8-2.4c3.47 2.6 5.46 6.57 5.46 10.9 0 4.08-1.8 7.9-4.94 10.5z"/><path d="m641.56 457.75c-3.47-2.56-5.54-6.66-5.54-10.97s2.07-8.4 5.54-10.97l1.78 2.41c-2.7 2-4.32 5.19-4.32 8.55s1.62 6.56 4.32 8.55z"/></g><circle cx="643.49" cy="443.69" fill="#fff" r="2.8"/><circle cx="648.17" cy="448.85" fill="#fff" r="1.29"/><circle cx="816.61" cy="447.67" fill="#fff" r="2.8"/><circle cx="821.28" cy="452.84" fill="#fff" r="1.29"/><g fill="#221407"><path d="m684.99 414.47c-.31-.49.41-1.45 1.26-2.94.87-1.48 1.86-3.57 2.53-6.07.68-2.51 1.01-4.98 1.4-6.82.38-1.84.82-3.03 1.37-3.05s1.11 1.13 1.45 3.08c.33 1.94.46 4.75-.36 7.84-.83 3.1-2.59 5.62-4.29 6.91-1.7 1.33-3.1 1.5-3.36 1.05z"/><path d="m689.04 409.92c-.39-.4-.27-1.2.1-2.21s.97-2.22 1.65-3.55c.68-1.32 1.32-2.52 1.93-3.4.6-.88 1.19-1.45 1.74-1.36.54.08.94.85 1 2.08.06 1.22-.27 2.88-1.1 4.51-.84 1.63-2 2.86-3.03 3.52-1.05.68-1.91.79-2.29.41z"/><path d="m669.89 410.41c.65-.93 3.83.21 7.7.96 3.85.83 7.22 1.03 7.45 2.14.09.53-.72 1.2-2.23 1.65-1.5.45-3.69.6-6.03.13-2.34-.48-4.29-1.49-5.49-2.49-1.21-1-1.69-1.93-1.4-2.39z"/><path d="m641.4 391.46c.03-1.09 10.68-1.68 23.74-.62 13.06 1.04 23.48 3.31 23.34 4.39-.14 1.11-10.71.63-23.66-.4-12.95-1.05-23.45-2.25-23.42-3.37z"/><path d="m597.69 407.19c-.35-.44.86-2.11 2.82-4.88 1.01-1.37 2.25-3.04 4-4.73.88-.84 1.89-1.68 3.07-2.41 1.18-.74 2.53-1.32 3.89-1.73 2.76-.82 5.3-1.04 7.58-1.23 2.29-.17 4.37-.19 6.1-.11 3.48.17 5.6.7 5.6 1.24 0 .56-2.1 1.03-5.44 1.58-1.67.27-3.64.59-5.84.94-2.19.38-4.61.72-6.85 1.39-2.26.65-4.04 1.74-5.68 3.07-1.63 1.31-3.05 2.73-4.34 3.87-2.54 2.36-4.57 3.43-4.91 3z"/><path d="m627.24 394.83c-.36-.4-.36-1.11.16-1.87.5-.75 1.54-1.5 2.86-1.77 1.31-.28 2.57-.02 3.33.47.78.48 1.07 1.13.9 1.64-.17.53-.7.88-1.31 1.15-.62.27-1.32.49-2.1.65-.78.17-1.51.26-2.18.26-.66-.01-1.28-.11-1.66-.53z"/><path d="m612.51 408.63c.83.7-2.08 5.48-7.22 9.92-5.13 4.46-10.27 6.66-10.85 5.73-.6-.95 3.36-4.52 8.23-8.76 4.89-4.21 8.99-7.62 9.84-6.89z"/><path d="m589.59 424.5c-.55-.03-1-1.28-1.18-3.33-.17-2.04-.07-4.98 1.04-8.13 1.11-3.17 3.18-5.64 5.08-6.83 1.9-1.23 3.38-1.25 3.59-.77.25.52-.63 1.41-1.68 2.86-1.07 1.44-2.31 3.53-3.22 6.09-.91 2.58-1.45 5.14-1.99 7.04-.53 1.9-1.08 3.11-1.64 3.07z"/><path d="m631.09 406.58c-.06-.52 2.13-1.28 5.75-1.31 3.62-.09 8.49.76 13.59 1.63 5.1.83 9.82 1.32 13.26 1.86 3.44.52 5.57 1.09 5.55 1.65-.02.55-2.18.98-5.69 1.18-3.5.18-8.39.14-13.76-.73-5.35-.92-9.87-2.15-13.2-2.76-3.32-.69-5.45-.95-5.5-1.52z"/><path d="m606.69 392.81c-.22-1.06 5.44-3.05 12.72-2.98 7.28.03 12.91 2.1 12.68 3.16-.22 1.11-5.87.87-12.71.84-6.83-.07-12.48.1-12.69-1.02z"/><path d="m600.98 403.54c-.53-.15-.87-.82-.86-1.84 0-1.01.39-2.34 1.23-3.57s1.93-2.09 2.87-2.46c.94-.38 1.69-.31 2.03.12.34.44.23 1.14-.09 1.94s-.85 1.7-1.49 2.65-1.29 1.77-1.91 2.37c-.63.58-1.25.94-1.78.79z"/><path d="m647.25 391.27c.03 1.11-1.54 2.06-3.42 2.58-1.89.5-3.71.47-4.25-.5-.53-.96.81-2.71 3.2-3.36 2.4-.65 4.45.19 4.47 1.28z"/><path d="m634.53 392.17c.17-.53.51-.94.84-1.24.34-.3.68-.47 1.04-.47s.7.18 1.05.47c.34.3.67.71.85 1.24.17.52.1 1.08-.24 1.53-.33.45-.95.76-1.65.77-.7 0-1.31-.32-1.65-.76-.34-.47-.41-1.02-.24-1.54z"/><path d="m648.61 394.57c-.03 1.1-4.14 1.86-9.15 1.38-5.01-.47-8.9-2-8.72-3.08.18-1.1 4.23-1.36 9.1-.9 4.87.47 8.81 1.49 8.77 2.6z"/><path d="m652.39 391.84c.05 1.1-3.97 2.17-8.98 2.05-5.01-.11-8.98-1.36-8.88-2.45.1-1.11 4.11-1.65 8.97-1.55 4.87.12 8.85.84 8.89 1.95z"/><path d="m784.61 420.26c-.11.24-.46.38-1.02.31-.56-.06-1.31-.38-2.07-1.01-1.54-1.25-2.78-3.77-2.92-6.57-.12-2.73.41-4.88.8-6.38.42-1.5.82-2.46 1.38-2.52.54-.06 1.16.94 1.45 2.63.32 1.68.26 3.92.36 6.05.12 2.07.59 3.82 1.11 5 .51 1.19 1.15 1.96.91 2.49z"/><path d="m782.37 409.36c-1.08-.17-1.64-2.28-.71-4.53.92-2.25 2.8-3.35 3.69-2.71.91.64.73 2.45.01 4.24-.74 1.78-1.89 3.19-2.99 3z"/><path d="m821.49 410.5c.45.97-7.09 5.34-17.38 8.16-10.28 2.85-19 2.97-19.11 1.9-.14-1.13 8.1-2.99 18.04-5.76 9.96-2.71 17.99-5.34 18.45-4.3z"/><ellipse cx="827.23" cy="412.41" rx="13.04" ry="2" transform="matrix(.9732 -.23 .23 .9732 -72.6755 201.3098)"/><path d="m844.45 401.09c-.12-.51 1.27-1.42 3.83-1.99 1.28-.3 2.83-.46 4.57-.45 1.73.04 3.64.26 5.59.74 1.94.5 3.73 1.22 5.27 2.02 1.53.82 2.82 1.71 3.8 2.57 1.97 1.73 2.77 3.19 2.42 3.58-.78.85-5.62-2.63-12.47-4.3-6.82-1.8-12.73-1.05-13.01-2.17z"/><path d="m829.7 395.78c.06-1.1 6.77-1.6 14.98-1.12 2.04.13 4 .25 5.91.6 1.89.34 3.65 1.03 4.9 1.87 1.27.83 2.09 1.73 2.54 2.43.45.71.54 1.21.35 1.39-.42.4-1.83-.54-4.14-1.28-1.16-.38-2.5-.64-4.15-.75-1.62-.12-3.59-.13-5.65-.26-8.2-.49-14.81-1.78-14.74-2.88z"/><path d="m837.24 395.26c-.05 1.13-3.74 1.84-7.91 3.27-4.2 1.37-7.56 3.03-8.28 2.16-.33-.43.13-1.45 1.35-2.64 1.21-1.19 3.21-2.48 5.66-3.31 2.45-.82 4.83-.99 6.51-.77 1.69.21 2.68.75 2.67 1.29z"/><path d="m869.44 404.27c-.42.38-1.38.03-2.68-.57-1.3-.61-2.98-1.43-4.89-2.18-1.92-.74-3.72-1.26-5.09-1.68-1.36-.43-2.31-.82-2.36-1.38-.05-.53.86-1.16 2.51-1.44 1.64-.29 4-.14 6.38.78s4.23 2.4 5.24 3.72c1.04 1.31 1.29 2.39.89 2.75z"/><path d="m875.33 412.12c.86-.67 3.8 1.67 5.93 5.62 2.14 3.95 2.49 7.69 1.46 8.04-1.06.37-3-2.51-4.97-6.14-1.96-3.63-3.3-6.84-2.42-7.52z"/><path d="m846.54 409.29c.47-1 7.42 1.27 15.53 5.06 4.02 1.86 7.76 3.85 10.11 5.9 2.38 2.02 3.28 3.82 2.89 4.17-.42.4-1.94-.58-4.46-1.82-2.5-1.28-6.13-2.73-10.23-4.63-8.11-3.79-14.31-7.68-13.84-8.68z"/><path d="m819.97 396.73c.26.45-1.26 1.94-4.39 3.03-1.55.55-3.45.97-5.56 1.22-2.1.25-4.39.34-6.74.37-4.67.04-8.69.24-11.54.82-2.86.53-4.61 1.25-4.95.77-.31-.41 1.03-2.1 4.09-3.46 1.51-.68 3.41-1.23 5.52-1.58s4.43-.5 6.82-.54c4.74-.04 8.8 0 11.73-.35 2.91-.3 4.75-.8 5.02-.28z"/><path d="m836.55 395.24c.23 1.07-3.79 2.82-9.05 3.31-5.26.5-9.53-.48-9.5-1.57.02-1.12 4.12-1.94 9.13-2.41s9.19-.43 9.42.67z"/><path d="m602.56 401.77c-.92-.61-.29-3.19 1.42-5.75 1.7-2.57 3.83-4.15 4.75-3.54s.29 3.19-1.42 5.75c-1.7 2.57-3.83 4.16-4.75 3.54z"/><path d="m877.96 417.65c-1.06.39-3.06-2.51-5.5-5.88-2.4-3.39-4.5-6.22-3.79-7.1.35-.41 1.39-.21 2.73.6 1.33.81 2.94 2.25 4.32 4.17 1.37 1.92 2.22 3.91 2.56 5.43.33 1.54.19 2.58-.32 2.78z"/><path d="m889.11 620.98c-.43-.38-.11-1.48.15-3.26.15-.9.32-2 .65-3.32.17-.65.39-1.37.71-2.11s.76-1.52 1.27-2.21c1.04-1.38 2.22-2.4 3.28-3.19 1.07-.8 2.03-1.4 2.84-1.89 1.61-.96 2.66-1.55 3.12-1.21.44.32.06 1.68-1.22 3.31-1.23 1.65-3.32 3.41-4.8 5.37-.73.97-1.21 1.98-1.7 3.12-.48 1.11-.95 2.23-1.5 3.14-.54.91-1.14 1.6-1.66 1.97-.51.38-.93.45-1.14.28z"/><path d="m887.02 621.33c-.55-.04-1.01-.69-1.21-1.74-.21-1.05-.14-2.51.34-4.01s1.27-2.73 2.05-3.46c.78-.74 1.53-1 2-.72.94.6.55 2.89-.23 5.4-.82 2.49-1.83 4.58-2.95 4.53z"/><path d="m881.4 625.4c-1.05-.33-1.31-2.5-.57-4.85s2.19-3.99 3.24-3.66 1.31 2.5.57 4.85-2.19 3.99-3.24 3.66z"/><path d="m876.25 635.43c-1.09-.03-1.86-3.43-.96-7.47.89-4.04 3.03-6.79 4.03-6.36 1.03.43.67 3.58-.12 7.23-.83 3.64-1.83 6.64-2.95 6.6z"/><path d="m885.04 619.25c-.53.16-1.07.11-1.51-.19-.44-.29-.75-.83-.77-1.46s.26-1.19.68-1.5c.42-.33.96-.41 1.49-.28.54.13.98.42 1.3.72s.52.61.53.95c.01.33-.17.66-.47.98-.3.3-.72.62-1.25.78z"/><path d="m868.4 650.81c-.96-.62 1.17-5.42 2.63-11.53 1.54-6.09 1.89-11.33 3.03-11.43.54-.04 1.16 1.29 1.47 3.56.31 2.26.22 5.45-.61 8.83-.84 3.38-2.25 6.25-3.57 8.11s-2.49 2.75-2.95 2.46z"/><path d="m859.64 651.53c-.63-.94 2.4-3.92 4.13-8.44.86-2.17 1.41-4.67 2.33-6.41.89-1.76 1.98-2.56 2.44-2.28.49.29.38 1.4.28 3.08-.07.85-.15 1.87-.31 3.06-.17 1.18-.44 2.58-1.01 4.02-1.12 2.86-3.04 4.96-4.65 6.07-1.64 1.13-2.91 1.34-3.21.9z"/><path d="m857.94 658.09c-1.09.01-1.99-3.27-1.18-7.21.79-3.94 2.9-6.61 3.9-6.17 1.03.44.72 3.47.02 6.97-.72 3.5-1.62 6.41-2.74 6.41z"/><path d="m866.77 648.81c-1-.51-.32-3.8.58-7.66.93-3.85 1.8-7.1 2.92-7.1.55.01 1.04.89 1.29 2.35.24 1.46.2 3.5-.32 5.67s-1.39 4.02-2.27 5.21c-.87 1.2-1.71 1.76-2.2 1.53z"/><path d="m857.57 664.43c-.95.55-4.39-3.67-7.27-9.64-.72-1.49-1.33-2.94-1.83-4.28-.49-1.36-.89-2.53-1.15-3.74-.25-1.19-.19-2.33.14-3.04.32-.71.75-.93.99-.83.26.11.37.49.56.98s.48 1.11.97 1.93c.49.8 1.18 1.94 1.84 3.17.67 1.24 1.37 2.61 2.08 4.07 2.81 5.83 4.63 10.83 3.67 11.38z"/><path d="m845.97 654.31c-.55.06-1.24-1.62-1.89-4.42-.64-2.8-1.23-6.74-1.26-11.19-.01-2.22.15-4.35.42-6.27.3-1.92.69-3.63 1.17-5.03.94-2.81 2.03-4.33 2.53-4.16.55.18.43 1.97.24 4.72-.11 1.38-.19 3.01-.27 4.82-.06 1.81-.09 3.8-.09 5.91.03 4.21.16 8.08.08 10.92-.09 2.83-.38 4.64-.93 4.7z"/><path d="m841.74 631.32c-.53-.23-.47-1.54-.37-3.51.12-1.97.2-4.66.41-7.79.2-3.13.71-6.1 1.55-8.15.82-2.06 1.81-3.11 2.3-2.91.53.21.52 1.53.46 3.5-.08 1.98-.12 4.69-.32 7.84s-.76 6.13-1.65 8.17c-.86 2.05-1.9 3.07-2.38 2.85z"/><path d="m841.85 610.54c-.46-.32-.44-1.19-.29-2.33s.39-2.57.55-4.16c.14-1.59.17-3.04.23-4.19.07-1.14.2-2 .72-2.23.49-.22 1.31.28 2.01 1.51.71 1.21 1.21 3.15 1.02 5.29-.2 2.14-1.06 3.95-1.98 5.01-.92 1.07-1.82 1.41-2.26 1.1z"/><path d="m842.64 596.56c-.28-.06-.47-.33-.71-.62-.23-.3-.51-.62-.9-1s-.9-.84-1.55-1.38c-.63-.52-1.47-1.26-2.22-2.02-3.07-3.08-4.93-6.2-4.15-6.98s3.91 1.08 6.98 4.16c.78.79 1.43 1.49 2.09 2.34.64.83 1.15 1.75 1.39 2.65.25.9.16 1.75-.09 2.25-.24.5-.59.66-.84.6z"/><path d="m829.04 597.69c-.54.02-1.1-1.17-1.32-3.14-.24-1.97-.09-4.64.23-7.42s.58-5.16.7-6.94c.14-1.76.23-2.97.78-3.15.5-.17 1.41.83 2.03 2.8.32.98.51 2.18.61 3.5.07 1.32.02 2.76-.13 4.22-.33 2.92-.91 5.4-1.38 7.19-.51 1.78-.96 2.92-1.52 2.94z"/><path d="m830.81 586.59c-1.07.37-3.21-3.14-6.23-6.97-2.97-3.87-5.84-6.81-5.21-7.76.31-.44 1.5-.25 3.1.63s3.57 2.48 5.27 4.68c1.7 2.19 2.77 4.51 3.22 6.27.46 1.76.36 2.96-.15 3.15z"/><path d="m824.72 621.61c-1.06.32-3.15-3.52-5.01-8.45-1.85-4.94-2.81-9.2-1.79-9.66 1-.46 3.63 3.18 5.54 8.25 1.91 5.08 2.32 9.55 1.26 9.86z"/><path d="m822.25 649.49c-1.13-.08-1.58-6.07-2.33-13.32-.71-7.26-1.47-13.21-.38-13.51 1.03-.31 3.6 5.47 4.36 13.11.78 7.65-.58 13.81-1.65 13.72z"/><ellipse cx="822.46" cy="620.3" rx="2" ry="3.44"/><path d="m813.81 676.02c-.53 0-1.04-2.02-.94-5.29.07-3.27.88-7.68 1.99-12.33.53-2.3 1.03-4.5 1.49-6.5.4-1.98.76-3.77.98-5.27.47-3.01.65-4.97 1.24-5.05.51-.08 1.35 1.85 1.59 5.16.14 1.65.06 3.61-.16 5.75-.25 2.14-.68 4.45-1.23 6.81-1.13 4.72-2.32 8.82-3.09 11.82-.8 3-1.29 4.9-1.87 4.9z"/><path d="m810.99 684.96c-.52.14-1.38-1-2.1-3.1-.73-2.09-1.22-5.13-1.17-8.45s.55-6.26 1.13-8.33 1.24-3.3 1.79-3.24c.55.07.88 1.42 1.02 3.53s.1 4.98.06 8.08c-.01 3.09-.03 5.89-.03 7.94-.03 2.07-.15 3.42-.7 3.57z"/><path d="m812.34 673.21c-1.09.01-1.98-4.74-1.15-10.51.81-5.78 2.99-10.08 4.03-9.77 1.08.31.69 4.87-.07 10.34-.79 5.46-1.69 9.95-2.81 9.94z"/><path d="m897.7 608.96c-1.04-.32-.96-3.55.91-6.88s4.59-5.08 5.4-4.35c.84.74-.28 3.39-1.91 6.31-1.65 2.92-3.33 5.26-4.4 4.92z"/><path d="m796.59 725.41c-.56-.11-.7-1.89-1.01-4.68-.15-1.4-.34-3.08-.5-4.98s-.28-4.05-.15-6.37c.12-2.33.59-4.56 1.13-6.42.54-1.88 1.1-3.48 1.56-4.82.95-2.66 1.49-4.34 2.05-4.33.54.01.99 1.92.71 4.91-.12 1.49-.42 3.21-.74 5.05-.33 1.86-.62 3.77-.73 5.83-.2 4.15-.05 8.22-.52 11.19-.4 2.99-1.27 4.73-1.8 4.62z"/><path d="m799.03 713.31c-.35-.47.61-1.69 1.08-3.92.25-1.12.41-2.5.49-4.13.08-1.6.11-3.52.25-5.49.25-3.94.61-7.46.96-10.02.36-2.56.76-4.18 1.32-4.21.55-.03 1.15 1.57 1.51 4.2.37 2.64.46 6.29.21 10.27-.14 1.99-.28 3.85-.58 5.66-.3 1.79-.81 3.45-1.52 4.75-.7 1.31-1.6 2.19-2.32 2.62-.72.46-1.24.48-1.4.27z"/><path d="m804.86 695.84c-.52-.2-.56-1.43-.31-3.21.24-1.78.75-4.08.83-6.47.06-2.39-.18-4.96-.01-6.79.14-1.84.5-3.01 1.05-3.08s1.18.98 1.76 2.73c.29.88.57 1.91.81 3.11s.44 2.6.39 4.16c-.12 3.15-1.23 5.66-2.16 7.28-.97 1.63-1.85 2.46-2.36 2.27z"/><path d="m782.96 718.57c-.32-.43-.02-1.32.96-2.28.49-.47 1.14-.95 1.94-1.35.77-.4 1.79-.74 2.71-.92.41-.09.54-.12.59-.14.08-.02.16-.04.28-.15.24-.21.5-.72.7-1.2.4-.98.77-1.8 1.33-1.86.53-.06 1.18.59 1.5 2 .13.71.22 1.65-.3 2.84-.26.58-.73 1.21-1.38 1.66-.66.48-1.42.66-1.89.76-1.59.32-3.03.62-4.11.84-1.14.21-2 .25-2.33-.2z"/><path d="m772.88 719.71c-.78.82-4.29-1.33-8.69-3.46-4.38-2.18-8.23-3.64-8.06-4.76.09-.53 1.25-.86 3.07-.75 1.81.11 4.27.7 6.76 1.92 2.48 1.22 4.46 2.8 5.65 4.17s1.63 2.48 1.27 2.88z"/><path d="m771.79 719.74c-.42-.33-.33-1.3.43-2.52.75-1.2 2.21-2.59 4.17-3.52 1.96-.92 3.96-1.17 5.37-.97 1.42.19 2.23.73 2.22 1.27-.01.56-.77 1.03-1.85 1.54-1.09.5-2.51 1.08-4.03 1.79-1.52.72-2.87 1.45-3.95 1.97-1.07.5-1.92.79-2.36.44z"/><path d="m758.9 714.1c-.48.99-3.12.71-5.76-.88-2.64-1.58-4.14-3.77-3.49-4.66.65-.9 3.07-.25 5.55 1.23 2.46 1.49 4.18 3.32 3.7 4.31z"/><path d="m730.45 711.19c-.13-.53.95-1.32 2.84-2.14 1.89-.8 4.63-1.66 7.84-1.99 3.22-.34 6.22.07 8.21.71 2.02.64 3.13 1.41 3.02 1.95-.11.55-1.42.76-3.39.86-1.98.1-4.56.16-7.44.47-2.89.3-5.58.67-7.6.76-2.02.1-3.35-.08-3.48-.62z"/><path d="m736.23 713.73c-.16 1.11-4.57 1.37-9.81 1.98-1.34.14-2.51.31-3.84.41-1.3.09-2.7-.02-3.78-.5-1.07-.46-1.79-1.18-2.07-1.79-.29-.61-.2-1.03.02-1.17.49-.26 1.36.27 2.75.22.68 0 1.49-.15 2.56-.41 1.05-.26 2.48-.59 3.9-.74 2.89-.33 5.53-.11 7.39.35 1.88.45 2.95 1.11 2.88 1.65z"/><path d="m700.53 718.73c-.24-1.09 4.59-3.05 10.7-4.69 6.11-1.63 11.27-2.34 11.61-1.29s-4.36 3.49-10.57 5.15c-6.22 1.67-11.51 1.9-11.74.83z"/><path d="m706.72 723.6c-.18.51-1.56.56-3.63.05-2.06-.5-4.79-1.61-7.53-3.33-2.73-1.72-4.91-3.7-6.26-5.34s-1.9-2.91-1.52-3.29c.81-.79 4.84 2.09 9.91 5.25 5.05 3.2 9.39 5.59 9.03 6.66z"/><path d="m689.51 718.93c-.31-1.05 4.94-3.54 11.81-5.29 6.87-1.76 12.67-2.09 12.9-1.01.23 1.09-5.13 3.15-11.91 4.89-6.79 1.72-12.49 2.47-12.8 1.41z"/><path d="m692.18 722.08c-.69.86-4.02-.68-7.43-3.43s-5.62-5.69-4.92-6.55c.69-.86 4.02.68 7.43 3.43s5.62 5.69 4.92 6.55z"/><path d="m682.32 716.42c-.22.48-1.48.51-3.28-.24-1.78-.73-4.04-2.32-5.84-4.69s-2.73-4.96-2.97-6.88c-.24-1.93.12-3.14.64-3.22.56-.09 1.19.89 2.05 2.34.85 1.46 1.98 3.38 3.46 5.33 1.49 1.95 3.04 3.55 4.22 4.75 1.18 1.22 1.96 2.09 1.72 2.61z"/><path d="m671.44 716.81c-1.08.22-2.72-3.32-3.67-7.91-.24-1.15-.41-2.25-.51-3.27-.1-.97-.18-2.1.02-3.05.18-.96.67-1.79 1.19-2.14.52-.36.92-.29 1.09-.09.18.21.18.56.23.92.05.37.14.77.32 1.34.17.59.44 1.27.76 2.28.3.97.58 2.06.82 3.2.95 4.6.83 8.5-.25 8.72z"/><path d="m665.94 705.54c-.53.05-1.18-1.38-1.49-3.78-.33-2.39-.26-5.68-.04-9.15.09-1.71.18-3.34.26-4.82.04-1.46.08-2.77.05-3.88-.01-2.21-.08-3.67.47-3.88.49-.19 1.54 1.02 2.32 3.4.41 1.18.67 2.63.84 4.24.14 1.61.15 3.36.05 5.17-.23 3.61-.74 6.71-1.12 8.97-.41 2.25-.77 3.68-1.34 3.73z"/><path d="m660.89 686.98c-1.08.26-2.84-3.16-4.22-7.56-1.37-4.4-1.87-8.22-.83-8.62 1.03-.39 3.24 2.89 4.65 7.42 1.42 4.54 1.47 8.5.4 8.76z"/><path d="m661.94 687.27c-1.05-.37-1.51-1.75-1.34-3.14.19-1.39 1-2.6 2.11-2.68 1.09-.09 2.1 1.36 1.85 3.21-.24 1.85-1.59 2.98-2.62 2.61z"/><path d="m654.72 678.07c-.57-.03-.96-1.41-1.45-3.5-.49-2.1-1.16-4.93-2.03-8.09-.88-3.15-1.72-6.06-2.16-8.25-.45-2.19-.49-3.65.02-3.85s1.49.89 2.62 2.85 2.43 4.81 3.38 8.19c.94 3.38 1.23 6.63 1 8.97-.22 2.33-.85 3.71-1.38 3.68z"/><path d="m644.88 668.04c-.52.16-1.42-1.01-2.26-3.16-.84-2.13-1.55-5.25-1.68-8.75-.12-3.5.38-6.66 1.07-8.85s1.51-3.42 2.03-3.3c1.11.28.65 5.59.9 12.01.2 6.42 1.03 11.7-.06 12.05z"/><path d="m622.44 666.68c-1.11 0-1.99-4.58-2.24-10.22-.24-5.64.25-10.27 1.36-10.37 1.09-.1 2.4 4.46 2.64 10.2.25 5.74-.66 10.39-1.76 10.39z"/><path d="m607.7 661.45c-.4-1.06 1.9-2.87 4.44-5.11 2.57-2.2 4.7-4.21 5.69-3.67.47.28.51 1.22.02 2.5-.48 1.27-1.54 2.85-3.09 4.2s-3.27 2.17-4.59 2.46c-1.34.3-2.26.13-2.47-.38z"/><path d="m611.85 661.88c-.4.33-1.58-.22-2.72-1.87-.58-.81-1.04-1.88-1.45-3.08-.36-1.2-.62-2.53-.77-3.89-.29-2.72-.28-5.02-.27-6.71.02-1.67.1-2.8.63-3.01.49-.2 1.4.68 2.14 2.43.75 1.74 1.21 4.25 1.48 6.83.14 1.25.27 2.44.39 3.53.16 1.04.27 1.98.44 2.75.3 1.58.59 2.66.13 3.02z"/><path d="m606.37 650.19c-1.09.15-2.49-3.51-3.11-8.16s-.24-8.55.86-8.69c1.09-.15 2.49 3.51 3.11 8.16.61 4.65.23 8.54-.86 8.69z"/><path d="m604.31 642.28c-1.13.07-2.33-5.11-4.24-11.25-1.86-6.15-3.78-11.12-2.8-11.69.47-.26 1.6.67 2.89 2.54 1.29 1.86 2.72 4.67 3.73 7.98 1.01 3.3 1.41 6.43 1.38 8.7-.01 2.27-.42 3.68-.96 3.72z"/><path d="m594.62 629.58c-1.12.11-2.48-4.79-4.1-10.74-1.58-5.95-2.86-10.88-1.84-11.34.98-.46 4.01 3.99 5.7 10.31 1.71 6.3 1.32 11.68.24 11.77z"/><path d="m589.35 619.62c-.56.09-1.19-.87-1.97-2.34-.77-1.48-1.75-3.49-2.87-5.74s-2.13-4.36-2.71-6.01c-.58-1.64-.73-2.81-.26-3.11.47-.29 1.46.34 2.67 1.63s2.66 3.26 3.88 5.71 1.89 4.92 2.01 6.76c.14 1.85-.22 3.02-.75 3.1z"/><path d="m591.95 615.13c-.55.19-1.42-1.02-3.11-2.5-1.68-1.5-4.28-3.32-7.39-5.48-6.04-4.34-10.43-8.6-9.81-9.51s6.09 1.91 12.21 6.31c3.03 2.1 5.76 4.55 7.18 6.88 1.43 2.35 1.42 4.16.92 4.3z"/><path d="m573.56 615.13c-.55-.2-.47-1.6-.88-3.59-.37-1.99-1.32-4.64-2.9-7.43-1.6-2.82-3.34-5.5-4.23-7.7-.93-2.19-1.05-3.75-.55-3.96.52-.23 1.5.81 2.96 2.48 1.43 1.7 3.48 4.03 5.31 7.23 1.84 3.22 2.6 6.78 2.24 9.34-.16 1.27-.53 2.26-.93 2.87-.39.6-.77.85-1.02.76z"/><path d="m566.69 607.18c-1.06.33-3.15-3.36-5.1-8.08-1.94-4.73-3.05-8.82-2.06-9.33.97-.51 3.75 2.9 5.76 7.81 2.02 4.9 2.45 9.28 1.4 9.6z"/><path d="m560.05 606.32c-.5.2-1.42-.67-2.34-2.4-.91-1.72-1.76-4.31-2.06-7.26-.29-2.96.02-5.66.57-7.53.55-1.88 1.28-2.92 1.81-2.82 1.11.24 1.03 4.68 1.59 9.95.51 5.27 1.47 9.6.43 10.06z"/><path d="m629.66 617.89c-1.09-.03-1.83-4.73-1.09-10.43.73-5.7 2.63-10.05 3.7-9.81 1.09.25.97 4.83.27 10.32-.71 5.5-1.76 9.96-2.88 9.92z"/><path d="m625.75 633.66c-1.1-.24-1.33-3.42-1.81-7.11-.43-3.7-.97-6.84.04-7.34.49-.22 1.32.34 2.12 1.56.8 1.21 1.54 3.1 1.81 5.29s0 4.2-.48 5.57c-.48 1.39-1.14 2.13-1.68 2.03z"/><path d="m623.56 648.48c-1.1-.23-1.29-3.73-1.38-7.89-.06-4.16 0-7.67 1.09-7.94.53-.12 1.23.66 1.82 2.08.59 1.41 1.04 3.48 1.09 5.79.04 2.31-.34 4.39-.88 5.82s-1.2 2.23-1.74 2.14z"/><path d="m626.73 622.69c-1.1.13-2.28-2.31-2.64-5.44s.23-5.78 1.33-5.9c1.1-.13 2.28 2.31 2.64 5.44s-.24 5.77-1.33 5.9z"/><path d="m635.56 605.52c-1.1-.09-1.68-3.93-1.29-8.58s1.6-8.34 2.7-8.25 1.68 3.93 1.29 8.58-1.6 8.35-2.7 8.25z"/><path d="m666.82 575.96c-.01 1.15-5.87 1.91-12.56 4.25-6.72 2.26-11.81 5.26-12.52 4.36-.32-.43.57-1.78 2.53-3.41 1.95-1.63 5.01-3.46 8.69-4.73 3.69-1.26 7.23-1.69 9.76-1.6 2.56.08 4.1.59 4.1 1.13z"/><path d="m634.82 598.4c-.52-.15-.71-1.33-.38-3.11.33-1.77 1.23-4.12 2.79-6.39 1.56-2.26 3.43-3.95 4.97-4.89 1.54-.95 2.71-1.18 3.04-.75.67.92-2.02 3.94-4.71 7.91-2.75 3.93-4.61 7.52-5.71 7.23z"/><path d="m687.18 570.23c-.37 1.11-7.37-.55-15.91.4-8.55.81-15.07 3.84-15.66 2.83-.26-.45 1.08-1.86 3.78-3.36 1.34-.76 3.03-1.48 4.97-2.11 1.95-.6 4.15-1.09 6.5-1.34 2.35-.23 4.61-.2 6.64 0 2.03.22 3.83.59 5.3 1.06 2.94.91 4.54 2.02 4.38 2.52z"/><path d="m648 584.6c-.5-.19-.74-1.09-.4-2.41.33-1.31 1.31-2.97 2.91-4.28 1.6-1.3 3.43-1.92 4.78-1.98 1.36-.07 2.2.35 2.28.88.09.56-.52 1.14-1.38 1.8-.87.67-1.98 1.45-3.15 2.4-1.16.95-2.16 1.89-2.99 2.6s-1.52 1.18-2.05.99z"/><path d="m665.48 570.2c.45 1.02-2.88 3.47-7.29 5.79-4.41 2.31-8.32 3.67-8.9 2.72-.58-.93 2.5-3.88 7.04-6.26 4.54-2.39 8.71-3.25 9.15-2.25z"/><path d="m830.35 580.75c-.28 0-.53-.26-.89-.43-.34-.18-.8-.37-1.53-.61-.69-.21-1.81-.58-2.89-1.03-1.11-.45-2.3-1-3.52-1.62-4.9-2.5-8.46-5.33-7.95-6.31.5-.98 4.88.25 9.77 2.75 1.22.63 2.36 1.27 3.38 1.9 1.03.66 1.86 1.19 2.71 1.91.81.69 1.4 1.61 1.45 2.36.07.75-.27 1.09-.53 1.08z"/><path d="m772.99 567.37c.14-1.1 9.02-.9 19.85.45s19.49 3.32 19.36 4.42c-.14 1.1-9.02.9-19.85-.45-10.83-1.34-19.5-3.32-19.36-4.42z"/><path d="m818.3 573.54c-.13 1.08-6.59 1.14-14.2-.87-7.62-1.99-13.21-5.22-12.8-6.22.42-1.04 6.47.44 13.81 2.35 7.34 1.94 13.33 3.62 13.19 4.74z"/><ellipse cx="756.15" cy="567.59" rx="19.93" ry="2" transform="matrix(1 -.00856567 .00856567 1 -4.8341 6.4978)"/><path d="m799.47 572.46c-.41 1.06-6.59-.39-14.22-1.61-7.61-1.27-13.94-1.86-13.99-2.99-.01-.54 1.6-1.1 4.26-1.38 2.65-.28 6.36-.23 10.38.43s7.55 1.79 9.98 2.89c2.43 1.11 3.78 2.15 3.59 2.66z"/><path d="m716.98 567.97c-.01-1.11 7.88-2.08 17.6-2.62 9.72-.53 17.67-.45 17.79.66.11 1.09-7.74 2.79-17.56 3.33-9.83.55-17.82-.27-17.83-1.37z"/><path d="m731.75 567.42c-.38 1.08-4.96.38-10.48.57-5.52.12-10.06 1.08-10.49.02-.19-.5.76-1.43 2.62-2.31 1.85-.87 4.63-1.62 7.76-1.71s5.95.5 7.85 1.27 2.9 1.64 2.74 2.16z"/><path d="m728 567.64c-.23 1.09-5.07.99-10.89.19-5.82-.81-10.51-2.04-10.43-3.15.07-1.09 5.01-1.65 10.98-.82 5.96.83 10.56 2.71 10.34 3.78z"/><path d="m672.4 570.43c-.31-1.04 5.84-3.77 13.94-5.1 8.1-1.35 14.8-.76 14.84.33.05 1.12-6.35 2.3-14.19 3.62-7.83 1.28-14.27 2.23-14.59 1.15z"/><path d="m713.59 568.66c-.4 1.04-4.46.45-9.23-.84-4.76-1.3-8.57-2.86-8.38-3.96.18-1.08 4.45-1.26 9.43.1s8.57 3.68 8.18 4.7z"/><path d="m760.62 567.72c-.31-1.05 3.75-3.17 9.19-4.13 5.44-.97 9.98-.38 10.05.71.07 1.11-4.15 2.29-9.35 3.23-5.21.91-9.58 1.26-9.89.19z"/><path d="m801.5 572.21c-.34 1.05-6.22.12-13.13-2.09s-12.25-4.85-11.92-5.9c.34-1.05 6.22-.12 13.13 2.09 6.92 2.21 12.26 4.85 11.92 5.9z"/><path d="m749.96 567.66c-.19-1.07 3.03-2.5 7.19-2.27 4.16.22 7.2 1.98 6.9 3.03-.3 1.08-3.43 1.15-7.12.97-3.68-.21-6.79-.62-6.97-1.73z"/><path d="m769.54 576.38c-.15.56-1.37.69-3.07 1.32-.86.31-1.86.73-3.04 1.25s-2.53 1.13-4.1 1.65c-1.54.52-3.34.82-4.75.8-1.41 0-2.55-.09-3.46-.11-.92-.04-1.62 0-2.18.01-.55 0-.94-.01-1.11-.24-.15-.21-.06-.64.41-1.15.46-.5 1.32-1.05 2.4-1.41 1.09-.37 2.37-.57 3.64-.77 1.28-.19 2.4-.47 3.8-.93 1.37-.45 2.76-.96 4.12-1.33s2.7-.59 3.85-.57c1.15-.01 2.1.28 2.69.56.6.33.86.65.8.92z"/><path d="m796.35 582c.02 1.1-6.7 2.09-14.99 1.9-8.29-.18-14.96-1.45-14.89-2.55.06-1.11 6.77-1.62 14.98-1.45 8.21.18 14.89.99 14.9 2.1z"/><path d="m815.58 589.8c-.11 1.09-7.49 1.22-16.4-.27-8.91-1.48-15.84-4.02-15.59-5.08.25-1.09 7.48-.33 16.25 1.13 8.78 1.47 15.86 3.11 15.74 4.22z"/><path d="m821.87 603.87c-.59-.01-.98-1.21-2.07-2.55-1.06-1.36-2.95-2.95-5.43-4.2-2.55-1.27-5.26-2.35-7.06-3.6-1.82-1.22-2.64-2.43-2.33-2.86.32-.46 1.58-.18 3.5.29 1.91.51 4.64 1.1 7.7 2.61 3.12 1.56 5.41 4.15 6.15 6.49.38 1.16.41 2.16.25 2.83-.17.66-.44.99-.71.99z"/><path d="m797.36 588.43c.18-.52 1.74-.52 4.14-.04 2.39.5 5.67 1.48 9.04 3.36 1.68.94 3.2 2.03 4.45 3.17 1.29 1.15 2.31 2.46 2.89 3.75.6 1.29.7 2.53.53 3.32-.18.8-.53 1.15-.79 1.11-.28-.04-.48-.43-.76-.96-.29-.54-.7-1.22-1.38-1.97s-1.62-1.56-2.81-2.38c-1.21-.85-2.59-1.71-4.09-2.56-3.01-1.69-5.95-3.03-8.05-4.19-2.11-1.14-3.36-2.09-3.17-2.61z"/><path d="m687.47 577.06c.61.91-5.06 5.77-13.03 10.25-7.96 4.5-15.06 6.84-15.52 5.85-.48-1.01 5.74-4.92 13.55-9.33 7.83-4.4 14.38-7.7 15-6.77z"/><path d="m661.02 588.73c.72.86-2.68 4.89-7.11 9.52-4.44 4.62-8.32 8.19-9.21 7.51-.87-.66 1.71-5.48 6.32-10.28 4.6-4.8 9.3-7.58 10-6.75z"/><path d="m703.59 577.38c.32 1.06-4.35 3.48-10.42 5.42s-11.28 2.66-11.63 1.61 4.31-3.47 10.42-5.42 11.32-2.67 11.63-1.61z"/><path d="m728.98 572.46c.37 1.04-6.08 4.26-14.4 7.19s-15.36 4.46-15.73 3.42 6.08-4.26 14.4-7.19 15.37-4.46 15.73-3.42z"/><path d="m699.81 578.57c-.11.57-1.37.75-3.12 1.32-1.77.54-4.08 1.55-6.73 2.92-2.67 1.38-5.38 2.61-7.55 3-2.17.42-3.59.08-3.66-.45-.08-.56 1.03-1.2 2.67-2.2 1.67-.97 3.89-2.45 6.73-3.91 2.85-1.48 5.93-2.31 8.22-2.16 2.32.1 3.56.97 3.44 1.48z"/><path d="m731.76 579.09c.12 1.1-4.04 2.34-9.28 2.77s-9.54-.12-9.61-1.22c-.06-1.1 4.09-2.34 9.28-2.77 5.2-.43 9.5.12 9.61 1.22z"/><path d="m697.75 579.08c.64.91-.35 2.7-2.09 4.15s-3.68 2.1-4.46 1.32c-.77-.78.01-2.82 1.9-4.39 1.88-1.57 4.02-1.98 4.65-1.08z"/><path d="m640.5 648.5c-1.08-.28-1-4.2-.27-8.86.74-4.65 1.86-8.41 2.97-8.35 1.09.06 1.75 4.1.98 8.97-.76 4.87-2.62 8.52-3.68 8.24z"/><path d="m640.14 647.8c-.55-.05-.93-1.48-1.06-3.77-.12-2.29.01-5.48.79-8.98.4-1.74.93-3.39 1.55-4.83.64-1.44 1.33-2.69 2.06-3.65 1.43-1.94 2.73-2.77 3.15-2.46.46.34.03 1.71-.64 3.76-.34 1.02-.7 2.24-1.1 3.59-.37 1.36-.75 2.86-1.12 4.47-.71 3.21-1.28 6.21-1.88 8.39-.59 2.18-1.2 3.53-1.75 3.48z"/><path d="m643.79 629.91c-1.08-.28-1.16-3.56-.7-7.41.48-3.85 1.36-7.01 2.47-7.02 1.09-.01 2.01 3.37 1.5 7.51-.5 4.14-2.21 7.2-3.27 6.92z"/><path d="m643.42 614.44c-.99-.48-1.27-1.96-.62-3.29.65-1.34 1.98-2.03 2.97-1.54s1.27 1.96.62 3.29c-.64 1.33-1.97 2.02-2.97 1.54z"/><path d="m705.91 715.53c-.34-1.03 4.6-3.58 11.23-4.87 6.63-1.31 12.17-.81 12.24.28.08 1.12-5.11 2.39-11.47 3.65-6.37 1.23-11.66 2-12 .94z"/><path d="m757.55 669.78c1.07.22 1.24 3.64-.33 7.39-1.56 3.75-4.11 6.03-5.02 5.43-.94-.61-.07-3.59 1.33-6.97 1.42-3.37 2.92-6.09 4.02-5.85z"/><path d="m768.13 661.84c.87.69-.33 3.66-2.29 6.91-1.97 3.24-4.04 5.69-5.05 5.23-1-.44-.48-3.82 1.63-7.3 2.1-3.49 4.86-5.53 5.71-4.84z"/><path d="m761.23 666.32c1.07.25 1.42 2.65.47 5.26-.94 2.61-2.74 4.23-3.72 3.74-1-.49-.89-2.73-.04-5.1.86-2.38 2.21-4.16 3.29-3.9z"/><path d="m759.93 672.16c.51.13.76 1.46.1 3.45-.65 1.95-2.35 4.51-5.17 6.19-.7.41-1.44.76-2.12 1.01s-1.3.44-1.88.61c-1.16.33-2.1.58-2.83.85-.73.26-1.27.52-1.71.75-.44.22-.78.38-1.04.26-.24-.1-.39-.5-.25-1.14.13-.64.62-1.5 1.45-2.24.82-.76 1.92-1.38 3.05-1.92.54-.25 1.11-.51 1.7-.79.56-.26 1.04-.52 1.57-.83 2.06-1.24 3.63-2.85 4.74-4.13 1.12-1.27 1.84-2.22 2.39-2.07z"/><path d="m745.53 680.45c.73.85-.55 3.14-2.31 5.62-1.78 2.45-3.55 4.41-4.58 3.98-.5-.22-.69-1.05-.49-2.22s.81-2.67 1.83-4.09c1.03-1.43 2.25-2.48 3.29-3.04 1.04-.57 1.89-.66 2.26-.25z"/><path d="m730.39 684.55c.55-.07 1.1.3 1.59.85.5.56.96 1.31 1.37 2.17s.69 1.69.81 2.44c.11.74.05 1.39-.35 1.77-.4.37-1.1.38-1.89-.05-.78-.42-1.63-1.29-2.18-2.46s-.68-2.38-.51-3.25.62-1.41 1.16-1.47z"/><path d="m712.51 671.5c.94-.58 3.88 2.47 6.57 6.81s4.11 8.34 3.17 8.92-3.88-2.47-6.57-6.81c-2.69-4.35-4.11-8.34-3.17-8.92z"/><path d="m703.49 668.14c.38-.38 1.5-.03 2.87 1.13.68.58 1.41 1.36 2.09 2.33.68.94 1.32 2.17 1.8 3.29.49 1.12.89 2.02 1.33 2.69.38.62.88 1.1 1.36 1.43.48.34.91.53 1.3.67.38.14.72.23.86.48.13.22.05.62-.45 1.02-.49.39-1.44.69-2.54.53-1.09-.14-2.34-.71-3.35-1.76-.98-1-1.65-2.27-2.16-3.44-.51-1.19-.89-2.12-1.32-3.05-.43-.92-.82-1.75-1.15-2.46-.67-1.43-1.04-2.46-.64-2.86z"/><path d="m696.11 658.73c.47-.28 1.36.2 2.34 1.33.97 1.12 2 2.92 2.64 5.07s.77 4.21.58 5.69c-.2 1.48-.68 2.37-1.22 2.39-1.13.01-2.04-3.19-3.19-6.93-1.1-3.77-2.09-6.94-1.15-7.55z"/><path d="m704.54 666.72c.49-.23 1.23.12 1.93 1.01.7.88 1.32 2.31 1.52 3.97s-.07 3.2-.53 4.22c-.47 1.03-1.1 1.55-1.63 1.44-.55-.11-.91-.78-1.18-1.71-.27-.94-.47-2.14-.62-3.47-.16-1.32-.26-2.54-.22-3.52.03-.97.22-1.71.73-1.94z"/><path d="m716.3 678.71c1.05-.34 2.3.6 2.8 2.11s.05 3.02-1 3.36-2.3-.6-2.8-2.11c-.5-1.52-.05-3.02 1-3.36z"/><path d="m720.85 681.39c.84-.71 2.97.42 4.75 2.52 1.78 2.11 2.54 4.39 1.7 5.1s-2.97-.42-4.75-2.52-2.55-4.39-1.7-5.1z"/></g><path d="m914.17 745.62 13.14 16.4 12.19 22.94 4.94 29.19-11.54 42.09-24.89 43.02-43.77 53.7-36.43 32.81-79.13 67.35-27.1 19.58-51.17-45.07-59.14-48.69-35.86-37.48s-35.45-44.1-39.53-50.21c-4.08-6.1-15.4-30.24-18.6-34.52s-12.04-31.05-12.5-33.8c-.46-2.74-2.33-22.8-1.26-25.08s4.24-16.96 10.24-24.21c6-7.26 23.32-23.3 23.32-23.3l-5.41 14.4s-4.7 26.33-4.7 29.04c0 2.72.51 27.01.51 27.01l12.39 28.66 14.93 29.19s22.4 18.33 25.12 19.01 30.72 20.39 52.69 24.11 40.54 6.23 40.54 6.23l60.14 4.83 45.18-7.11 56.11-17.93 46.05-30.5s25.79-25.79 26.47-27.83 14.21-32.58 14.21-32.58-.72-29.67 0-31.46c.73-1.81-7.14-39.79-7.14-39.79z" fill="#fff"/><path d="m1447.43 1235-21-60.04-21.73-60.46s-26.77-50.33-27.97-52.45-48.44-67.67-48.44-67.67-50.09-48.69-50.37-48.95-36.47-26.87-40.21-28.86-69.72-34.47-69.72-34.47-71.19-32.4-73.14-33.29c-1.94-.88-86.31-39.12-86.31-39.12v31.6s-5.34 29-9.61 39.81-20.35 42.94-20.35 42.94l-21.93 33.64-32.27 39.71-59.61 58.42-51.4 41.79-88.09 60.94-64.53-42.69-73.02-57.32-72.9-72.78s-42.21-58.52-43.88-61.45-22.72-47.75-25.4-58.11c-2.69-10.36-6.75-55.58-6.75-55.58l-58.31 26.42-131.59 60.59s-59.68 32.63-62.77 35.18-22.93 20.14-22.93 20.14l-47.2 46.86-26.64 33.57-20.14 34.8-22.3 41.84-10.45 22s-3.31 24.53-6.38 26.52-17.65 64.5-17.65 64.5z" fill="#002860"/><path d="m358.14 1236.89-281.61-170.24c-40.53 35.13-50.77 106.74-50.77 106.74l289.14 106.74z" fill="#fff"/><path d="m288.47 1240.87c-2.81-10.37-8.41-19.76-16.18-27.16-46.37-44.1-100.19-73.55-137.17-90.5-44.15-20.23-76.83-28.76-78.2-29.11l-26.69 58.19h30.13v20.75l13.15.84c33.07 2.1 76.68 15.19 126.11 37.86 23.8 10.91 43.69 21.62 56.19 28.69 7.62 4.31 15.85 7.39 24.47 9.15l11.17 2.29z" fill="#002860"/><path d="m281.69 1242.71c-2.47-9.12-7.4-17.39-14.25-23.91-45.32-43.1-97.9-72.09-135.26-89.2-43.65-20-75.69-28.35-77.03-28.7l-26.01 44.37h38.23v21.19l6.57.42c33.92 2.15 78.39 15.46 128.59 38.49 24.64 11.3 45.17 22.43 56.72 28.96 7.01 3.95 14.58 6.77 22.44 8.38z" fill="#fff"/><path d="m273.02 1234.19s-113.5-68.91-198.62-74.31v-21.62h-36.83l15.84-30.55c0-.01 129.08 33.25 219.61 126.48z" fill="#002860"/><path d="m912.56 741.28 28.99 19.65 24.27 12.84 23.7 19.52 19.04 16.42s3.27 15.45 0 31.6-20.19 62.85-20.19 62.85l-37.14 64.76-41.07 43.81-45.37 43.1-68.33 53.49-71.17 49.23-52.15-34.49-93.07-73.16-52.59-52.51-56.52-74.07s-23.41-42.97-25.44-53.83c-2.04-10.86-6.71-48.19-6.71-48.19l6.9-20.24 14.35-8.54 32.15-20.89 48.91-29.03-17.54 16.24-14.25 24.44-5.8 25.42 7.76 30.92 11.61 31.22 24.44 36.55 37.83 44.56 52.24 49.59 88.38 67.17 70.67-54s50.23-48.16 53.62-50.87c3.39-2.72 55.09-60.69 55.09-60.69l27.72-47.92s10.18-25.79 11.54-42.09-2.04-33.26-2.04-33.26z" fill="#002860"/><path d="m1092.67 1236.89 281.61-170.24c40.53 35.13 50.77 106.74 50.77 106.74l-289.14 106.74z" fill="#fff"/><path d="m1162.34 1240.87c2.81-10.37 8.41-19.76 16.18-27.16 46.37-44.1 100.19-73.55 137.17-90.5 44.15-20.23 76.83-28.76 78.2-29.11l26.69 58.19h-30.13v20.75l-13.15.84c-33.07 2.1-76.68 15.19-126.11 37.86-23.8 10.91-43.69 21.62-56.19 28.69-7.62 4.31-15.85 7.39-24.47 9.15l-11.17 2.29z" fill="#002860"/><path d="m1169.12 1242.71c2.47-9.12 7.4-17.39 14.25-23.91 45.32-43.1 97.9-72.09 135.26-89.2 43.65-20 75.69-28.35 77.03-28.7l26.01 44.37h-38.23v21.19l-6.57.42c-33.92 2.15-78.39 15.46-128.59 38.49-24.64 11.3-45.17 22.43-56.72 28.96-7.01 3.95-14.58 6.77-22.44 8.38z" fill="#fff"/><path d="m1177.79 1234.19s113.5-68.91 198.62-74.31v-21.62h36.84l-15.84-30.55c-.01-.01-129.09 33.25-219.62 126.48z" fill="#002860"/><path d="m713.83 937.9c-42.54 0-84.84-8.58-121.43-25.88-31.06-14.69-54.9-42.59-65.4-76.54-10.13-32.75-6.64-66.27 9.81-94.41l8.63 5.05c-15.02 25.68-18.17 56.37-8.89 86.41 9.67 31.28 31.58 56.95 60.12 70.45 36.93 17.47 80.46 26.01 125.88 24.71 45.19-1.3 88.18-12.2 124.31-31.53 42.51-22.75 65.31-54.51 67.76-94.4 1.84-30.04-9.1-53.79-9.21-54.03l9.05-4.26c.49 1.04 12.05 25.97 10.17 58.47-1.74 30.1-15.83 72.41-73.05 103.03-40.88 21.89-89.47 32.93-137.75 32.93z" fill="#221407"/><path d="m13.59 1224.63-9.49-3.16c1.01-3.04 15.3-51.07 21.29-74.01 6.26-24.01 46.79-96.07 62.71-121.54 16-25.59 85.52-91.49 103.29-103.33 18.21-12.14 77.33-40.31 101.51-51.3 22.15-10.07 144.67-65.58 145.9-66.14l4.13 9.11c-1.23.56-123.75 56.08-145.89 66.14-23.94 10.88-82.39 38.71-100.1 50.52-16.83 11.22-85.26 76.16-100.35 100.31-15.21 24.33-55.6 96.08-61.51 118.76-6.29 24.04-20.54 71.77-21.49 74.64z" fill="#221407"/><path d="m1435.83 1224.63c-.96-2.88-15.21-50.63-21.48-74.65-5.92-22.68-46.3-94.43-61.51-118.76-15.09-24.15-83.52-89.09-100.35-100.31-17.7-11.8-76.15-39.63-100.1-50.52-22.14-10.06-144.66-65.58-145.89-66.14l4.13-9.11c1.24.56 123.76 56.08 145.9 66.14 24.17 10.99 83.3 39.16 101.5 51.3 17.76 11.84 87.29 77.73 103.29 103.33 15.91 25.46 56.44 97.52 62.71 121.54 5.98 22.91 20.27 70.97 21.29 74.01z" fill="#221407"/><path d="m725.3 1163.55c-.38 0-.77-.04-1.15-.13l-1.88-.44c-.52-.12-1.03-.33-1.48-.62-108.74-67.35-188.34-138.34-236.6-210.99-38.96-58.66-48.8-105.25-50.19-134.01-.27-5.63 1.95-11.03 6.11-14.82 14.19-12.95 49.16-34.9 110.04-69.08 2.37-1.33 5.37-.52 6.75 1.82s.64 5.36-1.68 6.79c-.48.29-47.75 30.04-46.67 64.71.03.93.05 2.04.01 3.21-.35 10.12 2.87 102.52 216.14 254.35 213.29-151.82 216.5-244.22 216.15-254.34-.04-1.19-.01-2.34.01-3.21.4-12.78-6.21-26.79-19.65-41.63-11.14-12.3-23.76-21.48-28.67-24.85-2.24-1.52-2.9-4.55-1.48-6.89s4.42-3.16 6.83-1.86c53.52 28.9 89.32 51.83 109.46 70.1 4.07 3.7 6.29 8.96 6.07 14.44-1.15 29.36-10.4 76.51-47.94 134.38-47.49 73.21-127.42 144.65-237.57 212.35-.79.47-1.7.72-2.61.72zm-210.82-398.15c-35.35 20.72-57.61 35.39-67.64 44.53-1.94 1.77-2.99 4.31-2.86 6.95 2.43 50.21 34.66 183.33 280.74 336.16 107.82-66.53 186-136.51 232.38-208.01 36.3-55.96 45.23-101.22 46.33-129.33.1-2.52-.92-4.94-2.8-6.65-14.08-12.77-37.18-28.55-68.92-47.09 10.82 12.85 19.66 28.53 19.14 45.14-.02.77-.04 1.67-.02 2.56.25 7.38-1.16 35-29.97 80.31-36.94 58.09-102.69 120.71-195.43 186.12l-.49.7c-.08-.06-.16-.11-.25-.17-.09.06-.16.12-.25.17l-.49-.7c-92.74-65.41-158.49-128.03-195.43-186.12-28.81-45.3-30.22-72.92-29.97-80.31.03-.88.01-1.79-.01-2.56-.47-15.61 6.75-29.93 15.94-41.7zm383.7-33.36c.02.01.03.02.05.04-.02-.02-.03-.03-.05-.04z" fill="#221407"/><path d="m713.83 990.85c-42.54 0-84.84-8.58-121.43-25.88-1.16-.55-2.47-1.53-4.52-3.09-.83-.63-2.09-1.59-2.49-1.82l4.68-8.83c.97.51 2.1 1.35 3.86 2.69.88.67 2.36 1.79 2.83 2.05 36.85 17.43 80.39 25.98 125.81 24.67 45.19-1.3 88.18-12.2 124.31-31.53 17.66-9.45 33.93-23.36 42.49-32.4l7.26 6.88c-9.08 9.58-26.31 24.33-45.03 34.34-40.9 21.87-89.49 32.92-137.77 32.92z" fill="#221407"/></svg>